Lexend-ExpandedExtraBold.ufo
<glyph name="exclam" format="2">
  <advance width="434"/>
  <unicode hex="0021"/>
  <outline>
    <contour>
      <point x="150.0" y="266.0" type="curve"/>
      <point x="280.0" y="266.0" type="line"/>
      <point x="314.667" y="376.66600000000005"/>
      <point x="352.0" y="512.3340000000001"/>
      <point x="352.0" y="635.0" type="curve" smooth="yes"/>
      <point x="352.0" y="720.0" type="line"/>
      <point x="78.0" y="720.0" type="line"/>
      <point x="78.0" y="635.0" type="line" smooth="yes"/>
      <point x="78.0" y="504.3329999999999"/>
      <point x="116.667" y="368.667"/>
    </contour>
    <contour>
      <point x="218.0" y="-11.0" type="curve" smooth="yes"/>
      <point x="306.001" y="-11.0"/>
      <point x="352.0" y="37.0"/>
      <point x="352.0" y="89.0" type="curve" smooth="yes"/>
      <point x="352.0" y="150.333"/>
      <point x="307.334" y="189.0"/>
      <point x="218.0" y="189.0" type="curve" smooth="yes"/>
      <point x="129.999" y="189.0"/>
      <point x="84.0" y="141.0"/>
      <point x="84.0" y="89.0" type="curve" smooth="yes"/>
      <point x="84.0" y="27.667"/>
      <point x="128.666" y="-11.0"/>
    </contour>
  </outline>
</glyph>
<glyph name="quotedbl" format="2">
  <advance width="576"/>
  <unicode hex="0022"/>
  <outline>
    <contour>
      <point x="320.0" y="412.0" type="line"/>
      <point x="470.0" y="412.0" type="line"/>
      <point x="556.0" y="700.0" type="line"/>
      <point x="328.0" y="700.0" type="line"/>
    </contour>
    <contour>
      <point x="50.0" y="412.0" type="line"/>
      <point x="200.0" y="412.0" type="line"/>
      <point x="286.0" y="700.0" type="line"/>
      <point x="58.0" y="700.0" type="line"/>
    </contour>
  </outline>
</glyph>
<glyph name="numbersign" format="2">
  <advance width="926"/>
  <unicode hex="0023"/>
  <outline>
    <contour>
      <point x="484" y="0" type="line"/>
      <point x="673" y="0" type="line"/>
      <point x="793" y="700" type="line"/>
      <point x="604" y="700" type="line"/>
    </contour>
    <contour>
      <point x="60" y="118" type="line"/>
      <point x="829" y="118" type="line"/>
      <point x="829" y="296" type="line"/>
      <point x="60" y="296" type="line"/>
    </contour>
    <contour>
      <point x="155" y="0" type="line"/>
      <point x="344" y="0" type="line"/>
      <point x="464" y="700" type="line"/>
      <point x="275" y="700" type="line"/>
    </contour>
    <contour>
      <point x="98" y="398" type="line"/>
      <point x="866" y="398" type="line"/>
      <point x="866" y="576" type="line"/>
      <point x="98" y="576" type="line"/>
    </contour>
  </outline>
</glyph>
<glyph name="dollar" format="2">
  <advance width="802"/>
  <unicode hex="0024"/>
  <outline>
    <contour>
      <point x="411.0" y="-10.0" type="curve" smooth="yes"/>
      <point x="612.3340000000001" y="-10.0"/>
      <point x="772.0" y="76.0"/>
      <point x="772.0" y="232.0" type="curve" smooth="yes"/>
      <point x="772.0" y="421.333"/>
      <point x="599.0" y="437.0"/>
      <point x="439.0" y="453.0" type="curve" smooth="yes"/>
      <point x="384.33299999999997" y="453.667"/>
      <point x="264.0" y="454.0"/>
      <point x="264.0" y="504.0" type="curve" smooth="yes"/>
      <point x="264.0" y="533.333"/>
      <point x="321.0" y="541.0"/>
      <point x="397.0" y="541.0" type="curve" smooth="yes"/>
      <point x="510.333" y="541.0"/>
      <point x="613.0" y="513.333"/>
      <point x="689.0" y="472.0" type="curve"/>
      <point x="753.0" y="625.0" type="line"/>
      <point x="651.667" y="693.0"/>
      <point x="536.6659999999999" y="720.0"/>
      <point x="386.0" y="720.0" type="curve" smooth="yes"/>
      <point x="203.333" y="720.0"/>
      <point x="35.0" y="636.667"/>
      <point x="35.0" y="482.0" type="curve" smooth="yes"/>
      <point x="35.0" y="351.33399999999995"/>
      <point x="158.0" y="296.0"/>
      <point x="354.0" y="264.0" type="curve" smooth="yes"/>
      <point x="349.0" y="268.333"/>
      <point x="545.0" y="288.66700000000003"/>
      <point x="545.0" y="226.0" type="curve" smooth="yes"/>
      <point x="545.0" y="174.0"/>
      <point x="471.33399999999995" y="167.0"/>
      <point x="406.0" y="167.0" type="curve" smooth="yes"/>
      <point x="295.29499999999996" y="167.0"/>
      <point x="184.334" y="210.667"/>
      <point x="91.0" y="264.0" type="curve"/>
      <point x="12.0" y="96.0" type="line"/>
      <point x="108.0" y="24.0"/>
      <point x="237.315" y="-10.0"/>
    </contour>
    <contour>
      <point x="328.0" y="-91.0" type="line"/>
      <point x="446.0" y="-91.0" type="line"/>
      <point x="426.0" y="350.0" type="line"/>
      <point x="348.0" y="383.0" type="line"/>
    </contour>
    <contour>
      <point x="440.0" y="348.0" type="line"/>
      <point x="460.0" y="792.0" type="line"/>
      <point x="342.0" y="792.0" type="line"/>
      <point x="362.0" y="381.0" type="line"/>
    </contour>
  </outline>
</glyph>
<glyph name="percent" format="2">
  <advance width="1284"/>
  <unicode hex="0025"/>
  <outline>
    <contour>
      <point x="292.0" y="0.0" type="line"/>
      <point x="473.0" y="0.0" type="line"/>
      <point x="962.0" y="700.0" type="line"/>
      <point x="774.0" y="700.0" type="line"/>
    </contour>
    <contour>
      <point x="263.0" y="269.0" type="curve" smooth="yes"/>
      <point x="392.333" y="269.0"/>
      <point x="484.0" y="371.33399999999995"/>
      <point x="484.0" y="498.0" type="curve" smooth="yes"/>
      <point x="484.0" y="627.333"/>
      <point x="397.66600000000005" y="728.0"/>
      <point x="263.0" y="728.0" type="curve" smooth="yes"/>
      <point x="125.667" y="728.0"/>
      <point x="40.0" y="627.333"/>
      <point x="40.0" y="498.0" type="curve" smooth="yes"/>
      <point x="40.0" y="372.667"/>
      <point x="131.0" y="269.0"/>
    </contour>
    <contour>
      <point x="263.0" y="407.0" type="curve" smooth="yes"/>
      <point x="228.333" y="407.0"/>
      <point x="212.0" y="447.333"/>
      <point x="212.0" y="498.0" type="curve" smooth="yes"/>
      <point x="212.0" y="547.3340000000001"/>
      <point x="227.001" y="590.0"/>
      <point x="263.0" y="590.0" type="curve" smooth="yes"/>
      <point x="297.66600000000005" y="590.0"/>
      <point x="312.0" y="548.667"/>
      <point x="312.0" y="498.0" type="curve" smooth="yes"/>
      <point x="312.0" y="451.33399999999995"/>
      <point x="298.999" y="407.0"/>
    </contour>
    <contour>
      <point x="1022.0" y="-17.0" type="curve" smooth="yes"/>
      <point x="1151.333" y="-17.0"/>
      <point x="1244.0" y="85.334"/>
      <point x="1244.0" y="212.0" type="curve" smooth="yes"/>
      <point x="1244.0" y="341.333"/>
      <point x="1157.666" y="442.0"/>
      <point x="1023.0" y="442.0" type="curve" smooth="yes"/>
      <point x="885.667" y="442.0"/>
      <point x="800.0" y="341.333"/>
      <point x="800.0" y="212.0" type="curve" smooth="yes"/>
      <point x="800.0" y="85.334"/>
      <point x="888.6659999999999" y="-17.0"/>
    </contour>
    <contour>
      <point x="1023.0" y="122.0" type="curve" smooth="yes"/>
      <point x="988.333" y="122.0"/>
      <point x="972.0" y="161.333"/>
      <point x="972.0" y="212.0" type="curve" smooth="yes"/>
      <point x="972.0" y="260.0"/>
      <point x="987.3340000000001" y="304.0"/>
      <point x="1022.0" y="304.0" type="curve" smooth="yes"/>
      <point x="1057.9989999999998" y="304.0"/>
      <point x="1071.0" y="264.001"/>
      <point x="1071.0" y="212.0" type="curve" smooth="yes"/>
      <point x="1071.0" y="164.0"/>
      <point x="1058.9989999999998" y="122.0"/>
    </contour>
  </outline>
</glyph>
<glyph name="ampersand" format="2">
  <advance width="907"/>
  <unicode hex="0026"/>
  <outline>
    <contour>
      <point x="686.0" y="0.0" type="line"/>
      <point x="973.0" y="0.0" type="line"/>
      <point x="767.0" y="178.0" type="line"/>
      <point x="678.0" y="255.0" type="line"/>
      <point x="530.0" y="364.0" type="line" smooth="yes"/>
      <point x="468" y="410"/>
      <point x="379" y="479"/>
      <point x="379.0" y="515" type="curve" smooth="yes"/>
      <point x="379.0" y="541.0"/>
      <point x="404.0" y="554.0"/>
      <point x="449.0" y="554.0" type="curve" smooth="yes"/>
      <point x="504" y="554"/>
      <point x="562.0" y="521.0"/>
      <point x="601.0" y="464.0" type="curve"/>
      <point x="759.0" y="578.0" type="line"/>
      <point x="707" y="661.0"/>
      <point x="596" y="724.0"/>
      <point x="436.0" y="724.0" type="curve" smooth="yes"/>
      <point x="262" y="724.0"/>
      <point x="162.0" y="620"/>
      <point x="162.0" y="532.0" type="curve" smooth="yes"/>
      <point x="162.0" y="448"/>
      <point x="230" y="363"/>
      <point x="371.0" y="255.0" type="curve" smooth="yes"/>
      <point x="528.0" y="135.0" type="line"/>
      <point x="636.0" y="45.0" type="line"/>
    </contour>
    <contour>
      <point x="402.0" y="-16.0" type="curve" smooth="yes"/>
      <point x="588" y="-16.0"/>
      <point x="831" y="102"/>
      <point x="834.0" y="359.0" type="curve"/>
      <point x="622.0" y="359.0" type="line"/>
      <point x="638.0" y="198"/>
      <point x="484" y="155.0"/>
      <point x="403.0" y="155.0" type="curve" smooth="yes"/>
      <point x="289" y="155.0"/>
      <point x="260.0" y="191.0"/>
      <point x="260.0" y="228.0" type="curve" smooth="yes"/>
      <point x="260.0" y="257.0"/>
      <point x="288.0" y="299.0"/>
      <point x="372.0" y="322.0" type="curve"/>
      <point x="241.0" y="429.0" type="line"/>
      <point x="110" y="379"/>
      <point x="50.0" y="293"/>
      <point x="50.0" y="215.0" type="curve" smooth="yes"/>
      <point x="50.0" y="88"/>
      <point x="160" y="-16.0"/>
    </contour>
  </outline>
</glyph>
<glyph name="quotesingle" format="2">
  <advance width="286"/>
  <unicode hex="0027"/>
  <outline>
    <contour>
      <point x="50" y="412" type="line"/>
      <point x="180" y="412" type="line"/>
      <point x="266" y="700" type="line"/>
      <point x="58" y="700" type="line"/>
    </contour>
  </outline>
</glyph>
<glyph name="parenleft" format="2">
  <advance width="547"/>
  <unicode hex="0028"/>
  <outline>
    <contour>
      <point x="430" y="-186" type="curve"/>
      <point x="547" y="-69" type="line"/>
      <point x="344.334" y="13.666"/>
      <point x="264" y="131.333"/>
      <point x="264" y="258" type="curve" smooth="yes"/>
      <point x="264" y="384.667"/>
      <point x="344.334" y="502.334"/>
      <point x="547" y="585" type="curve"/>
      <point x="431" y="702" type="line"/>
      <point x="167" y="586"/>
      <point x="40" y="430"/>
      <point x="40" y="258" type="curve" smooth="yes"/>
      <point x="40" y="82"/>
      <point x="166" y="-80.667"/>
    </contour>
  </outline>
</glyph>
<glyph name="parenright" format="2">
  <advance width="547"/>
  <unicode hex="0029"/>
  <outline>
    <contour>
      <point x="116.0" y="-186.0" type="line"/>
      <point x="380.0" y="-81.0"/>
      <point x="507.0" y="82.0"/>
      <point x="507.0" y="258.0" type="curve" smooth="yes"/>
      <point x="507.0" y="434.0"/>
      <point x="381.0" y="597.0"/>
      <point x="117.0" y="702.0" type="curve"/>
      <point x="0.0" y="585.0" type="line"/>
      <point x="202.0" y="503.0"/>
      <point x="283.0" y="385.0"/>
      <point x="283.0" y="258.0" type="curve" smooth="yes"/>
      <point x="283.0" y="131.0"/>
      <point x="202.0" y="13.0"/>
      <point x="0.0" y="-69.0" type="curve"/>
    </contour>
  </outline>
</glyph>
<glyph name="asterisk" format="2">
  <advance width="571"/>
  <unicode hex="002A"/>
  <outline>
    <contour>
      <point x="206.0" y="273.0" type="line"/>
      <point x="370.0" y="273.0" type="line"/>
      <point x="349.0" y="447.0" type="line"/>
      <point x="328.0" y="436.0" type="line"/>
      <point x="475.0" y="322.0" type="line"/>
      <point x="562.0" y="446.0" type="line"/>
      <point x="355.0" y="531.0" type="line"/>
      <point x="359.0" y="494.0" type="line"/>
      <point x="562.0" y="594.0" type="line"/>
      <point x="485.0" y="720.0" type="line"/>
      <point x="320.0" y="586.0" type="line"/>
      <point x="348.0" y="565.0" type="line"/>
      <point x="367.0" y="762.0" type="line"/>
      <point x="203.0" y="762.0" type="line"/>
      <point x="225.0" y="564.0" type="line"/>
      <point x="272.0" y="581.0" type="line"/>
      <point x="95.0" y="720.0" type="line"/>
      <point x="8.0" y="594.0" type="line"/>
      <point x="208.0" y="497.0" type="line"/>
      <point x="236.0" y="537.0" type="line"/>
      <point x="17.0" y="441.0" type="line"/>
      <point x="94.0" y="317.0" type="line"/>
      <point x="248.0" y="429.0" type="line"/>
      <point x="225.0" y="447.0" type="line"/>
    </contour>
  </outline>
</glyph>
<glyph name="plus" format="2">
  <advance width="721"/>
  <unicode hex="002B"/>
  <outline>
    <contour>
      <point x="19.0" y="230.0" type="line"/>
      <point x="704.0" y="230.0" type="line"/>
      <point x="704.0" y="355.0" type="line"/>
      <point x="19.0" y="355.0" type="line"/>
    </contour>
    <contour>
      <point x="297.0" y="-27.0" type="line"/>
      <point x="422.0" y="-27.0" type="line"/>
      <point x="422.0" y="606.0" type="line"/>
      <point x="297.0" y="606.0" type="line"/>
    </contour>
  </outline>
</glyph>
<glyph name="comma" format="2">
  <advance width="362"/>
  <unicode hex="002C"/>
  <outline>
    <contour>
      <point x="92.0" y="-239.0" type="line"/>
      <point x="209.333" y="-201.666"/>
      <point x="322.0" y="-90.0"/>
      <point x="322.0" y="6.0" type="curve" smooth="yes"/>
      <point x="322.0" y="98.0"/>
      <point x="244.333" y="170.0"/>
      <point x="163.0" y="170.0" type="curve" smooth="yes"/>
      <point x="93.667" y="170.0"/>
      <point x="38.0" y="138.333"/>
      <point x="38.0" y="73.0" type="curve" smooth="yes"/>
      <point x="38.0" y="23.667"/>
      <point x="76.334" y="-2.0"/>
      <point x="111.0" y="-14.0" type="curve" smooth="yes"/>
      <point x="137.667" y="-19.333"/>
      <point x="156.0" y="-36.333"/>
      <point x="156.0" y="-59.0" type="curve" smooth="yes"/>
      <point x="156.0" y="-89.667"/>
      <point x="106.0" y="-132.667"/>
      <point x="30.0" y="-166.0" type="curve"/>
    </contour>
  </outline>
</glyph>
<glyph name="period" format="2">
  <advance width="348"/>
  <unicode hex="002E"/>
  <outline>
    <contour>
      <point x="174" y="-11" type="curve" smooth="yes"/>
      <point x="262.001" y="-11"/>
      <point x="308" y="37"/>
      <point x="308" y="89" type="curve" smooth="yes"/>
      <point x="308" y="150.333"/>
      <point x="263.334" y="189"/>
      <point x="174" y="189" type="curve" smooth="yes"/>
      <point x="86" y="189"/>
      <point x="40" y="141"/>
      <point x="40" y="89" type="curve" smooth="yes"/>
      <point x="40" y="27.667"/>
      <point x="84.666" y="-11"/>
    </contour>
  </outline>
</glyph>
<glyph name="zero" format="2">
  <advance width="835"/>
  <unicode hex="0030"/>
  <outline>
    <contour>
      <point x="422" y="-10" type="curve" smooth="yes"/>
      <point x="672.667" y="-10"/>
      <point x="800" y="132.666"/>
      <point x="800" y="350" type="curve" smooth="yes"/>
      <point x="800" y="567.334"/>
      <point x="672.667" y="710"/>
      <point x="422" y="710" type="curve" smooth="yes"/>
      <point x="166" y="710"/>
      <point x="35" y="567.334"/>
      <point x="35" y="350" type="curve" smooth="yes"/>
      <point x="35" y="132.666"/>
      <point x="166" y="-10"/>
    </contour>
    <contour>
      <point x="422" y="168" type="curve" smooth="yes"/>
      <point x="307.333" y="168"/>
      <point x="239" y="232.667"/>
      <point x="239" y="350" type="curve" smooth="yes"/>
      <point x="239" y="474"/>
      <point x="307.333" y="542"/>
      <point x="422" y="542" type="curve" smooth="yes"/>
      <point x="531.334" y="542"/>
      <point x="595" y="474"/>
      <point x="595" y="350" type="curve" smooth="yes"/>
      <point x="595" y="232.667"/>
      <point x="531.334" y="168"/>
    </contour>
  </outline>
</glyph>
<glyph name="one" format="2">
  <advance width="657"/>
  <unicode hex="0031"/>
  <outline>
    <contour>
      <point x="247" y="49" type="line"/>
      <point x="456" y="49" type="line"/>
      <point x="456" y="710" type="line"/>
      <point x="258" y="710" type="line"/>
      <point x="56" y="615" type="line"/>
      <point x="95" y="427" type="line"/>
      <point x="287" y="516" type="line"/>
      <point x="247" y="617" type="line"/>
    </contour>
    <contour>
      <point x="66" y="0" type="line"/>
      <point x="610" y="0" type="line"/>
      <point x="610" y="184" type="line"/>
      <point x="66" y="184" type="line"/>
    </contour>
  </outline>
</glyph>
<glyph name="two" format="2">
  <advance width="638"/>
  <unicode hex="0032"/>
  <outline>
    <contour>
      <point x="57.0" y="0.0" type="line"/>
      <point x="646.0" y="0.0" type="line"/>
      <point x="646.0" y="184.0" type="line"/>
      <point x="202.0" y="184.0" type="line"/>
      <point x="192.0" y="60.0" type="line"/>
      <point x="395.0" y="218.0" type="line" smooth="yes"/>
      <point x="498" y="298"/>
      <point x="608.0" y="401"/>
      <point x="608.0" y="514.0" type="curve" smooth="yes"/>
      <point x="608.0" y="634"/>
      <point x="500" y="719"/>
      <point x="348.0" y="720.0" type="curve" smooth="yes"/>
      <point x="203" y="721"/>
      <point x="82" y="629.0"/>
      <point x="8.0" y="529.0" type="curve"/>
      <point x="167" y="441.0" type="line"/>
      <point x="223" y="518.0"/>
      <point x="269" y="540.0"/>
      <point x="324" y="540.0" type="curve" smooth="yes"/>
      <point x="364" y="540.0"/>
      <point x="388.0" y="517"/>
      <point x="388.0" y="488" type="curve" smooth="yes"/>
      <point x="388.0" y="429"/>
      <point x="289" y="339"/>
      <point x="202" y="269.0" type="curve" smooth="yes"/>
      <point x="16.0" y="120.0" type="line"/>
    </contour>
  </outline>
</glyph>
<glyph name="three" format="2">
  <advance width="737"/>
  <unicode hex="0033"/>
  <outline>
    <contour>
      <point x="364.0" y="-10.0" type="curve" smooth="yes"/>
      <point x="550" y="-10.0"/>
      <point x="697.0" y="88"/>
      <point x="697.0" y="237.0" type="curve" smooth="yes"/>
      <point x="697.0" y="358"/>
      <point x="569" y="451.0"/>
      <point x="439.0" y="451.0" type="curve" smooth="yes"/>
      <point x="394.0" y="451.0"/>
      <point x="356" y="447.0"/>
      <point x="339.0" y="442.0" type="curve"/>
      <point x="389.0" y="349.0" type="line"/>
      <point x="675.0" y="590.0" type="line"/>
      <point x="634.0" y="710.0" type="line"/>
      <point x="82.0" y="710.0" type="line"/>
      <point x="82.0" y="535.0" type="line"/>
      <point x="469.0" y="525.0" type="line"/>
      <point x="434.0" y="556.0" type="line"/>
      <point x="248.0" y="400.0" type="line"/>
      <point x="299.0" y="290.0" type="line"/>
      <point x="307" y="295"/>
      <point x="335" y="302.0"/>
      <point x="370.0" y="302.0" type="curve" smooth="yes"/>
      <point x="423" y="302.0"/>
      <point x="501" y="290"/>
      <point x="501.0" y="236.0" type="curve" smooth="yes"/>
      <point x="501.0" y="185.0"/>
      <point x="441.0" y="165.0"/>
      <point x="358.0" y="165.0" type="curve" smooth="yes"/>
      <point x="266" y="165"/>
      <point x="202" y="225"/>
      <point x="176.0" y="267.0" type="curve"/>
      <point x="25.0" y="156.0" type="line"/>
      <point x="95" y="56"/>
      <point x="207" y="-10.0"/>
    </contour>
  </outline>
</glyph>
<glyph name="four" format="2">
  <advance width="793"/>
  <unicode hex="0034"/>
  <outline>
    <contour>
      <point x="407.0" y="0.0" type="line"/>
      <point x="616.0" y="0.0" type="line"/>
      <point x="616.0" y="710.0" type="line"/>
      <point x="418.0" y="710.0" type="line"/>
      <point x="10.0" y="272.0" type="line"/>
      <point x="91.0" y="119.0" type="line"/>
      <point x="763.0" y="119.0" type="line"/>
      <point x="763.0" y="280.0" type="line"/>
      <point x="145.0" y="280.0" type="line"/>
      <point x="170.0" y="195.0" type="line"/>
      <point x="578.0" y="661.0" type="line"/>
      <point x="407.0" y="655.0" type="line"/>
    </contour>
  </outline>
</glyph>
<glyph name="five" format="2">
  <advance width="697"/>
  <unicode hex="0035"/>
  <outline>
    <contour>
      <point x="341.0" y="-7.0" type="curve" smooth="yes"/>
      <point x="515" y="-7.0"/>
      <point x="652.0" y="99.0"/>
      <point x="652.0" y="238.0" type="curve" smooth="yes"/>
      <point x="652.0" y="387"/>
      <point x="524" y="483.0"/>
      <point x="372.0" y="483.0" type="curve" smooth="yes"/>
      <point x="284.0" y="483.0"/>
      <point x="198" y="451"/>
      <point x="144.0" y="411.0" type="curve"/>
      <point x="233.0" y="397.0" type="line"/>
      <point x="266.0" y="619.0" type="line"/>
      <point x="201.0" y="535.0" type="line"/>
      <point x="571.0" y="535.0" type="line"/>
      <point x="571.0" y="710.0" type="line"/>
      <point x="111.0" y="710.0" type="line"/>
      <point x="66.0" y="392.0" type="line"/>
      <point x="150.0" y="287.0" type="line"/>
      <point x="156" y="295"/>
      <point x="225" y="334.0"/>
      <point x="327.0" y="334.0" type="curve" smooth="yes"/>
      <point x="408.0" y="334.0"/>
      <point x="458.0" y="302.0"/>
      <point x="458.0" y="250.0" type="curve" smooth="yes"/>
      <point x="458.0" y="197.0"/>
      <point x="410.0" y="165.0"/>
      <point x="331.0" y="165.0" type="curve" smooth="yes"/>
      <point x="262" y="165.0"/>
      <point x="185" y="200.0"/>
      <point x="137.0" y="240.0" type="curve"/>
      <point x="26.0" y="105.0" type="line"/>
      <point x="100" y="41"/>
      <point x="214.0" y="-7.0"/>
    </contour>
  </outline>
</glyph>
<glyph name="six" format="2">
  <advance width="686"/>
  <unicode hex="0036"/>
  <outline>
    <contour>
      <point x="342.0" y="0.0" type="curve" smooth="yes"/>
      <point x="535.0" y="0.0"/>
      <point x="666.0" y="120"/>
      <point x="666.0" y="260.0" type="curve" smooth="yes"/>
      <point x="666.0" y="392.0"/>
      <point x="548.0" y="489.0"/>
      <point x="405.0" y="489.0" type="curve" smooth="yes"/>
      <point x="264" y="489.0"/>
      <point x="117" y="376"/>
      <point x="101.0" y="273.0" type="curve"/>
      <point x="179.0" y="260.0" type="line"/>
      <point x="217.0" y="362"/>
      <point x="267" y="409"/>
      <point x="320.0" y="464.0" type="curve" smooth="yes"/>
      <point x="545.0" y="700.0" type="line"/>
      <point x="541.0" y="710.0" type="line"/>
      <point x="322.0" y="710.0" type="line"/>
      <point x="180.0" y="551.0" type="line" smooth="yes"/>
      <point x="114" y="477"/>
      <point x="30.0" y="417"/>
      <point x="30.0" y="258.0" type="curve" smooth="yes"/>
      <point x="30.0" y="112"/>
      <point x="176" y="0.0"/>
    </contour>
    <contour>
      <point x="346.0" y="170.0" type="curve" smooth="yes"/>
      <point x="266.0" y="170.0"/>
      <point x="217.0" y="202.0"/>
      <point x="217.0" y="255.0" type="curve" smooth="yes"/>
      <point x="217.0" y="307.0"/>
      <point x="266.0" y="339.0"/>
      <point x="346.0" y="339.0" type="curve" smooth="yes"/>
      <point x="432.0" y="339.0"/>
      <point x="485.0" y="307.0"/>
      <point x="485.0" y="255.0" type="curve" smooth="yes"/>
      <point x="485.0" y="202.0"/>
      <point x="432.0" y="170.0"/>
    </contour>
  </outline>
</glyph>
<glyph name="seven" format="2">
  <advance width="631"/>
  <unicode hex="0037"/>
  <outline>
    <contour>
      <point x="134.0" y="0.0" type="line"/>
      <point x="344.0" y="0.0" type="line"/>
      <point x="596.0" y="620.0" type="line"/>
      <point x="579.0" y="710.0" type="line"/>
      <point x="35.0" y="710.0" type="line"/>
      <point x="35.0" y="526.0" type="line"/>
      <point x="480.0" y="526.0" type="line"/>
      <point x="406.0" y="642.0" type="line"/>
    </contour>
  </outline>
</glyph>
<glyph name="eight" format="2">
  <advance width="713"/>
  <unicode hex="0038"/>
  <outline>
    <contour>
      <point x="356" y="-3" type="curve" smooth="yes"/>
      <point x="548" y="-3"/>
      <point x="683" y="92"/>
      <point x="683" y="222" type="curve" smooth="yes"/>
      <point x="683" y="345"/>
      <point x="570" y="395"/>
      <point x="469" y="411" type="curve"/>
      <point x="482" y="340" type="line"/>
      <point x="538" y="367"/>
      <point x="640" y="421"/>
      <point x="640" y="524" type="curve" smooth="yes"/>
      <point x="640" y="639"/>
      <point x="515" y="720"/>
      <point x="356" y="720" type="curve" smooth="yes"/>
      <point x="197" y="720"/>
      <point x="71" y="639"/>
      <point x="71" y="524" type="curve" smooth="yes"/>
      <point x="71" y="429"/>
      <point x="169" y="368"/>
      <point x="229" y="340" type="curve"/>
      <point x="245" y="411" type="line"/>
      <point x="155" y="397"/>
      <point x="30" y="359"/>
      <point x="30" y="222" type="curve" smooth="yes"/>
      <point x="30" y="92"/>
      <point x="165" y="-3"/>
    </contour>
    <contour>
      <point x="356" y="156" type="curve" smooth="yes"/>
      <point x="276" y="156"/>
      <point x="226" y="185"/>
      <point x="226" y="232" type="curve" smooth="yes"/>
      <point x="226" y="271"/>
      <point x="276" y="305"/>
      <point x="356" y="305" type="curve" smooth="yes"/>
      <point x="435" y="305"/>
      <point x="484" y="271"/>
      <point x="484" y="232" type="curve" smooth="yes"/>
      <point x="484" y="185"/>
      <point x="435" y="156"/>
    </contour>
    <contour>
      <point x="356" y="452" type="curve" smooth="yes"/>
      <point x="291" y="452"/>
      <point x="251" y="479"/>
      <point x="251" y="523" type="curve" smooth="yes"/>
      <point x="251" y="559"/>
      <point x="291" y="581"/>
      <point x="356" y="581" type="curve" smooth="yes"/>
      <point x="420" y="581"/>
      <point x="459" y="559"/>
      <point x="459" y="523" type="curve" smooth="yes"/>
      <point x="459" y="479"/>
      <point x="420" y="452"/>
    </contour>
  </outline>
</glyph>
<glyph name="nine" format="2">
  <advance width="666"/>
  <unicode hex="0039"/>
  <outline>
    <contour>
      <point x="204.0" y="0.0" type="line"/>
      <point x="404.0" y="0.0" type="line"/>
      <point x="517.0" y="174.0" type="line" smooth="yes"/>
      <point x="552.999" y="208.66600000000005"/>
      <point x="646.0" y="337.33399999999995"/>
      <point x="646.0" y="472.0" type="curve" smooth="yes"/>
      <point x="646.0" y="609.3340000000001"/>
      <point x="506.8299999999999" y="720.0"/>
      <point x="344.0" y="720.0" type="curve" smooth="yes"/>
      <point x="168.961" y="720.0"/>
      <point x="30.0" y="606.6659999999999"/>
      <point x="30.0" y="456.0" type="curve" smooth="yes"/>
      <point x="30.0" y="333.33399999999995"/>
      <point x="130.667" y="223.0"/>
      <point x="264.0" y="223.0" type="curve" smooth="yes"/>
      <point x="379.862" y="223.0"/>
      <point x="505.66" y="316.25399999999996"/>
      <point x="535.0" y="419.0" type="curve"/>
      <point x="496.0" y="452.0" type="line"/>
      <point x="200.0" y="10.0" type="line"/>
    </contour>
    <contour>
      <point x="332.0" y="384.0" type="curve" smooth="yes"/>
      <point x="254.772" y="384.0"/>
      <point x="205.0" y="428.333"/>
      <point x="205.0" y="467.0" type="curve" smooth="yes"/>
      <point x="205.0" y="521.667"/>
      <point x="265.58799999999997" y="551.0"/>
      <point x="332.0" y="551.0" type="curve" smooth="yes"/>
      <point x="413.62" y="551.0"/>
      <point x="460.0" y="509.66599999999994"/>
      <point x="460.0" y="467.0" type="curve" smooth="yes"/>
      <point x="460.0" y="426.9990000000001"/>
      <point x="414.95300000000003" y="384.0"/>
    </contour>
  </outline>
</glyph>
<glyph name="less" format="2">
  <advance width="656"/>
  <unicode hex="003C"/>
  <outline>
    <contour>
      <point x="573.0" y="-26.0" type="line"/>
      <point x="651.0" y="149.0" type="line"/>
      <point x="196.0" y="307.0" type="line"/>
      <point x="196.0" y="216.0" type="line"/>
      <point x="651.0" y="374.0" type="line"/>
      <point x="573.0" y="549.0" type="line"/>
      <point x="35.0" y="316.0" type="line"/>
      <point x="35.0" y="207.0" type="line"/>
    </contour>
  </outline>
</glyph>
<glyph name="greater" format="2">
  <advance width="657"/>
  <unicode hex="003E"/>
  <outline>
    <contour>
      <point x="99.0" y="-26.0" type="line"/>
      <point x="637.0" y="207.0" type="line"/>
      <point x="637.0" y="316.0" type="line"/>
      <point x="99.0" y="549.0" type="line"/>
      <point x="21.0" y="374.0" type="line"/>
      <point x="476.0" y="216.0" type="line"/>
      <point x="476.0" y="307.0" type="line"/>
      <point x="21.0" y="149.0" type="line"/>
    </contour>
  </outline>
</glyph>
<glyph name="question" format="2">
  <advance width="694"/>
  <unicode hex="003F"/>
  <outline>
    <contour>
      <point x="267.0" y="261.0" type="line"/>
      <point x="370.0" y="261.0" type="line"/>
      <point x="374.195" y="262.006" type="line"/>
      <point x="520.3820000000001" y="292.03"/>
      <point x="654.0" y="394.65799999999996"/>
      <point x="654.0" y="511.0" type="curve" smooth="yes"/>
      <point x="654.0" y="631.0"/>
      <point x="533.6669999999999" y="720.0"/>
      <point x="363.0" y="720.0" type="curve" smooth="yes"/>
      <point x="217.667" y="720.0"/>
      <point x="102.334" y="662.0"/>
      <point x="25.0" y="570.0" type="curve"/>
      <point x="160.0" y="425.0" type="line"/>
      <point x="216.0" y="495.66599999999994"/>
      <point x="279.0" y="520.0"/>
      <point x="369.0" y="520.0" type="curve" smooth="yes"/>
      <point x="400.667" y="520.0"/>
      <point x="441.0" y="522.0"/>
      <point x="441.0" y="492.0" type="curve" smooth="yes"/>
      <point x="441.0" y="423.667"/>
      <point x="278.333" y="400.333"/>
      <point x="230.0" y="400.0" type="curve"/>
    </contour>
    <contour>
      <point x="212.0" y="89.0" type="curve" smooth="yes"/>
      <point x="212.0" y="27.667"/>
      <point x="256.666" y="-11.0"/>
      <point x="346.0" y="-11.0" type="curve" smooth="yes"/>
      <point x="434.0009999999999" y="-11.0"/>
      <point x="480.0" y="37.0"/>
      <point x="480.0" y="89.0" type="curve" smooth="yes"/>
      <point x="480.0" y="150.333"/>
      <point x="435.33399999999995" y="189.0"/>
      <point x="346.0" y="189.0" type="curve" smooth="yes"/>
      <point x="257.999" y="189.0"/>
      <point x="212.0" y="141.0"/>
    </contour>
  </outline>
</glyph>
<glyph name="at" format="2">
  <advance width="1185"/>
  <unicode hex="0040"/>
  <outline>
    <contour>
      <point x="454.0" y="-182.0" type="curve" smooth="yes"/>
      <point x="583.333" y="-182.0"/>
      <point x="663.667" y="-146.333"/>
      <point x="749.0" y="-109.0" type="curve"/>
      <point x="712.0" y="-27.0" type="line"/>
      <point x="617.0" y="-71.0"/>
      <point x="570.0" y="-87.0"/>
      <point x="457.0" y="-87.0" type="curve" smooth="yes"/>
      <point x="282.333" y="-87.0"/>
      <point x="144.0" y="32.333"/>
      <point x="144.0" y="218.0" type="curve" smooth="yes"/>
      <point x="144.0" y="487.335"/>
      <point x="356.304" y="644.0"/>
      <point x="658.0" y="644.0" type="curve" smooth="yes"/>
      <point x="899.1750000000001" y="644.0"/>
      <point x="1042.0" y="528.875"/>
      <point x="1042.0" y="351.0" type="curve" smooth="yes"/>
      <point x="1042.0" y="219.66600000000003"/>
      <point x="956.3439999999999" y="166.0"/>
      <point x="890.0" y="166.0" type="curve" smooth="yes"/>
      <point x="846.0" y="166.0"/>
      <point x="834.0" y="194.0"/>
      <point x="847.0" y="258.0" type="curve" smooth="yes"/>
      <point x="902.0" y="498.0" type="line"/>
      <point x="726.0" y="498.0" type="line"/>
      <point x="695.0" y="372.0" type="line"/>
      <point x="741.0" y="388.0" type="line"/>
      <point x="728.666" y="462.021"/>
      <point x="661.667" y="523.0"/>
      <point x="555.0" y="523.0" type="curve" smooth="yes"/>
      <point x="383.0" y="523.0"/>
      <point x="255.0" y="366.0"/>
      <point x="255.0" y="227.0" type="curve" smooth="yes"/>
      <point x="255.0" y="113.667"/>
      <point x="342.92800000000005" y="46.0"/>
      <point x="462.0" y="46.0" type="curve" smooth="yes"/>
      <point x="558.0" y="46.0"/>
      <point x="661.667" y="109.667"/>
      <point x="723.0" y="198.0" type="curve"/>
      <point x="679.0" y="223.0" type="line"/>
      <point x="679.0" y="205.0"/>
      <point x="679.0" y="187.0"/>
      <point x="679.0" y="165.0" type="curve" smooth="yes"/>
      <point x="678.117" y="108.323"/>
      <point x="737.9019999999999" y="46.0"/>
      <point x="839.0" y="46.0" type="curve" smooth="yes"/>
      <point x="997.667" y="46.0"/>
      <point x="1145.0" y="142.666"/>
      <point x="1145.0" y="356.0" type="curve" smooth="yes"/>
      <point x="1145.0" y="560.0"/>
      <point x="978.0" y="730.0"/>
      <point x="666.0" y="730.0" type="curve" smooth="yes"/>
      <point x="325.0" y="730.0"/>
      <point x="40.0" y="531.0"/>
      <point x="40.0" y="219.0" type="curve" smooth="yes"/>
      <point x="40.0" y="-5.333"/>
      <point x="216.667" y="-182.0"/>
    </contour>
    <contour>
      <point x="532.0" y="208.0" type="curve" smooth="yes"/>
      <point x="496.0009999999999" y="208.0"/>
      <point x="460.0" y="231.836"/>
      <point x="460.0" y="267.0" type="curve" smooth="yes"/>
      <point x="460.0" y="328.333"/>
      <point x="508.141" y="385.0"/>
      <point x="601.0" y="385.0" type="curve" smooth="yes"/>
      <point x="660.6659999999999" y="385.0"/>
      <point x="691.333" y="361.0"/>
      <point x="686.0" y="323.0" type="curve" smooth="yes"/>
      <point x="684.667" y="308.667"/>
      <point x="680.346" y="292.743"/>
      <point x="676.0" y="287.0" type="curve" smooth="yes"/>
      <point x="645.0830000000001" y="222.185"/>
      <point x="591.08" y="208.0"/>
    </contour>
  </outline>
</glyph>
<glyph name="A" format="2">
  <advance width="848"/>
  <unicode hex="0041"/>
  <anchor x="424.0" y="0" name="bottom"/>
  <anchor x="788.0" y="0" name="ogonek"/>
  <anchor x="424.0" y="700.0" name="top"/>
  <outline>
    <contour>
      <point x="-20.0" y="0.0" type="line"/>
      <point x="194.0" y="0.0" type="line"/>
      <point x="380.0" y="366.0" type="line" smooth="yes"/>
      <point x="418.0" y="455.0"/>
      <point x="418.667" y="416.66700000000003"/>
      <point x="444.0" y="521.0" type="curve"/>
      <point x="401.0" y="521.0" type="line"/>
      <point x="431.73100000000005" y="395.21900000000005"/>
      <point x="415.0" y="481.0"/>
      <point x="463.0" y="366.0" type="curve" smooth="yes"/>
      <point x="650.0" y="0.0" type="line"/>
      <point x="868.0" y="0.0" type="line"/>
      <point x="518.0" y="700.0" type="line"/>
      <point x="332.0" y="700.0" type="line"/>
    </contour>
    <contour>
      <point x="149.0" y="94.0" type="line"/>
      <point x="665.0" y="94.0" type="line"/>
      <point x="637.0" y="241.0" type="line"/>
      <point x="215.0" y="241.0" type="line"/>
    </contour>
  </outline>
</glyph>
<glyph name="B" format="2">
  <advance width="865"/>
  <unicode hex="0042"/>
  <anchor x="433.0" y="0" name="bottom"/>
  <anchor x="433.0" y="700.0" name="top"/>
  <outline>
    <contour>
      <point x="80.0" y="0.0" type="line"/>
      <point x="518.0" y="0.0" type="line" smooth="yes"/>
      <point x="648.667" y="0.0"/>
      <point x="825.0" y="39.998999999999995"/>
      <point x="825.0" y="216.0" type="curve" smooth="yes"/>
      <point x="825.0" y="317.0"/>
      <point x="741.0" y="368.0"/>
      <point x="654.0" y="389.0" type="curve"/>
      <point x="650.0" y="371.0" type="line"/>
      <point x="743.0" y="392.0"/>
      <point x="788.0" y="450.0"/>
      <point x="788.0" y="531.0" type="curve" smooth="yes"/>
      <point x="788.0" y="632.333"/>
      <point x="684.0" y="700.0"/>
      <point x="492.0" y="700.0" type="curve" smooth="yes"/>
      <point x="80.0" y="700.0" type="line"/>
    </contour>
    <contour>
      <point x="280.0" y="170.0" type="line"/>
      <point x="280.0" y="287.0" type="line"/>
      <point x="517.0" y="287.0" type="line" smooth="yes"/>
      <point x="553.0" y="287.0"/>
      <point x="615.0" y="278.333"/>
      <point x="615.0" y="229.0" type="curve" smooth="yes"/>
      <point x="615.0" y="186.333"/>
      <point x="572.667" y="170.0"/>
      <point x="522.0" y="170.0" type="curve" smooth="yes"/>
    </contour>
    <contour>
      <point x="280.0" y="432.0" type="line"/>
      <point x="280.0" y="530.0" type="line"/>
      <point x="479.0" y="530.0" type="line" smooth="yes"/>
      <point x="535.0" y="530.0"/>
      <point x="577.0" y="517.6669999999999"/>
      <point x="577.0" y="483.0" type="curve" smooth="yes"/>
      <point x="577.0" y="447.0009999999999"/>
      <point x="539.6669999999999" y="432.0"/>
      <point x="481.0" y="432.0" type="curve" smooth="yes"/>
    </contour>
  </outline>
</glyph>
<glyph name="C" format="2">
  <advance width="837"/>
  <unicode hex="0043"/>
  <anchor x="493.0" y="0" name="bottom"/>
  <anchor x="487.0" y="700.0" name="top"/>
  <outline>
    <contour>
      <point x="494.0" y="-10.0" type="curve" smooth="yes"/>
      <point x="639.3330000000001" y="-10.0"/>
      <point x="770.3340000000001" y="57.0"/>
      <point x="833.0" y="105.0" type="curve"/>
      <point x="732.0" y="269.0" type="line"/>
      <point x="685.333" y="235.667"/>
      <point x="618.0" y="180.0"/>
      <point x="506.0" y="180.0" type="curve" smooth="yes"/>
      <point x="383.333" y="180.0"/>
      <point x="262.0" y="237.333"/>
      <point x="262.0" y="352.0" type="curve" smooth="yes"/>
      <point x="262.0" y="472.0"/>
      <point x="376.33399999999995" y="527.0"/>
      <point x="479.0" y="527.0" type="curve" smooth="yes"/>
      <point x="592.3330000000001" y="527.0"/>
      <point x="662.333" y="485.667"/>
      <point x="705.0" y="451.0" type="curve"/>
      <point x="826.0" y="618.0" type="line"/>
      <point x="744.667" y="676.6659999999999"/>
      <point x="621.6669999999999" y="720.0"/>
      <point x="491.0" y="720.0" type="curve" smooth="yes"/>
      <point x="236.334" y="720.0"/>
      <point x="40.0" y="573.6659999999999"/>
      <point x="40.0" y="355.0" type="curve" smooth="yes"/>
      <point x="40.0" y="136.334"/>
      <point x="238.001" y="-10.0"/>
    </contour>
  </outline>
</glyph>
<glyph name="D" format="2">
  <advance width="935"/>
  <unicode hex="0044"/>
  <anchor x="468.0" y="0" name="bottom"/>
  <anchor x="240.0" y="350.0" name="center"/>
  <anchor x="468.0" y="700.0" name="top"/>
  <outline>
    <contour>
      <point x="80.0" y="0.0" type="line"/>
      <point x="468.0" y="0.0" type="line" smooth="yes"/>
      <point x="734.667" y="0.0"/>
      <point x="895.0" y="163.333"/>
      <point x="895.0" y="350.0" type="curve" smooth="yes"/>
      <point x="895.0" y="535.333"/>
      <point x="736.0" y="700.0"/>
      <point x="468.0" y="700.0" type="curve" smooth="yes"/>
      <point x="80.0" y="700.0" type="line"/>
    </contour>
    <contour>
      <point x="296.0" y="133.0" type="line"/>
      <point x="296.0" y="565.0" type="line"/>
      <point x="256.0" y="516.0" type="line"/>
      <point x="463.0" y="516.0" type="line" smooth="yes"/>
      <point x="608.3340000000001" y="516.0"/>
      <point x="672.0" y="426.0"/>
      <point x="672.0" y="350.0" type="curve" smooth="yes"/>
      <point x="672.0" y="272.666"/>
      <point x="607.001" y="184.0"/>
      <point x="463.0" y="184.0" type="curve" smooth="yes"/>
      <point x="259.0" y="184.0" type="line"/>
    </contour>
  </outline>
</glyph>
<glyph name="E" format="2">
  <advance width="808"/>
  <unicode hex="0045"/>
  <anchor x="404.0" y="0" name="bottom"/>
  <anchor x="701.0" y="0" name="ogonek"/>
  <anchor x="434.0" y="700.0" name="top"/>
  <anchor x="20.0" y="700.0" name="topleft"/>
  <outline>
    <contour>
      <point x="80.0" y="0.0" type="line"/>
      <point x="761.0" y="0.0" type="line"/>
      <point x="761.0" y="175.0" type="line"/>
      <point x="287.0" y="175.0" type="line"/>
      <point x="287.0" y="525.0" type="line"/>
      <point x="743.0" y="525.0" type="line"/>
      <point x="743.0" y="700.0" type="line"/>
      <point x="80.0" y="700.0" type="line"/>
    </contour>
    <contour>
      <point x="193.0" y="272.0" type="line"/>
      <point x="706.0" y="272.0" type="line"/>
      <point x="706.0" y="436.0" type="line"/>
      <point x="193.0" y="436.0" type="line"/>
    </contour>
  </outline>
</glyph>
<glyph name="F" format="2">
  <advance width="750"/>
  <unicode hex="0046"/>
  <anchor x="375.0" y="0" name="bottom"/>
  <anchor x="375.0" y="700.0" name="top"/>
  <outline>
    <contour>
      <point x="80.0" y="0.0" type="line"/>
      <point x="296.0" y="0.0" type="line"/>
      <point x="296.0" y="700.0" type="line"/>
      <point x="80.0" y="700.0" type="line"/>
    </contour>
    <contour>
      <point x="171.0" y="236.0" type="line"/>
      <point x="666.0" y="236.0" type="line"/>
      <point x="666.0" y="406.0" type="line"/>
      <point x="171.0" y="406.0" type="line"/>
    </contour>
    <contour>
      <point x="185.0" y="516.0" type="line"/>
      <point x="703.0" y="516.0" type="line"/>
      <point x="703.0" y="700.0" type="line"/>
      <point x="185.0" y="700.0" type="line"/>
    </contour>
  </outline>
</glyph>
<glyph name="G" format="2">
  <advance width="952"/>
  <unicode hex="0047"/>
  <anchor x="477.0" y="0" name="bottom"/>
  <anchor x="496.0" y="700.0" name="top"/>
  <outline>
    <contour>
      <point x="467.0" y="-10.0" type="curve" smooth="yes"/>
      <point x="736.131" y="-10.0"/>
      <point x="912.0" y="96.072"/>
      <point x="912.0" y="303.0" type="curve" smooth="yes"/>
      <point x="912.0" y="310.333"/>
      <point x="910.167" y="377.0"/>
      <point x="908.0" y="408.0" type="curve"/>
      <point x="474.0" y="408.0" type="line"/>
      <point x="474.0" y="258.0" type="line"/>
      <point x="737.0" y="258.0" type="line"/>
      <point x="708.0" y="314.0" type="line"/>
      <point x="709.0" y="292.0" type="line" smooth="yes"/>
      <point x="716.0" y="220.0"/>
      <point x="620.3340000000001" y="174.0"/>
      <point x="495.0" y="174.0" type="curve" smooth="yes"/>
      <point x="375.0" y="174.0"/>
      <point x="267.0" y="212.334"/>
      <point x="267.0" y="355.0" type="curve" smooth="yes"/>
      <point x="267.0" y="460.333"/>
      <point x="366.333" y="536.0"/>
      <point x="497.0" y="536.0" type="curve" smooth="yes"/>
      <point x="601.0" y="536.0"/>
      <point x="672.0" y="499.6670000000001"/>
      <point x="724.0" y="465.0" type="curve"/>
      <point x="852.0" y="607.0" type="line"/>
      <point x="785.3340000000001" y="661.6659999999999"/>
      <point x="665.333" y="720.0"/>
      <point x="500.0" y="720.0" type="curve" smooth="yes"/>
      <point x="228.0" y="720.0"/>
      <point x="40.0" y="567.0"/>
      <point x="40.0" y="355.0" type="curve" smooth="yes"/>
      <point x="40.0" y="108.334"/>
      <point x="209.667" y="-10.0"/>
    </contour>
  </outline>
</glyph>
<glyph name="H" format="2">
  <advance width="933"/>
  <unicode hex="0048"/>
  <anchor x="467.0" y="0" name="bottom"/>
  <anchor x="467.0" y="350.0" name="center"/>
  <anchor x="467.0" y="700.0" name="top"/>
  <anchor x="20.0" y="700.0" name="topleft"/>
  <outline>
    <contour>
      <point x="637.0" y="0.0" type="line"/>
      <point x="853.0" y="0.0" type="line"/>
      <point x="853.0" y="700.0" type="line"/>
      <point x="637.0" y="700.0" type="line"/>
    </contour>
    <contour>
      <point x="80.0" y="0.0" type="line"/>
      <point x="296.0" y="0.0" type="line"/>
      <point x="296.0" y="700.0" type="line"/>
      <point x="80.0" y="700.0" type="line"/>
    </contour>
    <contour>
      <point x="161.0" y="251.0" type="line"/>
      <point x="759.0" y="251.0" type="line"/>
      <point x="759.0" y="439.0" type="line"/>
      <point x="163.0" y="439.0" type="line"/>
    </contour>
  </outline>
</glyph>
<glyph name="I" format="2">
  <advance width="752"/>
  <unicode hex="0049"/>
  <anchor x="376" y="0" name="bottom"/>
  <anchor x="496" y="0" name="ogonek"/>
  <anchor x="376" y="700" name="top"/>
  <anchor x="20" y="700" name="topleft"/>
  <outline>
    <contour>
      <point x="75" y="0" type="line"/>
      <point x="677" y="0" type="line"/>
      <point x="677" y="182" type="line"/>
      <point x="484" y="182" type="line"/>
      <point x="484" y="518" type="line"/>
      <point x="677" y="518" type="line"/>
      <point x="677" y="700" type="line"/>
      <point x="75" y="700" type="line"/>
      <point x="75" y="518" type="line"/>
      <point x="268" y="518" type="line"/>
      <point x="268" y="182" type="line"/>
      <point x="75" y="182" type="line"/>
    </contour>
  </outline>
</glyph>
<glyph name="J" format="2">
  <advance width="846"/>
  <unicode hex="004A"/>
  <anchor x="423.0" y="0" name="bottom"/>
  <anchor x="525.0" y="700.0" name="top"/>
  <outline>
    <contour>
      <point x="335.0" y="-10.0" type="curve" smooth="yes"/>
      <point x="517.667" y="-10.0"/>
      <point x="634.0" y="113.0"/>
      <point x="634.0" y="273.0" type="curve" smooth="yes"/>
      <point x="634.0" y="509.0" type="line"/>
      <point x="766.0" y="509.0" type="line"/>
      <point x="766.0" y="700.0" type="line"/>
      <point x="251.0" y="700.0" type="line"/>
      <point x="251.0" y="509.0" type="line"/>
      <point x="426.0" y="509.0" type="line"/>
      <point x="426.0" y="300.0" type="line" smooth="yes"/>
      <point x="426.0" y="230.667"/>
      <point x="380.333" y="174.0"/>
      <point x="303.0" y="174.0" type="curve" smooth="yes"/>
      <point x="215.0" y="174.0"/>
      <point x="168.667" y="250.333"/>
      <point x="154.0" y="273.0" type="curve"/>
      <point x="31.0" y="145.0" type="line"/>
      <point x="57.666" y="103.667"/>
      <point x="141.667" y="-10.0"/>
    </contour>
  </outline>
</glyph>
<glyph name="K" format="2">
  <advance width="898"/>
  <unicode hex="004B"/>
  <anchor x="449.0" y="0" name="bottom"/>
  <anchor x="449.0" y="700.0" name="top"/>
  <outline>
    <contour>
      <point x="217.0" y="161.0" type="line"/>
      <point x="895.0" y="700.0" type="line"/>
      <point x="632.0" y="700.0" type="line"/>
      <point x="150.0" y="323.0" type="line"/>
    </contour>
    <contour>
      <point x="80.0" y="0.0" type="line"/>
      <point x="296.0" y="0.0" type="line"/>
      <point x="296.0" y="700.0" type="line"/>
      <point x="80.0" y="700.0" type="line"/>
    </contour>
    <contour>
      <point x="650.0" y="0.0" type="line"/>
      <point x="904.0" y="0.0" type="line"/>
      <point x="484.0" y="490.0" type="line"/>
      <point x="357.0" y="352.0" type="line"/>
    </contour>
  </outline>
</glyph>
<glyph name="L" format="2">
  <advance width="756"/>
  <unicode hex="004C"/>
  <anchor x="378.0" y="0" name="bottom"/>
  <anchor x="192.0" y="350.0" name="center"/>
  <anchor x="190.0" y="700.0" name="top"/>
  <anchor x="446.0" y="700.0" name="topright"/>
  <outline>
    <contour>
      <point x="80.0" y="0.0" type="line"/>
      <point x="736.0" y="0.0" type="line"/>
      <point x="736.0" y="184.0" type="line"/>
      <point x="296.0" y="184.0" type="line"/>
      <point x="296.0" y="700.0" type="line"/>
      <point x="80.0" y="700.0" type="line"/>
    </contour>
  </outline>
</glyph>
<glyph name="M" format="2">
  <advance width="1032"/>
  <unicode hex="004D"/>
  <anchor x="516.0" y="0" name="bottom"/>
  <anchor x="516.0" y="700.0" name="top"/>
  <outline>
    <contour>
      <point x="80.0" y="0.0" type="line"/>
      <point x="288.0" y="0.0" type="line"/>
      <point x="288.0" y="177.0" type="line" smooth="yes"/>
      <point x="288.0" y="287.667"/>
      <point x="284.0" y="380.667"/>
      <point x="268.0" y="482.0" type="curve"/>
      <point x="243.0" y="419.0" type="line"/>
      <point x="483.0" y="147.0" type="line"/>
      <point x="549.0" y="147.0" type="line"/>
      <point x="785.0" y="415.0" type="line"/>
      <point x="764.0" y="482.0" type="line"/>
      <point x="748.0" y="380.667"/>
      <point x="744.0" y="287.667"/>
      <point x="744.0" y="177.0" type="curve" smooth="yes"/>
      <point x="744.0" y="0.0" type="line"/>
      <point x="952.0" y="0.0" type="line"/>
      <point x="952.0" y="700.0" type="line"/>
      <point x="766.0" y="700.0" type="line"/>
      <point x="447.0" y="305.0" type="line"/>
      <point x="585.0" y="305.0" type="line"/>
      <point x="266.0" y="700.0" type="line"/>
      <point x="80.0" y="700.0" type="line"/>
    </contour>
  </outline>
</glyph>
<glyph name="N" format="2">
  <advance width="977"/>
  <unicode hex="004E"/>
  <anchor x="489.0" y="0" name="bottom"/>
  <anchor x="489.0" y="700.0" name="top"/>
  <outline>
    <contour>
      <point x="80.0" y="0.0" type="line"/>
      <point x="288.0" y="0.0" type="line"/>
      <point x="288.0" y="191.0" type="line" smooth="yes"/>
      <point x="288.0" y="374.498"/>
      <point x="271.405" y="484.46200000000005"/>
      <point x="268.0" y="466.0" type="curve"/>
      <point x="197.0" y="490.0" type="line"/>
      <point x="692.0" y="0.0" type="line"/>
      <point x="897.0" y="0.0" type="line"/>
      <point x="897.0" y="700.0" type="line"/>
      <point x="689.0" y="700.0" type="line"/>
      <point x="689.0" y="570.0" type="line" smooth="yes"/>
      <point x="687.667" y="474.0009999999999"/>
      <point x="690.333" y="419.66600000000005"/>
      <point x="709.0" y="269.0" type="curve"/>
      <point x="745.0" y="255.0" type="line"/>
      <point x="283.0" y="700.0" type="line"/>
      <point x="80.0" y="700.0" type="line"/>
    </contour>
  </outline>
</glyph>
<glyph name="O" format="2">
  <advance width="994"/>
  <unicode hex="004F"/>
  <anchor x="497.0" y="0" name="bottom"/>
  <anchor x="497.0" y="350.0" name="center"/>
  <anchor x="876.0" y="10.0" name="ogonek"/>
  <anchor x="497.0" y="700.0" name="top"/>
  <anchor x="20.0" y="700.0" name="topleft"/>
  <anchor x="974.0" y="700.0" name="topright"/>
  <outline>
    <contour>
      <point x="497.0" y="-10.0" type="curve" smooth="yes"/>
      <point x="764.667" y="-10.0"/>
      <point x="954.0" y="147.0"/>
      <point x="954.0" y="355.0" type="curve" smooth="yes"/>
      <point x="954.0" y="563.0"/>
      <point x="765.0" y="720.0"/>
      <point x="497.0" y="720.0" type="curve" smooth="yes"/>
      <point x="227.666" y="720.0"/>
      <point x="40.0" y="561.6659999999999"/>
      <point x="40.0" y="355.0" type="curve" smooth="yes"/>
      <point x="40.0" y="148.334"/>
      <point x="227.333" y="-10.0"/>
    </contour>
    <contour>
      <point x="497.0" y="190.0" type="curve" smooth="yes"/>
      <point x="357.333" y="190.0"/>
      <point x="260.0" y="262.0"/>
      <point x="260.0" y="355.0" type="curve" smooth="yes"/>
      <point x="260.0" y="448.0"/>
      <point x="357.333" y="520.0"/>
      <point x="497.0" y="520.0" type="curve" smooth="yes"/>
      <point x="636.0" y="520.0"/>
      <point x="734.0" y="448.333"/>
      <point x="734.0" y="355.0" type="curve" smooth="yes"/>
      <point x="734.0" y="261.66700000000003"/>
      <point x="636.0" y="190.0"/>
    </contour>
  </outline>
</glyph>
<glyph name="P" format="2">
  <advance width="828"/>
  <unicode hex="0050"/>
  <anchor x="415.0" y="0" name="bottom"/>
  <anchor x="415.0" y="700.0" name="top"/>
  <outline>
    <contour>
      <point x="80.0" y="0.0" type="line"/>
      <point x="296.0" y="0.0" type="line"/>
      <point x="296.0" y="198.0" type="line"/>
      <point x="499.0" y="198.0" type="line" smooth="yes"/>
      <point x="663.0" y="198.0"/>
      <point x="788.0" y="306.66600000000005"/>
      <point x="788.0" y="460.0" type="curve" smooth="yes"/>
      <point x="788.0" y="600.0"/>
      <point x="672.3340000000001" y="700.0"/>
      <point x="519.0" y="700.0" type="curve" smooth="yes"/>
      <point x="80.0" y="700.0" type="line"/>
    </contour>
    <contour>
      <point x="292.0" y="382.0" type="line"/>
      <point x="292.0" y="516.0" type="line"/>
      <point x="451.0" y="516.0" type="line" smooth="yes"/>
      <point x="512.334" y="516.0"/>
      <point x="561.0" y="497.333"/>
      <point x="561.0" y="456.0" type="curve" smooth="yes"/>
      <point x="561.0" y="409.333"/>
      <point x="512.334" y="382.0"/>
      <point x="451.0" y="382.0" type="curve" smooth="yes"/>
    </contour>
  </outline>
</glyph>
<glyph name="Q" format="2">
  <advance width="994"/>
  <unicode hex="0051"/>
  <anchor x="497.0" y="0" name="bottom"/>
  <anchor x="497.0" y="700.0" name="top"/>
  <anchor x="497.0" y="350.0" name="center"/>
  <anchor x="876.0" y="10.0" name="ogonek"/>
  <anchor x="20.0" y="700.0" name="topleft"/>
  <anchor x="974.0" y="700.0" name="topright"/>
  <outline>
    <contour>
      <point x="720.0" y="-110.0" type="line"/>
      <point x="868.0" y="-9.0" type="line"/>
      <point x="601.0" y="362.0" type="line"/>
      <point x="450.0" y="264.0" type="line"/>
    </contour>
    <component base="O"/>
  </outline>
</glyph>
<glyph name="R" format="2">
  <advance width="837"/>
  <unicode hex="0052"/>
  <anchor x="419.0" y="0" name="bottom"/>
  <anchor x="409.0" y="700.0" name="top"/>
  <outline>
    <contour>
      <point x="80.0" y="0.0" type="line"/>
      <point x="282.0" y="0.0" type="line"/>
      <point x="282.0" y="228.0" type="line"/>
      <point x="499.0" y="228.0" type="line" smooth="yes"/>
      <point x="657.667" y="228.0"/>
      <point x="776.0" y="327.667"/>
      <point x="776.0" y="485.0" type="curve" smooth="yes"/>
      <point x="776.0" y="607.6659999999999"/>
      <point x="668.3340000000001" y="700.0"/>
      <point x="519.0" y="700.0" type="curve" smooth="yes"/>
      <point x="80.0" y="700.0" type="line"/>
    </contour>
    <contour>
      <point x="573.0" y="0.0" type="line"/>
      <point x="818.0" y="0.0" type="line"/>
      <point x="560.0" y="341.0" type="line"/>
      <point x="335.0" y="316.0" type="line"/>
    </contour>
    <contour>
      <point x="282.0" y="378.0" type="line"/>
      <point x="282.0" y="530.0" type="line"/>
      <point x="469.0" y="530.0" type="line" smooth="yes"/>
      <point x="523.666" y="530.0"/>
      <point x="561.0" y="503.0"/>
      <point x="561.0" y="467.0" type="curve" smooth="yes"/>
      <point x="561.0" y="415.0"/>
      <point x="511.66600000000005" y="378.0"/>
      <point x="445.0" y="378.0" type="curve" smooth="yes"/>
    </contour>
  </outline>
</glyph>
<glyph name="S" format="2">
  <advance width="801"/>
  <unicode hex="0053"/>
  <anchor x="441" y="0" name="bottom"/>
  <anchor x="411" y="700" name="top"/>
  <outline>
    <contour>
      <point x="411" y="-10" type="curve" smooth="yes"/>
      <point x="613" y="-10"/>
      <point x="772" y="76"/>
      <point x="772" y="232" type="curve" smooth="yes"/>
      <point x="772" y="421"/>
      <point x="599" y="437"/>
      <point x="438" y="450" type="curve" smooth="yes"/>
      <point x="384" y="454"/>
      <point x="264" y="454"/>
      <point x="264" y="497" type="curve" smooth="yes"/>
      <point x="264" y="533"/>
      <point x="321" y="541"/>
      <point x="397" y="541" type="curve" smooth="yes"/>
      <point x="476" y="541"/>
      <point x="580" y="521"/>
      <point x="647" y="490" type="curve"/>
      <point x="736" y="637" type="line"/>
      <point x="673" y="673"/>
      <point x="563" y="720"/>
      <point x="406" y="720" type="curve" smooth="yes"/>
      <point x="203" y="720"/>
      <point x="35" y="637"/>
      <point x="35" y="482" type="curve" smooth="yes"/>
      <point x="35" y="351"/>
      <point x="163" y="278"/>
      <point x="354" y="264" type="curve" smooth="yes"/>
      <point x="487" y="254"/>
      <point x="545" y="250"/>
      <point x="545" y="213" type="curve" smooth="yes"/>
      <point x="545" y="167"/>
      <point x="472" y="167"/>
      <point x="432" y="167" type="curve" smooth="yes"/>
      <point x="337" y="167"/>
      <point x="205" y="195"/>
      <point x="78" y="265" type="curve"/>
      <point x="-7" y="94" type="line"/>
      <point x="92" y="44"/>
      <point x="226" y="-10"/>
    </contour>
  </outline>
</glyph>
<glyph name="T" format="2">
  <advance width="854"/>
  <unicode hex="0054"/>
  <anchor x="427.0" y="0" name="bottom"/>
  <anchor x="427.0" y="350.0" name="center"/>
  <anchor x="427.0" y="700.0" name="top"/>
  <outline>
    <contour>
      <point x="316.0" y="0.0" type="line"/>
      <point x="532.0" y="0.0" type="line"/>
      <point x="532.0" y="516.0" type="line"/>
      <point x="824.0" y="516.0" type="line"/>
      <point x="824.0" y="700.0" type="line"/>
      <point x="30.0" y="700.0" type="line"/>
      <point x="30.0" y="516.0" type="line"/>
      <point x="316.0" y="516.0" type="line"/>
    </contour>
  </outline>
</glyph>
<glyph name="U" format="2">
  <advance width="924"/>
  <unicode hex="0055"/>
  <anchor x="462.0" y="0" name="bottom"/>
  <anchor x="657.0" y="0" name="ogonek"/>
  <anchor x="462.0" y="700.0" name="top"/>
  <anchor x="904.0" y="700.0" name="topright"/>
  <outline>
    <contour>
      <point x="462.0" y="-6.0" type="curve" smooth="yes"/>
      <point x="692.6659999999999" y="-6.0"/>
      <point x="844.0" y="137.667"/>
      <point x="844.0" y="335.0" type="curve" smooth="yes"/>
      <point x="844.0" y="700.0" type="line"/>
      <point x="631.0" y="700.0" type="line"/>
      <point x="631.0" y="339.0" type="line" smooth="yes"/>
      <point x="631.0" y="242.999"/>
      <point x="562.0" y="179.0"/>
      <point x="462.0" y="179.0" type="curve" smooth="yes"/>
      <point x="366.0" y="179.0"/>
      <point x="298.0" y="242.999"/>
      <point x="298.0" y="339.0" type="curve" smooth="yes"/>
      <point x="298.0" y="700.0" type="line"/>
      <point x="80.0" y="700.0" type="line"/>
      <point x="80.0" y="335.0" type="line" smooth="yes"/>
      <point x="80.0" y="137.667"/>
      <point x="231.334" y="-6.0"/>
    </contour>
  </outline>
</glyph>
<glyph name="V" format="2">
  <advance width="811"/>
  <unicode hex="0056"/>
  <anchor x="405" y="0" name="bottom"/>
  <anchor x="405" y="700" name="top"/>
  <outline>
    <contour>
      <point x="312" y="0" type="line"/>
      <point x="507" y="0" type="line"/>
      <point x="821" y="700" type="line"/>
      <point x="611" y="700" type="line"/>
      <point x="481" y="400" type="line" smooth="yes"/>
      <point x="455.666" y="338"/>
      <point x="416.667" y="262"/>
      <point x="388" y="166" type="curve"/>
      <point x="429" y="166" type="line"/>
      <point x="403" y="269.333"/>
      <point x="352.667" y="365"/>
      <point x="337" y="402" type="curve" smooth="yes"/>
      <point x="205" y="700" type="line"/>
      <point x="-10" y="700" type="line"/>
    </contour>
  </outline>
</glyph>
<glyph name="W" format="2">
  <advance width="1134"/>
  <unicode hex="0057"/>
  <anchor x="567" y="0" name="bottom"/>
  <anchor x="567" y="700" name="top"/>
  <outline>
    <contour>
      <point x="224" y="0" type="line"/>
      <point x="414" y="0" type="line"/>
      <point x="575" y="410" type="line"/>
      <point x="538" y="410" type="line"/>
      <point x="708" y="0" type="line"/>
      <point x="878" y="0" type="line"/>
      <point x="1144" y="700" type="line"/>
      <point x="935" y="700" type="line"/>
      <point x="822" y="415" type="line" smooth="yes"/>
      <point x="803" y="360"/>
      <point x="775" y="235"/>
      <point x="774" y="184" type="curve"/>
      <point x="803" y="184" type="line"/>
      <point x="802" y="235"/>
      <point x="772" y="324"/>
      <point x="739" y="412" type="curve" smooth="yes"/>
      <point x="649" y="631" type="line"/>
      <point x="477" y="631" type="line"/>
      <point x="387" y="410" type="line" smooth="yes"/>
      <point x="352" y="325"/>
      <point x="329" y="235"/>
      <point x="328" y="184" type="curve"/>
      <point x="359" y="184" type="line"/>
      <point x="358" y="235"/>
      <point x="321" y="361"/>
      <point x="305" y="411" type="curve" smooth="yes"/>
      <point x="210" y="700" type="line"/>
      <point x="-10" y="700" type="line"/>
    </contour>
  </outline>
</glyph>
<glyph name="X" format="2">
  <advance width="860"/>
  <unicode hex="0058"/>
  <anchor x="430.0" y="0" name="bottom"/>
  <anchor x="430.0" y="700.0" name="top"/>
  <outline>
    <contour>
      <point x="610.0" y="0.0" type="line"/>
      <point x="880.0" y="0.0" type="line"/>
      <point x="521.0" y="397.0" type="line"/>
      <point x="254.0" y="700.0" type="line"/>
      <point x="-15.0" y="700.0" type="line"/>
      <point x="332.0" y="316.0" type="line"/>
    </contour>
    <contour>
      <point x="-20.0" y="0.0" type="line"/>
      <point x="243.0" y="0.0" type="line"/>
      <point x="496.0" y="302.0" type="line"/>
      <point x="313.0" y="381.0" type="line"/>
    </contour>
    <contour>
      <point x="545.0" y="325.0" type="line"/>
      <point x="869.0" y="700.0" type="line"/>
      <point x="605.0" y="700.0" type="line"/>
      <point x="364.0" y="401.0" type="line"/>
    </contour>
  </outline>
</glyph>
<glyph name="Y" format="2">
  <advance width="870"/>
  <unicode hex="0059"/>
  <anchor x="435.0" y="0" name="bottom"/>
  <anchor x="435.0" y="700.0" name="top"/>
  <anchor x="20.0" y="700.0" name="topleft"/>
  <outline>
    <contour>
      <point x="336.0" y="0.0" type="line"/>
      <point x="554.0" y="0.0" type="line"/>
      <point x="554.0" y="321.0" type="line"/>
      <point x="549.0" y="263.0" type="line"/>
      <point x="890.0" y="700.0" type="line"/>
      <point x="646.0" y="700.0" type="line"/>
      <point x="380.0" y="347.0" type="line"/>
      <point x="513.0" y="347.0" type="line"/>
      <point x="240.0" y="700.0" type="line"/>
      <point x="-20.0" y="700.0" type="line"/>
      <point x="356.0" y="236.0" type="line"/>
      <point x="336.0" y="313.0" type="line"/>
    </contour>
  </outline>
</glyph>
<glyph name="Z" format="2">
  <advance width="841"/>
  <unicode hex="005A"/>
  <anchor x="421.0" y="0" name="bottom"/>
  <anchor x="421.0" y="350.0" name="center"/>
  <anchor x="421.0" y="700.0" name="top"/>
  <outline>
    <contour>
      <point x="60.0" y="0.0" type="line"/>
      <point x="781.0" y="0.0" type="line"/>
      <point x="781.0" y="184.0" type="line"/>
      <point x="180.0" y="184.0" type="line"/>
      <point x="295.0" y="87.0" type="line"/>
      <point x="770.0" y="562.0" type="line"/>
      <point x="770.0" y="700.0" type="line"/>
      <point x="86.0" y="700.0" type="line"/>
      <point x="86.0" y="504.0" type="line"/>
      <point x="651.0" y="504.0" type="line"/>
      <point x="535.0" y="613.0" type="line"/>
      <point x="60.0" y="139.0" type="line"/>
    </contour>
  </outline>
</glyph>
<glyph name="bracketleft" format="2">
  <advance width="572"/>
  <unicode hex="005B"/>
  <outline>
    <contour>
      <point x="80" y="-190" type="line"/>
      <point x="547" y="-190" type="line"/>
      <point x="547" y="5" type="line"/>
      <point x="289" y="5" type="line"/>
      <point x="299" y="-7" type="line"/>
      <point x="299" y="513" type="line"/>
      <point x="293" y="505" type="line"/>
      <point x="547" y="505" type="line"/>
      <point x="547" y="700" type="line"/>
      <point x="80" y="700" type="line"/>
    </contour>
  </outline>
</glyph>
<glyph name="bracketright" format="2">
  <advance width="572"/>
  <unicode hex="005D"/>
  <outline>
    <contour>
      <point x="25.0" y="-190.0" type="line"/>
      <point x="492.0" y="-190.0" type="line"/>
      <point x="492.0" y="700.0" type="line"/>
      <point x="25.0" y="700.0" type="line"/>
      <point x="25.0" y="505.0" type="line"/>
      <point x="283.0" y="505.0" type="line"/>
      <point x="273.0" y="517.0" type="line"/>
      <point x="273.0" y="-3.0" type="line"/>
      <point x="279.0" y="5.0" type="line"/>
      <point x="25.0" y="5.0" type="line"/>
    </contour>
  </outline>
</glyph>
<glyph name="asciicircum" format="2">
  <advance width="758"/>
  <unicode hex="005E"/>
  <outline>
    <contour>
      <point x="0" y="356" type="line"/>
      <point x="209" y="356" type="line"/>
      <point x="453" y="674" type="line"/>
      <point x="306" y="673" type="line"/>
      <point x="546" y="356" type="line"/>
      <point x="758" y="356" type="line"/>
      <point x="462" y="737" type="line"/>
      <point x="296" y="737" type="line"/>
    </contour>
  </outline>
</glyph>
<glyph name="underscore" format="2">
  <advance width="754"/>
  <unicode hex="005F"/>
  <outline>
    <contour>
      <point x="30" y="-216" type="line"/>
      <point x="724" y="-216" type="line"/>
      <point x="724" y="-31" type="line"/>
      <point x="30" y="-31" type="line"/>
    </contour>
  </outline>
</glyph>
<glyph name="a" format="2">
  <advance width="820"/>
  <unicode hex="0061"/>
  <anchor x="410" y="0" name="bottom"/>
  <anchor x="695" y="0" name="ogonek"/>
  <anchor x="410" y="535" name="top"/>
  <outline>
    <contour>
      <point x="337" y="-9" type="curve" smooth="yes"/>
      <point x="473" y="-9"/>
      <point x="576" y="65.334"/>
      <point x="588" y="132" type="curve"/>
      <point x="547" y="151" type="line"/>
      <point x="547" y="0" type="line"/>
      <point x="750" y="0" type="line"/>
      <point x="750" y="535" type="line"/>
      <point x="552" y="535" type="line"/>
      <point x="552" y="417" type="line"/>
      <point x="600" y="426" type="line"/>
      <point x="581.333" y="475.334"/>
      <point x="480" y="546"/>
      <point x="336" y="546" type="curve" smooth="yes"/>
      <point x="147.999" y="546"/>
      <point x="30" y="431"/>
      <point x="30" y="267" type="curve" smooth="yes"/>
      <point x="30" y="103"/>
      <point x="143.667" y="-9"/>
    </contour>
    <contour>
      <point x="391" y="156" type="curve" smooth="yes"/>
      <point x="291" y="156"/>
      <point x="229" y="197.667"/>
      <point x="229" y="267" type="curve" smooth="yes"/>
      <point x="229" y="336.333"/>
      <point x="291" y="380"/>
      <point x="391" y="380" type="curve" smooth="yes"/>
      <point x="492.334" y="380"/>
      <point x="552" y="336.333"/>
      <point x="552" y="267" type="curve" smooth="yes"/>
      <point x="552" y="197.667"/>
      <point x="492.334" y="156"/>
    </contour>
  </outline>
</glyph>
<glyph name="b" format="2">
  <advance width="809"/>
  <unicode hex="0062"/>
  <anchor x="405.0" y="0" name="bottom"/>
  <anchor x="405.0" y="740.0" name="top"/>
  <outline>
    <contour>
      <point x="471.0" y="-11.0" type="curve" smooth="yes"/>
      <point x="651.0" y="-11.0"/>
      <point x="779.0" y="101.666"/>
      <point x="779.0" y="267.0" type="curve" smooth="yes"/>
      <point x="779.0" y="428.333"/>
      <point x="644.8510000000001" y="546.0"/>
      <point x="476.0" y="546.0" type="curve" smooth="yes"/>
      <point x="331.9990000000001" y="546.0"/>
      <point x="229.0" y="473.333"/>
      <point x="209.0" y="408.0" type="curve"/>
      <point x="274.0" y="404.0" type="line"/>
      <point x="274.0" y="740.0" type="line"/>
      <point x="70.0" y="740.0" type="line"/>
      <point x="70.0" y="0.0" type="line"/>
      <point x="253.0" y="0.0" type="line"/>
      <point x="269.0" y="118.0" type="line"/>
      <point x="208.0" y="119.0" type="line"/>
      <point x="222.666" y="59.0"/>
      <point x="324.333" y="-11.0"/>
    </contour>
    <contour>
      <point x="420.0" y="156.0" type="curve" smooth="yes"/>
      <point x="319.999" y="156.0"/>
      <point x="259.0" y="199.0"/>
      <point x="259.0" y="267.0" type="curve" smooth="yes"/>
      <point x="259.0" y="337.66600000000005"/>
      <point x="319.999" y="379.0"/>
      <point x="420.0" y="379.0" type="curve" smooth="yes"/>
      <point x="517.333" y="379.0"/>
      <point x="579.0" y="337.66600000000005"/>
      <point x="579.0" y="267.0" type="curve" smooth="yes"/>
      <point x="579.0" y="199.0"/>
      <point x="518.6659999999999" y="156.0"/>
    </contour>
  </outline>
</glyph>
<glyph name="c" format="2">
  <advance width="703"/>
  <unicode hex="0063"/>
  <anchor x="385.0" y="0" name="bottom"/>
  <anchor x="380.0" y="535.0" name="top"/>
  <outline>
    <contour>
      <point x="381.0" y="-10.0" type="curve" smooth="yes"/>
      <point x="517.0" y="-10.0"/>
      <point x="610.6669999999999" y="18.0"/>
      <point x="692.0" y="58.0" type="curve"/>
      <point x="584.0" y="199.0" type="line"/>
      <point x="548.0" y="192.334"/>
      <point x="493.0" y="164.0"/>
      <point x="389.0" y="164.0" type="curve" smooth="yes"/>
      <point x="297.0" y="164.0"/>
      <point x="240.0" y="206.333"/>
      <point x="240.0" y="269.0" type="curve" smooth="yes"/>
      <point x="240.0" y="331.66600000000005"/>
      <point x="295.66700000000003" y="373.0"/>
      <point x="389.0" y="373.0" type="curve" smooth="yes"/>
      <point x="471.66600000000005" y="373.0"/>
      <point x="536.6659999999999" y="349.333"/>
      <point x="582.0" y="320.0" type="curve"/>
      <point x="693.0" y="464.0" type="line"/>
      <point x="622.3330000000001" y="518.6669999999999"/>
      <point x="506.33399999999995" y="546.0"/>
      <point x="381.0" y="546.0" type="curve" smooth="yes"/>
      <point x="179.666" y="546.0"/>
      <point x="30.0" y="429.333"/>
      <point x="30.0" y="268.0" type="curve" smooth="yes"/>
      <point x="30.0" y="106.667"/>
      <point x="179.666" y="-10.0"/>
    </contour>
  </outline>
</glyph>
<glyph name="d" format="2">
  <advance width="809"/>
  <unicode hex="0064"/>
  <anchor x="405.0" y="0" name="bottom"/>
  <anchor x="546.0" y="634.0" name="center"/>
  <anchor x="405.0" y="740.0" name="top"/>
  <anchor x="809.0" y="740.0" name="topright"/>
  <outline>
    <contour>
      <point x="319.0" y="-11.0" type="curve" smooth="yes"/>
      <point x="461.667" y="-11.0"/>
      <point x="577.6669999999999" y="53.001000000000005"/>
      <point x="591.0" y="121.0" type="curve"/>
      <point x="550.0" y="138.0" type="line"/>
      <point x="566.0" y="0.0" type="line"/>
      <point x="749.0" y="0.0" type="line"/>
      <point x="749.0" y="740.0" type="line"/>
      <point x="545.0" y="740.0" type="line"/>
      <point x="545.0" y="404.0" type="line"/>
      <point x="590.0" y="418.0" type="line"/>
      <point x="572.6669999999999" y="484.667"/>
      <point x="473.001" y="546.0"/>
      <point x="333.0" y="546.0" type="curve" smooth="yes"/>
      <point x="151.666" y="546.0"/>
      <point x="30.0" y="429.667"/>
      <point x="30.0" y="267.0" type="curve" smooth="yes"/>
      <point x="30.0" y="101.666"/>
      <point x="140.333" y="-11.0"/>
    </contour>
    <contour>
      <point x="389.0" y="160.0" type="curve" smooth="yes"/>
      <point x="290.33299999999997" y="160.0"/>
      <point x="229.0" y="200.334"/>
      <point x="229.0" y="267.0" type="curve" smooth="yes"/>
      <point x="229.0" y="332.333"/>
      <point x="290.33299999999997" y="373.0"/>
      <point x="389.0" y="373.0" type="curve" smooth="yes"/>
      <point x="490.33399999999995" y="373.0"/>
      <point x="550.0" y="332.333"/>
      <point x="550.0" y="267.0" type="curve" smooth="yes"/>
      <point x="550.0" y="200.334"/>
      <point x="490.33399999999995" y="160.0"/>
    </contour>
  </outline>
</glyph>
<glyph name="e" format="2">
  <advance width="746"/>
  <unicode hex="0065"/>
  <anchor x="413.0" y="0" name="bottom"/>
  <anchor x="659.0" y="10.0" name="ogonek"/>
  <anchor x="381.0" y="535.0" name="top"/>
  <outline>
    <contour>
      <point x="409.0" y="-10.0" type="curve" smooth="yes"/>
      <point x="519" y="-10.0"/>
      <point x="614" y="12"/>
      <point x="700.0" y="63.0" type="curve"/>
      <point x="614.0" y="184.0" type="line"/>
      <point x="593.0" y="175"/>
      <point x="538.0" y="151.0"/>
      <point x="442.0" y="151.0" type="curve" smooth="yes"/>
      <point x="299" y="151.0"/>
      <point x="215.0" y="213"/>
      <point x="215.0" y="284.0" type="curve" smooth="yes"/>
      <point x="215.0" y="360"/>
      <point x="297" y="393.0"/>
      <point x="385.0" y="393.0" type="curve" smooth="yes"/>
      <point x="468" y="393.0"/>
      <point x="537" y="360"/>
      <point x="541.0" y="319.0" type="curve"/>
      <point x="541.0" y="301.0" type="line"/>
      <point x="560.0" y="336.0" type="line"/>
      <point x="139.0" y="336.0" type="line"/>
      <point x="162.0" y="223.0" type="line"/>
      <point x="721.0" y="223.0" type="line"/>
      <point x="722.0" y="268.0" type="line" smooth="yes"/>
      <point x="726" y="433"/>
      <point x="577" y="546"/>
      <point x="381.0" y="546.0" type="curve" smooth="yes"/>
      <point x="193" y="546"/>
      <point x="30.0" y="439.0"/>
      <point x="30.0" y="268.0" type="curve" smooth="yes"/>
      <point x="30.0" y="108"/>
      <point x="176.0" y="-10.0"/>
    </contour>
  </outline>
</glyph>
<glyph name="f" format="2">
  <advance width="533"/>
  <unicode hex="0066"/>
  <anchor x="267.0" y="0" name="bottom"/>
  <anchor x="267.0" y="740.0" name="top"/>
  <outline>
    <contour>
      <point x="126.0" y="0.0" type="line"/>
      <point x="147.0" y="0.0"/>
      <point x="179" y="0.0"/>
      <point x="223" y="0.0" type="curve" smooth="yes"/>
      <point x="319.0" y="0.0" type="line"/>
      <point x="319.0" y="508.0" type="line" smooth="yes"/>
      <point x="319.0" y="557.0"/>
      <point x="353" y="588.0"/>
      <point x="407" y="588.0" type="curve" smooth="yes"/>
      <point x="450" y="588"/>
      <point x="493.0" y="570.0"/>
      <point x="514.0" y="562.0" type="curve"/>
      <point x="566.0" y="704.0" type="line"/>
      <point x="526" y="722"/>
      <point x="468" y="745"/>
      <point x="384.0" y="745.0" type="curve" smooth="yes"/>
      <point x="225.0" y="745.0"/>
      <point x="126.0" y="655.0"/>
      <point x="126.0" y="508.0" type="curve" smooth="yes"/>
    </contour>
    <contour>
      <point x="13.0" y="346.0" type="line"/>
      <point x="527.0" y="346.0" type="line"/>
      <point x="527.0" y="506.0" type="line"/>
      <point x="13.0" y="506.0" type="line"/>
    </contour>
  </outline>
</glyph>
<glyph name="g" format="2">
  <advance width="818"/>
  <unicode hex="0067"/>
  <anchor x="409.0" y="-230.0" name="bottom"/>
  <anchor x="409.0" y="535.0" name="top"/>
  <outline>
    <contour>
      <point x="421.0" y="-230.0" type="curve" smooth="yes"/>
      <point x="593.0" y="-230.0"/>
      <point x="753.0" y="-126.666"/>
      <point x="753.0" y="92.0" type="curve" smooth="yes"/>
      <point x="753.0" y="535.0" type="line"/>
      <point x="565.0" y="535.0" type="line"/>
      <point x="554.0" y="417.0" type="line"/>
      <point x="595.0" y="426.0" type="line"/>
      <point x="591.0" y="513.666"/>
      <point x="408.0" y="546.0"/>
      <point x="332.0" y="546.0" type="curve" smooth="yes"/>
      <point x="152.001" y="546.0"/>
      <point x="30.0" y="434.667"/>
      <point x="30.0" y="272.0" type="curve" smooth="yes"/>
      <point x="30.0" y="114.666"/>
      <point x="143.667" y="15.0"/>
      <point x="317.0" y="15.0" type="curve" smooth="yes"/>
      <point x="458.333" y="15.0"/>
      <point x="574.0" y="67.0"/>
      <point x="594.0" y="131.0" type="curve"/>
      <point x="549.0" y="135.0" type="line"/>
      <point x="549.0" y="95.0" type="line" smooth="yes"/>
      <point x="549.0" y="-12.516000000000005"/>
      <point x="485.0" y="-66.0"/>
      <point x="385.0" y="-66.0" type="curve" smooth="yes"/>
      <point x="279.66700000000003" y="-66.0"/>
      <point x="220.0" y="-34.666"/>
      <point x="172.0" y="-16.0" type="curve"/>
      <point x="105.0" y="-158.0" type="line"/>
      <point x="171.667" y="-196.667"/>
      <point x="278.33399999999995" y="-230.0"/>
    </contour>
    <contour>
      <point x="398.0" y="160.0" type="curve" smooth="yes"/>
      <point x="294.0" y="160.0"/>
      <point x="229.0" y="200.667"/>
      <point x="229.0" y="270.0" type="curve" smooth="yes"/>
      <point x="229.0" y="339.333"/>
      <point x="294.0" y="381.0"/>
      <point x="398.0" y="381.0" type="curve" smooth="yes"/>
      <point x="496.66700000000003" y="381.0"/>
      <point x="554.0" y="339.33399999999995"/>
      <point x="554.0" y="270.0" type="curve" smooth="yes"/>
      <point x="554.0" y="200.666"/>
      <point x="495.3330000000001" y="160.0"/>
    </contour>
  </outline>
</glyph>
<glyph name="h" format="2">
  <advance width="785"/>
  <unicode hex="0068"/>
  <anchor x="393.0" y="0" name="bottom"/>
  <anchor x="213.0" y="637.0" name="center"/>
  <anchor x="393.0" y="740.0" name="top"/>
  <outline>
    <contour>
      <point x="70.0" y="0.0" type="line"/>
      <point x="70.0" y="0.0"/>
      <point x="103.834" y="0.0"/>
      <point x="171.5" y="0.0" type="curve" smooth="yes"/>
      <point x="273.0" y="0.0" type="line"/>
      <point x="273.0" y="278.0" type="line" smooth="yes"/>
      <point x="273.0" y="312.667"/>
      <point x="325.0" y="382.0"/>
      <point x="401.0" y="382.0" type="curve" smooth="yes"/>
      <point x="458.333" y="378.0"/>
      <point x="522.0" y="334.333"/>
      <point x="522.0" y="293.0" type="curve" smooth="yes"/>
      <point x="522.0" y="0.0" type="line"/>
      <point x="725.0" y="0.0" type="line"/>
      <point x="725.0" y="320.0" type="line" smooth="yes"/>
      <point x="725.0" y="437.33399999999995"/>
      <point x="636.667" y="546.0"/>
      <point x="478.0" y="546.0" type="curve" smooth="yes"/>
      <point x="339.333" y="546.0"/>
      <point x="231.666" y="466.33399999999995"/>
      <point x="205.0" y="385.0" type="curve"/>
      <point x="268.0" y="387.0" type="line"/>
      <point x="268.0" y="740.0" type="line"/>
      <point x="70.0" y="740.0" type="line"/>
    </contour>
  </outline>
</glyph>
<glyph name="i" format="2">
  <advance width="350"/>
  <unicode hex="0069"/>
  <anchor x="175" y="0" name="bottom"/>
  <anchor x="257" y="0" name="ogonek"/>
  <anchor x="175" y="760" name="top"/>
  <outline>
    <contour>
      <point x="73" y="0" type="line"/>
      <point x="276" y="0" type="line"/>
      <point x="276" y="535" type="line"/>
      <point x="73" y="535" type="line"/>
    </contour>
    <contour>
      <point x="175" y="642" type="curve" smooth="yes"/>
      <point x="246" y="642"/>
      <point x="290" y="682"/>
      <point x="290" y="738" type="curve" smooth="yes"/>
      <point x="290" y="799"/>
      <point x="247" y="834"/>
      <point x="175" y="834" type="curve" smooth="yes"/>
      <point x="104" y="834"/>
      <point x="60" y="794"/>
      <point x="60" y="738" type="curve" smooth="yes"/>
      <point x="60" y="677"/>
      <point x="103" y="642"/>
    </contour>
  </outline>
</glyph>
<glyph name="j" format="2">
  <advance width="379"/>
  <unicode hex="006A"/>
  <anchor x="177.0" y="-230.0" name="bottom"/>
  <anchor x="185.0" y="760.0" name="top"/>
  <outline>
    <contour>
      <point x="-47.0" y="-219.0" type="line"/>
      <point x="160.0" y="-219.0"/>
      <point x="282.0" y="-109.0"/>
      <point x="282.0" y="153.0" type="curve" smooth="yes"/>
      <point x="282.0" y="535.0" type="line"/>
      <point x="79.0" y="535.0" type="line"/>
      <point x="79.0" y="201.0" type="line" smooth="yes"/>
      <point x="79.0" y="23.0"/>
      <point x="36.0" y="-49.0"/>
      <point x="-124.0" y="-49.0" type="curve"/>
    </contour>
    <contour>
      <point x="178.0" y="632.0" type="curve" smooth="yes"/>
      <point x="249.0" y="632.0"/>
      <point x="293.0" y="672.0"/>
      <point x="293.0" y="728.0" type="curve" smooth="yes"/>
      <point x="293.0" y="789.0"/>
      <point x="250.0" y="824.0"/>
      <point x="178.0" y="824.0" type="curve" smooth="yes"/>
      <point x="107.0" y="824.0"/>
      <point x="63.0" y="784.0"/>
      <point x="63.0" y="728.0" type="curve" smooth="yes"/>
      <point x="63.0" y="667.0"/>
      <point x="106.0" y="632.0"/>
    </contour>
  </outline>
</glyph>
<glyph name="k" format="2">
  <advance width="789"/>
  <unicode hex="006B"/>
  <anchor x="395.0" y="0" name="bottom"/>
  <anchor x="395.0" y="740.0" name="top"/>
  <outline>
    <contour>
      <point x="252.0" y="120.0" type="line"/>
      <point x="803.0" y="535.0" type="line"/>
      <point x="534.0" y="535.0" type="line"/>
      <point x="169.0" y="246.0" type="line"/>
    </contour>
    <contour>
      <point x="70.0" y="0.0" type="line"/>
      <point x="263.0" y="0.0" type="line"/>
      <point x="263.0" y="740.0" type="line"/>
      <point x="70.0" y="740.0" type="line"/>
    </contour>
    <contour>
      <point x="554.0" y="0.0" type="line"/>
      <point x="786.0" y="0.0" type="line"/>
      <point x="438.0" y="413.0" type="line"/>
      <point x="301.0" y="311.0" type="line"/>
    </contour>
  </outline>
</glyph>
<glyph name="l" format="2">
  <advance width="343"/>
  <unicode hex="006C"/>
  <anchor x="172.0" y="0" name="bottom"/>
  <anchor x="172.0" y="370.0" name="center"/>
  <anchor x="172.0" y="740.0" name="top"/>
  <anchor x="342.0" y="740.0" name="topright"/>
  <outline>
    <contour>
      <point x="70.0" y="0.0" type="line"/>
      <point x="273.0" y="0.0" type="line"/>
      <point x="273.0" y="740.0" type="line"/>
      <point x="70.0" y="740.0" type="line"/>
    </contour>
  </outline>
</glyph>
<glyph name="m" format="2">
  <advance width="1233"/>
  <unicode hex="006D"/>
  <anchor x="617.0" y="0" name="bottom"/>
  <anchor x="617.0" y="535.0" name="top"/>
  <outline>
    <contour>
      <point x="70.0" y="0.0" type="line"/>
      <point x="273.0" y="0.0" type="line"/>
      <point x="273.0" y="278.0" type="line" smooth="yes"/>
      <point x="273.0" y="311.33399999999995"/>
      <point x="322.66700000000003" y="381.0"/>
      <point x="400.0" y="381.0" type="curve" smooth="yes"/>
      <point x="486.66600000000005" y="381.0"/>
      <point x="520.0" y="341.0"/>
      <point x="520.0" y="293.0" type="curve" smooth="yes"/>
      <point x="520.0" y="0.0" type="line"/>
      <point x="723.0" y="0.0" type="line"/>
      <point x="723.0" y="258.0" type="line" smooth="yes"/>
      <point x="723.0" y="324.66600000000005"/>
      <point x="788.333" y="381.0"/>
      <point x="875.0" y="381.0" type="curve" smooth="yes"/>
      <point x="940.333" y="381.0"/>
      <point x="970.0" y="335.667"/>
      <point x="970.0" y="293.0" type="curve" smooth="yes"/>
      <point x="970.0" y="0.0" type="line"/>
      <point x="1173.0" y="0.0" type="line"/>
      <point x="1173.0" y="320.0" type="line" smooth="yes"/>
      <point x="1173.0" y="437.333"/>
      <point x="1107.0" y="546.0"/>
      <point x="927.0" y="546.0" type="curve" smooth="yes"/>
      <point x="796.333" y="546.0"/>
      <point x="712.3340000000001" y="485.667"/>
      <point x="651.0" y="423.0" type="curve" smooth="yes"/>
      <point x="641.0" y="409.0" type="line"/>
      <point x="692.0" y="404.0" type="line"/>
      <point x="654.667" y="516.0"/>
      <point x="575.333" y="546.0"/>
      <point x="486.0" y="546.0" type="curve" smooth="yes"/>
      <point x="356.667" y="546.0"/>
      <point x="288.33399999999995" y="496.33399999999995"/>
      <point x="223.0" y="439.0" type="curve"/>
      <point x="266.0" y="411.0" type="line"/>
      <point x="258.0" y="535.0" type="line"/>
      <point x="70.0" y="535.0" type="line"/>
    </contour>
  </outline>
</glyph>
<glyph name="n" format="2">
  <advance width="785"/>
  <unicode hex="006E"/>
  <anchor x="393.0" y="0" name="bottom"/>
  <anchor x="423.0" y="535.0" name="top"/>
  <outline>
    <contour>
      <point x="70.0" y="0.0" type="line"/>
      <point x="70.0" y="0.0"/>
      <point x="103.834" y="0.0"/>
      <point x="171.5" y="0.0" type="curve" smooth="yes"/>
      <point x="273.0" y="0.0" type="line"/>
      <point x="273.0" y="278.0" type="line" smooth="yes"/>
      <point x="273.0" y="312.667"/>
      <point x="325.0" y="379.0"/>
      <point x="401.0" y="379.0" type="curve" smooth="yes"/>
      <point x="458.333" y="375.0"/>
      <point x="522.0" y="333.0"/>
      <point x="522.0" y="293.0" type="curve" smooth="yes"/>
      <point x="522.0" y="0.0" type="line"/>
      <point x="725.0" y="0.0" type="line"/>
      <point x="725.0" y="320.0" type="line" smooth="yes"/>
      <point x="725.0" y="437.33399999999995"/>
      <point x="633.333" y="546.0"/>
      <point x="468.0" y="546.0" type="curve" smooth="yes"/>
      <point x="334.66600000000005" y="546.0"/>
      <point x="251.666" y="466.33399999999995"/>
      <point x="205.0" y="385.0" type="curve"/>
      <point x="268.0" y="387.0" type="line"/>
      <point x="258.0" y="535.0" type="line"/>
      <point x="70.0" y="535.0" type="line"/>
    </contour>
  </outline>
</glyph>
<glyph name="o" format="2">
  <advance width="820"/>
  <unicode hex="006F"/>
  <anchor x="410.0" y="0" name="bottom"/>
  <anchor x="410.0" y="268.0" name="center"/>
  <anchor x="751.0" y="10.0" name="ogonek"/>
  <anchor x="410.0" y="535.0" name="top"/>
  <anchor x="800.0" y="535.0" name="topright"/>
  <outline>
    <contour>
      <point x="411.0" y="-10.0" type="curve" smooth="yes"/>
      <point x="636.3330000000001" y="-10.0"/>
      <point x="790.0" y="105.333"/>
      <point x="790.0" y="268.0" type="curve" smooth="yes"/>
      <point x="790.0" y="430.667"/>
      <point x="636.3330000000001" y="546.0"/>
      <point x="411.0" y="546.0" type="curve" smooth="yes"/>
      <point x="184.333" y="546.0"/>
      <point x="30.0" y="430.667"/>
      <point x="30.0" y="268.0" type="curve" smooth="yes"/>
      <point x="30.0" y="105.333"/>
      <point x="184.333" y="-10.0"/>
    </contour>
    <contour>
      <point x="411.0" y="160.0" type="curve" smooth="yes"/>
      <point x="313.66700000000003" y="160.0"/>
      <point x="233.666" y="204.0"/>
      <point x="235.0" y="268.0" type="curve" smooth="yes"/>
      <point x="233.666" y="334.66600000000005"/>
      <point x="313.66700000000003" y="377.0"/>
      <point x="411.0" y="377.0" type="curve" smooth="yes"/>
      <point x="507.0" y="377.0"/>
      <point x="586.3340000000001" y="333.333"/>
      <point x="585.0" y="268.0" type="curve" smooth="yes"/>
      <point x="586.3340000000001" y="204.0"/>
      <point x="507.0" y="160.0"/>
    </contour>
  </outline>
</glyph>
<glyph name="p" format="2">
  <advance width="819"/>
  <unicode hex="0070"/>
  <anchor x="410" y="0" name="bottom"/>
  <anchor x="410" y="535" name="top"/>
  <outline>
    <contour>
      <point x="70" y="-220" type="line"/>
      <point x="274" y="-220" type="line"/>
      <point x="274" y="131" type="line"/>
      <point x="229" y="117" type="line"/>
      <point x="247.666" y="53"/>
      <point x="347.333" y="-9"/>
      <point x="486" y="-9" type="curve" smooth="yes"/>
      <point x="667.333" y="-9"/>
      <point x="789" y="104"/>
      <point x="789" y="268" type="curve" smooth="yes"/>
      <point x="789" y="433.334"/>
      <point x="671" y="546"/>
      <point x="491" y="546" type="curve" smooth="yes"/>
      <point x="349.666" y="546"/>
      <point x="244" y="488.666"/>
      <point x="228" y="426" type="curve"/>
      <point x="269" y="417" type="line"/>
      <point x="258" y="536" type="line"/>
      <point x="70" y="536" type="line"/>
    </contour>
    <contour>
      <point x="430" y="156" type="curve" smooth="yes"/>
      <point x="329.999" y="156"/>
      <point x="269" y="197.333"/>
      <point x="269" y="268" type="curve" smooth="yes"/>
      <point x="269" y="337.333"/>
      <point x="329.999" y="381"/>
      <point x="430" y="381" type="curve" smooth="yes"/>
      <point x="528.667" y="381"/>
      <point x="590" y="338.667"/>
      <point x="590" y="268" type="curve" smooth="yes"/>
      <point x="590" y="197.333"/>
      <point x="530" y="156"/>
    </contour>
  </outline>
</glyph>
<glyph name="q" format="2">
  <advance width="825"/>
  <unicode hex="0071"/>
  <anchor x="413" y="0" name="bottom"/>
  <anchor x="413" y="535" name="top"/>
  <outline>
    <contour>
      <point x="551" y="-230" type="line"/>
      <point x="755" y="-230" type="line"/>
      <point x="755" y="534" type="line"/>
      <point x="567" y="534" type="line"/>
      <point x="556" y="417" type="line"/>
      <point x="597" y="426" type="line"/>
      <point x="583.667" y="490"/>
      <point x="481.667" y="546"/>
      <point x="331" y="546" type="curve" smooth="yes"/>
      <point x="152.333" y="546"/>
      <point x="30" y="433.334"/>
      <point x="30" y="268" type="curve" smooth="yes"/>
      <point x="30" y="105.333"/>
      <point x="141.666" y="-9"/>
      <point x="327" y="-9" type="curve" smooth="yes"/>
      <point x="467" y="-9"/>
      <point x="578.667" y="57"/>
      <point x="596" y="129" type="curve"/>
      <point x="551" y="151" type="line"/>
    </contour>
    <contour>
      <point x="395" y="156" type="curve" smooth="yes"/>
      <point x="296.333" y="156"/>
      <point x="235" y="197.334"/>
      <point x="235" y="268" type="curve" smooth="yes"/>
      <point x="235" y="337.333"/>
      <point x="296.333" y="379"/>
      <point x="395" y="379" type="curve" smooth="yes"/>
      <point x="496.334" y="379"/>
      <point x="556" y="336"/>
      <point x="556" y="268" type="curve" smooth="yes"/>
      <point x="556" y="198.667"/>
      <point x="496.334" y="156"/>
    </contour>
  </outline>
</glyph>
<glyph name="r" format="2">
  <advance width="613"/>
  <unicode hex="0072"/>
  <anchor x="162.0" y="0" name="bottom"/>
  <anchor x="358.0" y="522.0" name="top"/>
  <outline>
    <contour>
      <point x="70.0" y="0.0" type="line"/>
      <point x="273.0" y="0.0" type="line"/>
      <point x="273.0" y="218.0" type="line" smooth="yes"/>
      <point x="273.0" y="272.667"/>
      <point x="311.667" y="333.0"/>
      <point x="409.0" y="333.0" type="curve" smooth="yes"/>
      <point x="460.9990000000001" y="333.0"/>
      <point x="520.334" y="317.9990000000001"/>
      <point x="547.0" y="298.0" type="curve"/>
      <point x="603.0" y="517.0" type="line"/>
      <point x="568.3330000000001" y="535.667"/>
      <point x="518.666" y="546.0"/>
      <point x="468.0" y="546.0" type="curve" smooth="yes"/>
      <point x="346.66600000000005" y="546.0"/>
      <point x="238.333" y="449.0"/>
      <point x="205.0" y="325.0" type="curve"/>
      <point x="270.0" y="331.0" type="line"/>
      <point x="258.0" y="535.0" type="line"/>
      <point x="70.0" y="535.0" type="line"/>
    </contour>
  </outline>
</glyph>
<glyph name="s" format="2">
  <advance width="667"/>
  <unicode hex="0073"/>
  <anchor x="345.0" y="0" name="bottom"/>
  <anchor x="334.0" y="535.0" name="top"/>
  <outline>
    <contour>
      <point x="344" y="-10" type="curve" smooth="yes"/>
      <point x="540" y="-10"/>
      <point x="657" y="66"/>
      <point x="657" y="169" type="curve" smooth="yes"/>
      <point x="657" y="210"/>
      <point x="647" y="243"/>
      <point x="612" y="270" type="curve" smooth="yes"/>
      <point x="570" y="302"/>
      <point x="493" y="328"/>
      <point x="356" y="347" type="curve" smooth="yes"/>
      <point x="301" y="354"/>
      <point x="249" y="357"/>
      <point x="227" y="370" type="curve" smooth="yes"/>
      <point x="220" y="374"/>
      <point x="216" y="379"/>
      <point x="216" y="385" type="curve" smooth="yes"/>
      <point x="216" y="402"/>
      <point x="252" y="410"/>
      <point x="324" y="410" type="curve" smooth="yes"/>
      <point x="407" y="410"/>
      <point x="503" y="376"/>
      <point x="555" y="347" type="curve"/>
      <point x="653" y="468" type="line"/>
      <point x="568" y="523"/>
      <point x="446" y="546"/>
      <point x="331" y="546" type="curve" smooth="yes"/>
      <point x="169" y="546"/>
      <point x="23" y="484"/>
      <point x="23" y="371" type="curve" smooth="yes"/>
      <point x="23" y="310"/>
      <point x="53" y="270"/>
      <point x="98" y="242" type="curve" smooth="yes"/>
      <point x="148" y="215"/>
      <point x="216" y="206"/>
      <point x="312" y="194" type="curve" smooth="yes"/>
      <point x="351" y="190"/>
      <point x="406" y="187"/>
      <point x="435" y="178" type="curve" smooth="yes"/>
      <point x="447" y="174"/>
      <point x="454" y="169"/>
      <point x="454" y="162" type="curve" smooth="yes"/>
      <point x="454" y="141"/>
      <point x="413" y="130"/>
      <point x="332" y="130" type="curve" smooth="yes"/>
      <point x="252" y="130"/>
      <point x="167" y="160"/>
      <point x="119" y="199" type="curve"/>
      <point x="1" y="93" type="line"/>
      <point x="72" y="26"/>
      <point x="194" y="-10"/>
    </contour>
  </outline>
</glyph>
<glyph name="t" format="2">
  <advance width="549"/>
  <unicode hex="0074"/>
  <anchor x="275.0" y="0" name="bottom"/>
  <anchor x="275.0" y="268.0" name="center"/>
  <anchor x="259.0" y="612.0" name="top"/>
  <anchor x="375.0" y="860.0" name="topright"/>
  <outline>
    <contour>
      <point x="158.0" y="0.0" type="line"/>
      <point x="361.0" y="0.0" type="line"/>
      <point x="361.0" y="700.0" type="line"/>
      <point x="158.0" y="700.0" type="line"/>
    </contour>
    <contour>
      <point x="15.0" y="365.0" type="line"/>
      <point x="529.0" y="365.0" type="line"/>
      <point x="529.0" y="535.0" type="line"/>
      <point x="15.0" y="535.0" type="line"/>
    </contour>
  </outline>
</glyph>
<glyph name="u" format="2">
  <advance width="789"/>
  <unicode hex="0075"/>
  <anchor x="395.0" y="0" name="bottom"/>
  <anchor x="677.0" y="0" name="ogonek"/>
  <anchor x="395.0" y="535.0" name="top"/>
  <anchor x="769.0" y="535.0" name="topright"/>
  <outline>
    <contour>
      <point x="299.0" y="-11.0" type="curve" smooth="yes"/>
      <point x="439.0" y="-11.0"/>
      <point x="533.0" y="57.334"/>
      <point x="557.0" y="120.0" type="curve"/>
      <point x="519.0" y="108.0" type="line"/>
      <point x="531.0" y="0.0" type="line"/>
      <point x="717.0" y="0.0" type="line"/>
      <point x="717.0" y="535.0" type="line"/>
      <point x="514.0" y="535.0" type="line"/>
      <point x="514.0" y="287.0" type="line" smooth="yes"/>
      <point x="514.0" y="211.0"/>
      <point x="449.333" y="167.0"/>
      <point x="376.0" y="167.0" type="curve" smooth="yes"/>
      <point x="292.0" y="167.0"/>
      <point x="263.0" y="204.0"/>
      <point x="263.0" y="292.0" type="curve" smooth="yes"/>
      <point x="263.0" y="535.0" type="line"/>
      <point x="60.0" y="535.0" type="line"/>
      <point x="60.0" y="265.0" type="line" smooth="yes"/>
      <point x="60.0" y="86.333"/>
      <point x="151.0" y="-11.0"/>
    </contour>
  </outline>
</glyph>
<glyph name="v" format="2">
  <advance width="799"/>
  <unicode hex="0076"/>
  <anchor x="400.0" y="0" name="bottom"/>
  <anchor x="400.0" y="535.0" name="top"/>
  <outline>
    <contour>
      <point x="303.0" y="0.0" type="line"/>
      <point x="487.0" y="0.0" type="line"/>
      <point x="794.0" y="535.0" type="line"/>
      <point x="558.0" y="535.0" type="line"/>
      <point x="368.0" y="134.0" type="line"/>
      <point x="432.0" y="134.0" type="line"/>
      <point x="241.0" y="535.0" type="line"/>
      <point x="5.0" y="535.0" type="line"/>
    </contour>
  </outline>
</glyph>
<glyph name="w" format="2">
  <advance width="979"/>
  <unicode hex="0077"/>
  <anchor x="490" y="0" name="bottom"/>
  <anchor x="490" y="535" name="top"/>
  <outline>
    <contour>
      <point x="207" y="0" type="line"/>
      <point x="371" y="0" type="line"/>
      <point x="528" y="350" type="line"/>
      <point x="456" y="350" type="line"/>
      <point x="607" y="0" type="line"/>
      <point x="771" y="0" type="line"/>
      <point x="974" y="535" type="line"/>
      <point x="754" y="535" type="line"/>
      <point x="666" y="217" type="line"/>
      <point x="686" y="218" type="line"/>
      <point x="554" y="480" type="line"/>
      <point x="420" y="480" type="line"/>
      <point x="300" y="218" type="line"/>
      <point x="320" y="216" type="line"/>
      <point x="217" y="535" type="line"/>
      <point x="5" y="535" type="line"/>
    </contour>
  </outline>
</glyph>
<glyph name="x" format="2">
  <advance width="798"/>
  <unicode hex="0078"/>
  <anchor x="400.0" y="0" name="bottom"/>
  <anchor x="400.0" y="535.0" name="top"/>
  <outline>
    <contour>
      <point x="515" y="0" type="line"/>
      <point x="778" y="0" type="line"/>
      <point x="482" y="328" type="line"/>
      <point x="451" y="363" type="line"/>
      <point x="311" y="535" type="line"/>
      <point x="48" y="535" type="line"/>
      <point x="313" y="242" type="line"/>
      <point x="340" y="212" type="line"/>
    </contour>
    <contour>
      <point x="19.0" y="0.0" type="line"/>
      <point x="281.0" y="0.0" type="line"/>
      <point x="443.0" y="205.0" type="line"/>
      <point x="298.0" y="319.0" type="line"/>
    </contour>
    <contour>
      <point x="505.0" y="216.0" type="line"/>
      <point x="784.0" y="535.0" type="line"/>
      <point x="522.0" y="535.0" type="line"/>
      <point x="360.0" y="330.0" type="line"/>
    </contour>
  </outline>
</glyph>
<glyph name="y" format="2">
  <advance width="801"/>
  <unicode hex="0079"/>
  <anchor x="627.0" y="0" name="bottom"/>
  <anchor x="401.0" y="535.0" name="top"/>
  <outline>
    <contour>
      <point x="154.0" y="-230.0" type="line"/>
      <point x="363.0" y="-230.0" type="line"/>
      <point x="493.0" y="-6.0" type="line"/>
      <point x="816.0" y="535.0" type="line"/>
      <point x="582.0" y="535.0" type="line"/>
      <point x="434.0" y="243.0" type="line" smooth="yes"/>
      <point x="422" y="220"/>
      <point x="399.0" y="172.0"/>
      <point x="382.0" y="134.0" type="curve"/>
      <point x="446.0" y="134.0" type="line"/>
      <point x="423.0" y="185.0"/>
      <point x="404" y="223"/>
      <point x="394.0" y="243.0" type="curve" smooth="yes"/>
      <point x="245.0" y="535.0" type="line"/>
      <point x="5.0" y="535.0" type="line"/>
      <point x="318.0" y="5.0" type="line"/>
      <point x="337.0" y="83.0" type="line"/>
    </contour>
  </outline>
</glyph>
<glyph name="z" format="2">
  <advance width="739"/>
  <unicode hex="007A"/>
  <anchor x="370.0" y="0" name="bottom"/>
  <anchor x="370.0" y="268.0" name="center"/>
  <anchor x="370.0" y="535.0" name="top"/>
  <outline>
    <contour>
      <point x="50.0" y="0.0" type="line"/>
      <point x="683.0" y="0.0" type="line"/>
      <point x="683.0" y="157.0" type="line"/>
      <point x="252.0" y="157.0" type="line"/>
      <point x="272.0" y="84.0" type="line"/>
      <point x="673.0" y="431.0" type="line"/>
      <point x="673.0" y="535.0" type="line"/>
      <point x="50.0" y="535.0" type="line"/>
      <point x="50.0" y="378.0" type="line"/>
      <point x="491.0" y="378.0" type="line"/>
      <point x="474.0" y="458.0" type="line"/>
      <point x="50.0" y="96.0" type="line"/>
    </contour>
  </outline>
</glyph>
<glyph name="braceleft" format="2">
  <advance width="578"/>
  <unicode hex="007B"/>
  <outline>
    <contour>
      <point x="500" y="-210" type="curve"/>
      <point x="548" y="-36" type="line"/>
      <point x="465.019" y="-22.45"/>
      <point x="399" y="-22.294"/>
      <point x="401" y="42" type="curve" smooth="yes"/>
      <point x="403" y="102" type="line" smooth="yes"/>
      <point x="405" y="182"/>
      <point x="337" y="232.667"/>
      <point x="189" y="262" type="curve"/>
      <point x="189" y="239" type="line"/>
      <point x="337" y="265.667"/>
      <point x="405" y="318"/>
      <point x="403" y="398" type="curve" smooth="yes"/>
      <point x="401" y="458" type="line" smooth="yes"/>
      <point x="399" y="525.892"/>
      <point x="471.648" y="538.105"/>
      <point x="548" y="546" type="curve"/>
      <point x="500" y="710" type="line"/>
      <point x="290.07" y="677.582"/>
      <point x="196" y="614"/>
      <point x="197" y="507" type="curve" smooth="yes"/>
      <point x="198" y="412" type="line" smooth="yes"/>
      <point x="199" y="361.667"/>
      <point x="157.001" y="335.948"/>
      <point x="75" y="336" type="curve" smooth="yes"/>
      <point x="35" y="336" type="line"/>
      <point x="35" y="157" type="line"/>
      <point x="73" y="157" type="line" smooth="yes"/>
      <point x="155.053" y="157.05"/>
      <point x="199" y="145.334"/>
      <point x="198" y="88" type="curve" smooth="yes"/>
      <point x="197" y="-7" type="line" smooth="yes"/>
      <point x="196" y="-138"/>
      <point x="337.743" y="-189.282"/>
    </contour>
  </outline>
</glyph>
<glyph name="bar" format="2">
  <advance width="403"/>
  <unicode hex="007C"/>
  <outline>
    <contour>
      <point x="95.0" y="-193.0" type="line"/>
      <point x="308.0" y="-193.0" type="line"/>
      <point x="308.0" y="740.0" type="line"/>
      <point x="95.0" y="740.0" type="line"/>
    </contour>
  </outline>
</glyph>
<glyph name="braceright" format="2">
  <advance width="578"/>
  <unicode hex="007D"/>
  <outline>
    <contour>
      <point x="78.0" y="-210.0" type="line"/>
      <point x="288.0" y="-178.0"/>
      <point x="382.0" y="-114.0"/>
      <point x="381.0" y="-7.0" type="curve" smooth="yes"/>
      <point x="380.0" y="88.0" type="line" smooth="yes"/>
      <point x="379.0" y="138.0"/>
      <point x="421.0" y="164.0"/>
      <point x="503.0" y="164.0" type="curve" smooth="yes"/>
      <point x="543.0" y="164.0" type="line"/>
      <point x="543.0" y="343.0" type="line"/>
      <point x="505.0" y="343.0" type="line" smooth="yes"/>
      <point x="423.0" y="343.0"/>
      <point x="379.0" y="354.0"/>
      <point x="380.0" y="412.0" type="curve" smooth="yes"/>
      <point x="381.0" y="507.0" type="line" smooth="yes"/>
      <point x="382.0" y="638.0"/>
      <point x="240.0" y="690.0"/>
      <point x="78.0" y="710.0" type="curve"/>
      <point x="30.0" y="536.0" type="line"/>
      <point x="113.0" y="522.0"/>
      <point x="179.0" y="523.0"/>
      <point x="177.0" y="458.0" type="curve" smooth="yes"/>
      <point x="175.0" y="398.0" type="line" smooth="yes"/>
      <point x="173.0" y="318.0"/>
      <point x="241.0" y="267.0"/>
      <point x="389.0" y="238.0" type="curve"/>
      <point x="389.0" y="261.0" type="line"/>
      <point x="241.0" y="234.0"/>
      <point x="173.0" y="182.0"/>
      <point x="175.0" y="102.0" type="curve" smooth="yes"/>
      <point x="177.0" y="42.0" type="line" smooth="yes"/>
      <point x="179.0" y="-26.0"/>
      <point x="107.0" y="-38.0"/>
      <point x="30.0" y="-46.0" type="curve"/>
    </contour>
  </outline>
</glyph>
<glyph name="asciitilde" format="2">
  <advance width="783"/>
  <unicode hex="007E"/>
  <outline>
    <contour>
      <point x="533.0" y="237.0" type="curve" smooth="yes"/>
      <point x="681.0" y="237.0"/>
      <point x="753.0" y="363.753"/>
      <point x="753.0" y="525.0" type="curve"/>
      <point x="588.0" y="520.0" type="line"/>
      <point x="589.333" y="461.33399999999995"/>
      <point x="560.999" y="421.0"/>
      <point x="516.0" y="421.0" type="curve" smooth="yes"/>
      <point x="473.0" y="421.0"/>
      <point x="439.333" y="442.33399999999995"/>
      <point x="395.0" y="463.0" type="curve" smooth="yes"/>
      <point x="345.667" y="485.333"/>
      <point x="301.0" y="503.0"/>
      <point x="244.0" y="503.0" type="curve" smooth="yes"/>
      <point x="95.875" y="503.0"/>
      <point x="26.0" y="399.0"/>
      <point x="26.0" y="235.0" type="curve"/>
      <point x="191.0" y="240.0" type="line"/>
      <point x="188.333" y="288.0"/>
      <point x="230.072" y="318.0"/>
      <point x="270.0" y="318.0" type="curve" smooth="yes"/>
      <point x="307.0" y="318.0"/>
      <point x="339.0" y="301.33399999999995"/>
      <point x="388.0" y="280.0" type="curve" smooth="yes"/>
      <point x="448.0" y="251.33300000000003"/>
      <point x="482.667" y="237.0"/>
    </contour>
  </outline>
</glyph>
<glyph name="cent" format="2">
  <advance width="733"/>
  <unicode hex="00A2"/>
  <outline>
    <contour>
      <point x="411" y="78" type="curve" smooth="yes"/>
      <point x="547" y="78"/>
      <point x="640.667" y="106"/>
      <point x="722" y="146" type="curve"/>
      <point x="614" y="287" type="line"/>
      <point x="578" y="280.334"/>
      <point x="523" y="252"/>
      <point x="419" y="252" type="curve" smooth="yes"/>
      <point x="320.334" y="252"/>
      <point x="260" y="294.333"/>
      <point x="260" y="357" type="curve" smooth="yes"/>
      <point x="260" y="419.666"/>
      <point x="319" y="461"/>
      <point x="419" y="461" type="curve" smooth="yes"/>
      <point x="501.666" y="461"/>
      <point x="566.666" y="437.333"/>
      <point x="612" y="408" type="curve"/>
      <point x="723" y="552" type="line"/>
      <point x="652.333" y="606.667"/>
      <point x="536.334" y="634"/>
      <point x="411" y="634" type="curve" smooth="yes"/>
      <point x="204.333" y="634"/>
      <point x="50" y="517.333"/>
      <point x="50" y="356" type="curve" smooth="yes"/>
      <point x="50" y="194.667"/>
      <point x="204.333" y="78"/>
    </contour>
    <contour>
      <point x="358" y="0" type="line"/>
      <point x="515" y="0" type="line"/>
      <point x="515" y="107" type="line"/>
      <point x="482" y="145" type="line"/>
      <point x="482" y="550" type="line"/>
      <point x="515" y="605" type="line"/>
      <point x="515" y="710" type="line"/>
      <point x="358" y="710" type="line"/>
      <point x="358" y="606" type="line"/>
      <point x="398" y="550" type="line"/>
      <point x="398" y="146" type="line"/>
      <point x="358" y="108" type="line"/>
    </contour>
  </outline>
</glyph>
<glyph name="sterling" format="2">
  <advance width="799"/>
  <unicode hex="00A3"/>
  <outline>
    <contour>
      <point x="194.0" y="53.0" type="line"/>
      <point x="293" y="101"/>
      <point x="353.0" y="152"/>
      <point x="353.0" y="232.0" type="curve" smooth="yes"/>
      <point x="353.0" y="258"/>
      <point x="345.0" y="298"/>
      <point x="326.0" y="354.0" type="curve" smooth="yes"/>
      <point x="312.0" y="399.0"/>
      <point x="304.0" y="426.0"/>
      <point x="304.0" y="466.0" type="curve" smooth="yes"/>
      <point x="304.0" y="513.0"/>
      <point x="352.0" y="542.0"/>
      <point x="430.0" y="542.0" type="curve" smooth="yes"/>
      <point x="488.0" y="542.0"/>
      <point x="533.0" y="523.0"/>
      <point x="564.0" y="487.0" type="curve"/>
      <point x="719.0" y="605.0" type="line"/>
      <point x="678" y="669"/>
      <point x="585" y="720.0"/>
      <point x="440.0" y="720.0" type="curve" smooth="yes"/>
      <point x="232.0" y="720.0"/>
      <point x="104.0" y="625"/>
      <point x="104.0" y="487.0" type="curve" smooth="yes"/>
      <point x="104.0" y="442.0"/>
      <point x="118.0" y="398.0"/>
      <point x="133.0" y="351.0" type="curve" smooth="yes"/>
      <point x="134" y="346"/>
      <point x="175.0" y="245"/>
      <point x="175.0" y="192.0" type="curve" smooth="yes"/>
      <point x="175.0" y="147"/>
      <point x="140" y="95.0"/>
      <point x="102.0" y="74.0" type="curve"/>
    </contour>
    <contour>
      <point x="606.0" y="-21.0" type="curve" smooth="yes"/>
      <point x="657" y="-21.0"/>
      <point x="734" y="10.0"/>
      <point x="784.0" y="67.0" type="curve"/>
      <point x="696.0" y="218.0" type="line"/>
      <point x="670" y="193.0"/>
      <point x="628" y="163.0"/>
      <point x="594.0" y="163.0" type="curve" smooth="yes"/>
      <point x="532.0" y="163.0"/>
      <point x="479.0" y="178.0"/>
      <point x="424.0" y="194.0" type="curve" smooth="yes"/>
      <point x="365" y="211.0"/>
      <point x="302" y="230.0"/>
      <point x="237.0" y="230.0" type="curve" smooth="yes"/>
      <point x="148.0" y="230.0"/>
      <point x="75.0" y="197"/>
      <point x="14.0" y="146.0" type="curve"/>
      <point x="84.0" y="-16.0" type="line"/>
      <point x="116" y="10.0"/>
      <point x="163" y="46.0"/>
      <point x="220.0" y="46.0" type="curve" smooth="yes"/>
      <point x="280.0" y="46.0"/>
      <point x="336.0" y="28.0"/>
      <point x="403.0" y="12.0" type="curve" smooth="yes"/>
      <point x="466.0" y="-4.0"/>
      <point x="531.0" y="-21.0"/>
    </contour>
    <contour>
      <point x="44.0" y="272.0" type="line"/>
      <point x="622.0" y="272.0" type="line"/>
      <point x="622.0" y="389.0" type="line"/>
      <point x="44.0" y="389.0" type="line"/>
    </contour>
  </outline>
</glyph>
<glyph name="currency" format="2">
  <advance width="568"/>
  <unicode hex="00A4"/>
  <outline>
    <contour>
      <point x="284.0" y="90.0" type="curve" smooth="yes"/>
      <point x="422.66600000000005" y="90.0"/>
      <point x="523.0" y="181.334"/>
      <point x="523.0" y="308.0" type="curve" smooth="yes"/>
      <point x="523.0" y="434.66600000000005"/>
      <point x="424.0" y="526.0"/>
      <point x="284.0" y="526.0" type="curve" smooth="yes"/>
      <point x="144.0" y="526.0"/>
      <point x="43.0" y="433.333"/>
      <point x="43.0" y="308.0" type="curve" smooth="yes"/>
      <point x="43.0" y="181.334"/>
      <point x="144.0" y="90.0"/>
    </contour>
    <contour>
      <point x="132.0" y="44.0" type="line"/>
      <point x="212.0" y="124.0" type="line"/>
      <point x="95.0" y="248.0" type="line"/>
      <point x="12.0" y="165.0" type="line"/>
    </contour>
    <contour>
      <point x="86.0" y="379.0" type="line"/>
      <point x="210.0" y="495.0" type="line"/>
      <point x="132.0" y="573.0" type="line"/>
      <point x="12.0" y="453.0" type="line"/>
    </contour>
    <contour>
      <point x="284.0" y="240.0" type="curve" smooth="yes"/>
      <point x="245.334" y="240.0"/>
      <point x="218.0" y="269.33299999999997"/>
      <point x="218.0" y="308.0" type="curve" smooth="yes"/>
      <point x="218.0" y="346.667"/>
      <point x="245.334" y="377.0"/>
      <point x="284.0" y="377.0" type="curve" smooth="yes"/>
      <point x="322.667" y="377.0"/>
      <point x="348.0" y="346.667"/>
      <point x="348.0" y="308.0" type="curve" smooth="yes"/>
      <point x="348.0" y="269.33299999999997"/>
      <point x="322.667" y="240.0"/>
    </contour>
    <contour>
      <point x="440.0" y="44.0" type="line"/>
      <point x="560.0" y="165.0" type="line"/>
      <point x="477.0" y="247.0" type="line"/>
      <point x="360.0" y="124.0" type="line"/>
    </contour>
    <contour>
      <point x="469.0" y="362.0" type="line"/>
      <point x="560.0" y="453.0" type="line"/>
      <point x="440.0" y="573.0" type="line"/>
      <point x="349.0" y="481.0" type="line"/>
    </contour>
  </outline>
</glyph>
<glyph name="yen" format="2">
  <advance width="870"/>
  <unicode hex="00A5"/>
  <outline>
    <contour>
      <point x="336.0" y="0.0" type="line"/>
      <point x="554.0" y="0.0" type="line"/>
      <point x="554.0" y="321.0" type="line"/>
      <point x="549.0" y="263.0" type="line"/>
      <point x="890.0" y="700.0" type="line"/>
      <point x="646.0" y="700.0" type="line"/>
      <point x="380.0" y="347.0" type="line"/>
      <point x="513.0" y="347.0" type="line"/>
      <point x="240.0" y="700.0" type="line"/>
      <point x="-20.0" y="700.0" type="line"/>
      <point x="356.0" y="236.0" type="line"/>
      <point x="336.0" y="313.0" type="line"/>
    </contour>
    <contour>
      <point x="179.0" y="133.0" type="line"/>
      <point x="711.0" y="133.0" type="line"/>
      <point x="711.0" y="208.0" type="line"/>
      <point x="179.0" y="208.0" type="line"/>
    </contour>
    <contour>
      <point x="179.0" y="258.0" type="line"/>
      <point x="711.0" y="258.0" type="line"/>
      <point x="711.0" y="333.0" type="line"/>
      <point x="179.0" y="333.0" type="line"/>
    </contour>
  </outline>
</glyph>
<glyph name="brokenbar" format="2">
  <advance width="407"/>
  <unicode hex="00A6"/>
  <outline>
    <contour>
      <point x="95.0" y="-202.0" type="line"/>
      <point x="312.0" y="-202.0" type="line"/>
      <point x="312.0" y="188.0" type="line"/>
      <point x="95.0" y="188.0" type="line"/>
    </contour>
    <contour>
      <point x="95.0" y="351.0" type="line"/>
      <point x="312.0" y="351.0" type="line"/>
      <point x="312.0" y="740.0" type="line"/>
      <point x="95.0" y="740.0" type="line"/>
    </contour>
  </outline>
</glyph>
<glyph name="section" format="2">
  <advance width="719"/>
  <unicode hex="00A7"/>
  <outline>
    <contour>
      <point x="508.0" y="116.0" type="line"/>
      <point x="640.0" y="131.0"/>
      <point x="686.0" y="216.0"/>
      <point x="686.0" y="273.0" type="curve" smooth="yes"/>
      <point x="686.0" y="370.0"/>
      <point x="628" y="434"/>
      <point x="512.0" y="460.0" type="curve" smooth="yes"/>
      <point x="339.0" y="499.0" type="line" smooth="yes"/>
      <point x="266" y="515"/>
      <point x="257" y="528"/>
      <point x="257.0" y="541" type="curve" smooth="yes"/>
      <point x="257.0" y="561"/>
      <point x="278" y="569.0"/>
      <point x="329" y="569.0" type="curve" smooth="yes"/>
      <point x="400" y="569"/>
      <point x="512" y="547.0"/>
      <point x="609.0" y="479.0" type="curve"/>
      <point x="719.0" y="615.0" type="line"/>
      <point x="641" y="673.0"/>
      <point x="487" y="720.0"/>
      <point x="330.0" y="720.0" type="curve" smooth="yes"/>
      <point x="112.0" y="720.0"/>
      <point x="43" y="622"/>
      <point x="43" y="534" type="curve" smooth="yes"/>
      <point x="43" y="430"/>
      <point x="139" y="369"/>
      <point x="289.0" y="342.0" type="curve" smooth="yes"/>
      <point x="400.0" y="322.0" type="line" smooth="yes"/>
      <point x="441" y="315"/>
      <point x="486.0" y="297"/>
      <point x="486.0" y="258.0" type="curve" smooth="yes"/>
      <point x="486.0" y="217.0"/>
      <point x="454.0" y="200.0"/>
      <point x="411.0" y="193.0" type="curve"/>
    </contour>
    <contour>
      <point x="372.0" y="-182.0" type="curve" smooth="yes"/>
      <point x="586.0" y="-182.0"/>
      <point x="676.0" y="-85.0"/>
      <point x="676.0" y="12.0" type="curve" smooth="yes"/>
      <point x="676.0" y="111.0"/>
      <point x="623" y="151"/>
      <point x="432.0" y="193.0" type="curve" smooth="yes"/>
      <point x="287.0" y="225.0" type="line" smooth="yes"/>
      <point x="255" y="232"/>
      <point x="216.0" y="246.0"/>
      <point x="216.0" y="284.0" type="curve" smooth="yes"/>
      <point x="216.0" y="324.0"/>
      <point x="250.0" y="338.0"/>
      <point x="318.0" y="346.0" type="curve"/>
      <point x="219.0" y="415.0" type="line"/>
      <point x="86.0" y="396.0"/>
      <point x="25.0" y="332.0"/>
      <point x="25" y="247" type="curve" smooth="yes"/>
      <point x="25" y="163"/>
      <point x="87" y="102"/>
      <point x="208.0" y="75.0" type="curve" smooth="yes"/>
      <point x="339.0" y="46.0" type="line" smooth="yes"/>
      <point x="437" y="24"/>
      <point x="465.0" y="18"/>
      <point x="465.0" y="-1" type="curve" smooth="yes"/>
      <point x="465" y="-19"/>
      <point x="436" y="-32"/>
      <point x="374" y="-32" type="curve" smooth="yes"/>
      <point x="298" y="-32"/>
      <point x="222.0" y="-20.0"/>
      <point x="134.0" y="44.0" type="curve"/>
      <point x="21.0" y="-84.0" type="line"/>
      <point x="91.0" y="-145.0"/>
      <point x="217.0" y="-182.0"/>
    </contour>
  </outline>
</glyph>
<glyph name="copyright" format="2">
  <advance width="814"/>
  <unicode hex="00A9"/>
  <outline>
    <contour>
      <point x="406.0" y="-37.0" type="curve" smooth="yes"/>
      <point x="618.0" y="-37.0"/>
      <point x="793.0" y="132.667"/>
      <point x="793.0" y="350.0" type="curve" smooth="yes"/>
      <point x="793.0" y="567.333"/>
      <point x="618.0" y="737.0"/>
      <point x="406.0" y="737.0" type="curve" smooth="yes"/>
      <point x="192.667" y="737.0"/>
      <point x="19.0" y="567.333"/>
      <point x="19.0" y="350.0" type="curve" smooth="yes"/>
      <point x="19.0" y="132.667"/>
      <point x="192.667" y="-37.0"/>
    </contour>
    <contour>
      <point x="420.0" y="144.0" type="curve" smooth="yes"/>
      <point x="469.333" y="144.0"/>
      <point x="518.667" y="157.0"/>
      <point x="564.0" y="189.0" type="curve"/>
      <point x="504.0" y="318.0" type="line"/>
      <point x="485.333" y="303.33299999999997"/>
      <point x="460.9990000000001" y="296.0"/>
      <point x="441.0" y="296.0" type="curve" smooth="yes"/>
      <point x="411.667" y="296.0"/>
      <point x="384.0" y="315.667"/>
      <point x="384.0" y="349.0" type="curve" smooth="yes"/>
      <point x="384.0" y="376.9990000000001"/>
      <point x="407.667" y="401.0"/>
      <point x="441.0" y="401.0" type="curve" smooth="yes"/>
      <point x="466.333" y="401.0"/>
      <point x="491.333" y="387.0"/>
      <point x="502.0" y="379.0" type="curve"/>
      <point x="560.0" y="506.0" type="line"/>
      <point x="516.001" y="538.0"/>
      <point x="469.333" y="557.0"/>
      <point x="420.0" y="557.0" type="curve" smooth="yes"/>
      <point x="302.667" y="557.0"/>
      <point x="209.0" y="461.0"/>
      <point x="209.0" y="349.0" type="curve" smooth="yes"/>
      <point x="209.0" y="225.0"/>
      <point x="310.667" y="144.0"/>
    </contour>
    <contour>
      <point x="406.0" y="47.0" type="curve" smooth="yes"/>
      <point x="239.333" y="47.0"/>
      <point x="103.0" y="180.447"/>
      <point x="103.0" y="350.0" type="curve" smooth="yes"/>
      <point x="103.0" y="519.333"/>
      <point x="240.666" y="653.0"/>
      <point x="406.0" y="653.0" type="curve" smooth="yes"/>
      <point x="571.3340000000001" y="653.0"/>
      <point x="709.0" y="519.333"/>
      <point x="709.0" y="350.0" type="curve" smooth="yes"/>
      <point x="709.0" y="180.666"/>
      <point x="571.3340000000001" y="47.0"/>
    </contour>
  </outline>
</glyph>
<glyph name="ordfeminine" format="2">
  <advance width="410"/>
  <unicode hex="00AA"/>
  <outline>
    <contour>
      <point x="137.0" y="390.0" type="curve" smooth="yes"/>
      <point x="230.333" y="390.0"/>
      <point x="262.0" y="455.33399999999995"/>
      <point x="262.0" y="502.0" type="curve"/>
      <point x="237.0" y="474.0" type="line"/>
      <point x="237.0" y="401.0" type="line"/>
      <point x="370.0" y="401.0" type="line"/>
      <point x="370.0" y="715.0" type="line"/>
      <point x="237.0" y="715.0" type="line"/>
      <point x="237.0" y="648.0" type="line"/>
      <point x="262.0" y="602.0" type="line"/>
      <point x="262.0" y="683.333"/>
      <point x="225.0" y="722.0"/>
      <point x="149.0" y="722.0" type="curve" smooth="yes"/>
      <point x="70.334" y="722.0"/>
      <point x="20.0" y="650.0"/>
      <point x="20.0" y="562.0" type="curve" smooth="yes"/>
      <point x="20.0" y="470.0"/>
      <point x="58.334" y="390.0"/>
    </contour>
    <contour>
      <point x="196.0" y="498.0" type="curve" smooth="yes"/>
      <point x="162.667" y="498.0"/>
      <point x="151.0" y="528.3340000000001"/>
      <point x="151.0" y="559.0" type="curve" smooth="yes"/>
      <point x="151.0" y="589.667"/>
      <point x="169.667" y="614.0"/>
      <point x="195.0" y="614.0" type="curve" smooth="yes"/>
      <point x="224.333" y="614.0"/>
      <point x="241.0" y="592.667"/>
      <point x="241.0" y="558.0" type="curve" smooth="yes"/>
      <point x="241.0" y="519.334"/>
      <point x="220.0" y="498.0"/>
    </contour>
  </outline>
</glyph>
<glyph name="logicalnot" format="2">
  <advance width="820"/>
  <unicode hex="00AC"/>
  <outline>
    <contour>
      <point x="580.0" y="97.0" type="line"/>
      <point x="785.0" y="97.0" type="line"/>
      <point x="785.0" y="424.0" type="line"/>
      <point x="35.0" y="424.0" type="line"/>
      <point x="35.0" y="229.0" type="line"/>
      <point x="679.0" y="229.0" type="line"/>
      <point x="580.0" y="319.0" type="line"/>
    </contour>
  </outline>
</glyph>
<glyph name="registered" format="2">
  <advance width="507"/>
  <unicode hex="00AE"/>
  <outline>
    <contour>
      <point x="260.0" y="219.0" type="curve" smooth="yes"/>
      <point x="400.0" y="219.0"/>
      <point x="519.0" y="336.0"/>
      <point x="519.0" y="484.0" type="curve" smooth="yes"/>
      <point x="519.0" y="630.667"/>
      <point x="400.0" y="749.0"/>
      <point x="260.0" y="749.0" type="curve" smooth="yes"/>
      <point x="110.667" y="749.0"/>
      <point x="-10.0" y="630.667"/>
      <point x="-10.0" y="484.0" type="curve" smooth="yes"/>
      <point x="-10.0" y="336.0"/>
      <point x="110.666" y="219.0"/>
    </contour>
    <contour>
      <point x="260.0" y="283.0" type="curve" smooth="yes"/>
      <point x="147.822" y="283.0"/>
      <point x="54.0" y="370.667"/>
      <point x="54.0" y="484.0" type="curve" smooth="yes"/>
      <point x="54.0" y="596.251"/>
      <point x="148.0" y="685.0"/>
      <point x="260.0" y="685.0" type="curve" smooth="yes"/>
      <point x="365.33399999999995" y="685.0"/>
      <point x="455.0" y="596.251"/>
      <point x="455.0" y="484.0" type="curve" smooth="yes"/>
      <point x="455.0" y="372.0"/>
      <point x="365.47799999999995" y="283.0"/>
    </contour>
    <contour>
      <point x="294.0" y="367.0" type="line"/>
      <point x="399.0" y="367.0" type="line"/>
      <point x="336.0" y="466.0" type="line"/>
      <point x="257.0" y="447.0" type="line"/>
    </contour>
    <contour>
      <point x="149.0" y="367.0" type="line"/>
      <point x="246.0" y="367.0" type="line"/>
      <point x="246.0" y="460.0" type="line"/>
      <point x="235.0" y="446.0" type="line"/>
      <point x="279.0" y="446.0" type="line" smooth="yes"/>
      <point x="324.33399999999995" y="446.0"/>
      <point x="373.0" y="472.33399999999995"/>
      <point x="373.0" y="527.0" type="curve" smooth="yes"/>
      <point x="373.0" y="575.0"/>
      <point x="332.333" y="606.0"/>
      <point x="279.0" y="606.0" type="curve" smooth="yes"/>
      <point x="149.0" y="606.0" type="line"/>
    </contour>
    <contour>
      <point x="246.0" y="495.0" type="line"/>
      <point x="246.0" y="544.0" type="line"/>
      <point x="235.0" y="536.0" type="line"/>
      <point x="261.0" y="536.0" type="line" smooth="yes"/>
      <point x="269.0" y="536.0"/>
      <point x="278.0" y="531.0010000000001"/>
      <point x="278.0" y="519.0" type="curve" smooth="yes"/>
      <point x="278.0" y="508.333"/>
      <point x="268.333" y="502.0"/>
      <point x="259.0" y="502.0" type="curve" smooth="yes"/>
      <point x="235.0" y="502.0" type="line"/>
    </contour>
  </outline>
</glyph>
<glyph name="plusminus" format="2">
  <advance width="754"/>
  <unicode hex="00B1"/>
  <outline>
    <contour>
      <point x="80.0" y="333.0" type="line"/>
      <point x="671.0" y="333.0" type="line"/>
      <point x="671.0" y="493.0" type="line"/>
      <point x="80.0" y="493.0" type="line"/>
    </contour>
    <contour>
      <point x="83.0" y="-10.0" type="line"/>
      <point x="674.0" y="-10.0" type="line"/>
      <point x="674.0" y="150.0" type="line"/>
      <point x="83.0" y="150.0" type="line"/>
    </contour>
    <contour>
      <point x="281.0" y="214.0" type="line"/>
      <point x="466.0" y="214.0" type="line"/>
      <point x="466.0" y="607.0" type="line"/>
      <point x="281.0" y="607.0" type="line"/>
    </contour>
  </outline>
</glyph>
<glyph name="micro" format="2">
  <advance width="839"/>
  <unicode hex="00B5"/>
  <outline>
    <contour>
      <point x="71.0" y="-165.0" type="line"/>
      <point x="293.0" y="-165.0" type="line"/>
      <point x="283.0" y="69.0" type="line"/>
      <point x="263.0" y="-13.0" type="line"/>
      <point x="278.33299999999997" y="-18.333"/>
      <point x="311.5" y="-12.833"/>
      <point x="331.0" y="-12.0" type="curve" smooth="yes"/>
      <point x="481.667" y="-4.0"/>
      <point x="532.0" y="48.667"/>
      <point x="600.0" y="129.0" type="curve"/>
      <point x="550.0" y="72.0" type="line"/>
      <point x="561.0" y="0.0" type="line"/>
      <point x="767.0" y="0.0" type="line"/>
      <point x="767.0" y="535.0" type="line"/>
      <point x="544.0" y="535.0" type="line"/>
      <point x="544.0" y="247.0" type="line" smooth="yes"/>
      <point x="544.0" y="207.0"/>
      <point x="490.0" y="170.0"/>
      <point x="406.0" y="170.0" type="curve" smooth="yes"/>
      <point x="320.66700000000003" y="170.0"/>
      <point x="293.0" y="210.0"/>
      <point x="293.0" y="238.0" type="curve" smooth="yes"/>
      <point x="293.0" y="535.0" type="line"/>
      <point x="70.0" y="535.0" type="line"/>
    </contour>
  </outline>
</glyph>
<glyph name="paragraph" format="2">
  <advance width="961"/>
  <unicode hex="00B6"/>
  <outline>
    <contour>
      <point x="318.0" y="0.0" type="line"/>
      <point x="546.0" y="0.0" type="line"/>
      <point x="546.0" y="652.0" type="line"/>
      <point x="422.0" y="581.0" type="line"/>
      <point x="729.0" y="581.0" type="line"/>
      <point x="653.0" y="660.0" type="line"/>
      <point x="653.0" y="0.0" type="line"/>
      <point x="881.0" y="0.0" type="line"/>
      <point x="881.0" y="700.0" type="line"/>
      <point x="335.0" y="700.0" type="line" smooth="yes"/>
      <point x="133.667" y="700.0"/>
      <point x="40.0" y="617.0"/>
      <point x="40.0" y="481.0" type="curve" smooth="yes"/>
      <point x="40.0" y="354.333"/>
      <point x="124.667" y="269.0"/>
      <point x="298.0" y="269.0" type="curve" smooth="yes"/>
      <point x="382.0" y="269.0" type="line"/>
      <point x="318.0" y="314.0" type="line"/>
    </contour>
  </outline>
</glyph>
<glyph name="ordmasculine" format="2">
  <advance width="434"/>
  <unicode hex="00BA"/>
  <outline>
    <contour>
      <point x="216.0" y="393.0" type="curve" smooth="yes"/>
      <point x="317.333" y="393.0"/>
      <point x="394.0" y="462.667"/>
      <point x="394.0" y="556.0" type="curve" smooth="yes"/>
      <point x="394.0" y="648.0"/>
      <point x="316.0" y="721.0"/>
      <point x="216.0" y="721.0" type="curve" smooth="yes"/>
      <point x="114.667" y="721.0"/>
      <point x="40.0" y="648.0"/>
      <point x="40.0" y="556.0" type="curve" smooth="yes"/>
      <point x="40.0" y="462.667"/>
      <point x="114.667" y="393.0"/>
    </contour>
    <contour>
      <point x="215.0" y="488.0" type="curve" smooth="yes"/>
      <point x="185.667" y="488.0"/>
      <point x="170.0" y="516.334"/>
      <point x="170.0" y="559.0" type="curve" smooth="yes"/>
      <point x="170.0" y="593.667"/>
      <point x="189.667" y="624.0"/>
      <point x="215.0" y="624.0" type="curve" smooth="yes"/>
      <point x="244.333" y="624.0"/>
      <point x="260.0" y="599.0"/>
      <point x="260.0" y="559.0" type="curve" smooth="yes"/>
      <point x="260.0" y="519.001"/>
      <point x="243.0" y="488.0"/>
    </contour>
  </outline>
</glyph>
<glyph name="AE" format="2">
  <advance width="1434"/>
  <unicode hex="00C6"/>
  <anchor x="717.0" y="0" name="bottom"/>
  <anchor x="998.0" y="700.0" name="top"/>
  <outline>
    <contour>
      <point x="-20.0" y="0.0" type="line"/>
      <point x="241.0" y="0.0" type="line"/>
      <point x="742.0" y="563.0" type="line"/>
      <point x="712.0" y="575.0" type="line"/>
      <point x="712.0" y="311.0" type="line"/>
      <point x="490.0" y="311.0" type="line"/>
      <point x="348.0" y="135.0" type="line"/>
      <point x="712.0" y="135.0" type="line"/>
      <point x="712.0" y="0.0" type="line"/>
      <point x="1387.0" y="0.0" type="line"/>
      <point x="1387.0" y="186.0" type="line"/>
      <point x="926.0" y="186.0" type="line"/>
      <point x="926.0" y="257.0" type="line"/>
      <point x="1342.0" y="257.0" type="line"/>
      <point x="1342.0" y="431.0" type="line"/>
      <point x="926.0" y="431.0" type="line"/>
      <point x="926.0" y="514.0" type="line"/>
      <point x="1387.0" y="514.0" type="line"/>
      <point x="1387.0" y="700.0" type="line"/>
      <point x="608.0" y="700.0" type="line"/>
    </contour>
  </outline>
</glyph>
<glyph name="Eth" format="2">
  <advance width="935"/>
  <unicode hex="00D0"/>
  <anchor x="468.0" y="0" name="bottom"/>
  <anchor x="240.0" y="350.0" name="center"/>
  <anchor x="468.0" y="700.0" name="top"/>
  <outline>
    <contour>
      <point x="-9.0" y="282.0" type="line"/>
      <point x="499.0" y="282.0" type="line"/>
      <point x="499.0" y="418.0" type="line"/>
      <point x="-9.0" y="418.0" type="line"/>
    </contour>
    <component base="D"/>
  </outline>
</glyph>
<glyph name="multiply" format="2">
  <advance width="690"/>
  <unicode hex="00D7"/>
  <outline>
    <contour>
      <point x="508" y="-38" type="line"/>
      <point x="650" y="105" type="line"/>
      <point x="182" y="571" type="line"/>
      <point x="40" y="430" type="line"/>
    </contour>
    <contour>
      <point x="183" y="-31" type="line"/>
      <point x="636" y="424" type="line"/>
      <point x="499" y="561" type="line"/>
      <point x="46" y="108" type="line"/>
    </contour>
  </outline>
</glyph>
<glyph name="Oslash" format="2">
  <advance width="1022"/>
  <unicode hex="00D8"/>
  <anchor x="519" y="0" name="bottom"/>
  <anchor x="519" y="700" name="top"/>
  <anchor x="516" y="350" name="center"/>
  <anchor x="895" y="10" name="ogonek"/>
  <anchor x="39" y="700" name="topleft"/>
  <anchor x="993" y="700" name="topright"/>
  <outline>
    <contour>
      <point x="137" y="-34" type="line"/>
      <point x="951" y="669" type="line"/>
      <point x="885" y="737" type="line"/>
      <point x="77" y="39" type="line"/>
    </contour>
    <component base="O" xOffset="19"/>
  </outline>
</glyph>
<glyph name="Thorn" format="2">
  <advance width="843"/>
  <unicode hex="00DE"/>
  <anchor x="422.0" y="0" name="bottom"/>
  <anchor x="422.0" y="700.0" name="top"/>
  <outline>
    <contour>
      <point x="80.0" y="0.0" type="line"/>
      <point x="296.0" y="0.0" type="line"/>
      <point x="296.0" y="108.0" type="line"/>
      <point x="516.0" y="108.0" type="line" smooth="yes"/>
      <point x="697.3340000000001" y="108.0"/>
      <point x="803.0" y="213.333"/>
      <point x="803.0" y="360.0" type="curve" smooth="yes"/>
      <point x="803.0" y="520.0"/>
      <point x="697.3340000000001" y="600.0"/>
      <point x="516.0" y="600.0" type="curve" smooth="yes"/>
      <point x="296.0" y="600.0" type="line"/>
      <point x="296.0" y="700.0" type="line"/>
      <point x="80.0" y="700.0" type="line"/>
    </contour>
    <contour>
      <point x="296.0" y="292.0" type="line"/>
      <point x="296.0" y="416.0" type="line"/>
      <point x="491.0" y="416.0" type="line" smooth="yes"/>
      <point x="539.001" y="416.0"/>
      <point x="576.0" y="397.333"/>
      <point x="576.0" y="356.0" type="curve" smooth="yes"/>
      <point x="576.0" y="313.333"/>
      <point x="539.001" y="292.0"/>
      <point x="491.0" y="292.0" type="curve" smooth="yes"/>
    </contour>
  </outline>
</glyph>
<glyph name="germandbls" format="2">
  <advance width="855"/>
  <unicode hex="00DF"/>
  <anchor x="428.0" y="0" name="bottom"/>
  <anchor x="428.0" y="535.0" name="top"/>
  <outline>
    <contour>
      <point x="563.0" y="-10.0" type="curve" smooth="yes"/>
      <point x="723" y="-10.0"/>
      <point x="845.0" y="80.0"/>
      <point x="845.0" y="208.0" type="curve" smooth="yes"/>
      <point x="845.0" y="336.0"/>
      <point x="715.0" y="400"/>
      <point x="580.0" y="432.0" type="curve"/>
      <point x="582.0" y="333.0" type="line"/>
      <point x="689" y="366.0"/>
      <point x="770.0" y="454"/>
      <point x="770.0" y="539.0" type="curve" smooth="yes"/>
      <point x="770.0" y="658.0"/>
      <point x="643" y="734.0"/>
      <point x="461.0" y="734.0" type="curve" smooth="yes"/>
      <point x="225" y="734.0"/>
      <point x="105.0" y="630.0"/>
      <point x="105.0" y="499.0" type="curve" smooth="yes"/>
      <point x="105.0" y="0.0" type="line"/>
      <point x="314.0" y="0.0" type="line"/>
      <point x="314.0" y="495.0" type="line" smooth="yes"/>
      <point x="314.0" y="535.0"/>
      <point x="373" y="565"/>
      <point x="453.0" y="565.0" type="curve" smooth="yes"/>
      <point x="525.0" y="565.0"/>
      <point x="560.0" y="535.0"/>
      <point x="560.0" y="491" type="curve" smooth="yes"/>
      <point x="560" y="430"/>
      <point x="473" y="402"/>
      <point x="457.0" y="402.0" type="curve"/>
      <point x="457.0" y="302.0" type="line"/>
      <point x="527" y="282"/>
      <point x="628.0" y="267"/>
      <point x="628.0" y="205" type="curve" smooth="yes"/>
      <point x="628.0" y="174"/>
      <point x="596.0" y="160"/>
      <point x="555.0" y="160" type="curve" smooth="yes"/>
      <point x="515.0" y="160"/>
      <point x="475.0" y="173"/>
      <point x="440.0" y="187" type="curve"/>
      <point x="379.0" y="29.0" type="line"/>
      <point x="421" y="12.0"/>
      <point x="482" y="-10.0"/>
    </contour>
    <contour>
      <point x="13.0" y="335.0" type="line"/>
      <point x="221.0" y="335.0" type="line"/>
      <point x="221.0" y="505.0" type="line"/>
      <point x="13.0" y="505.0" type="line"/>
    </contour>
  </outline>
</glyph>
<glyph name="ae" format="2">
  <advance width="1181"/>
  <unicode hex="00E6"/>
  <anchor x="591.0" y="0" name="bottom"/>
  <anchor x="602.0" y="535.0" name="top"/>
  <outline>
    <contour>
      <point x="283.0" y="-10.0" type="curve" smooth="yes"/>
      <point x="426.0" y="-10.0"/>
      <point x="532.0" y="58"/>
      <point x="565.0" y="96.0" type="curve"/>
      <point x="505.0" y="199" type="line"/>
      <point x="486.0" y="184"/>
      <point x="430.0" y="151"/>
      <point x="347.0" y="151" type="curve" smooth="yes"/>
      <point x="286.0" y="151"/>
      <point x="232.0" y="159"/>
      <point x="232.0" y="187" type="curve" smooth="yes"/>
      <point x="232.0" y="222"/>
      <point x="322.0" y="223"/>
      <point x="358.0" y="223" type="curve" smooth="yes"/>
      <point x="1156.0" y="223.0" type="line"/>
      <point x="1157.0" y="268.0" type="line" smooth="yes"/>
      <point x="1161" y="433"/>
      <point x="1021" y="546"/>
      <point x="831.0" y="546.0" type="curve" smooth="yes"/>
      <point x="641" y="546.0"/>
      <point x="470.0" y="442"/>
      <point x="470.0" y="268.0" type="curve" smooth="yes"/>
      <point x="470.0" y="110"/>
      <point x="615" y="-10.0"/>
      <point x="859.0" y="-10.0" type="curve" smooth="yes"/>
      <point x="966" y="-10.0"/>
      <point x="1064" y="19"/>
      <point x="1135.0" y="63.0" type="curve"/>
      <point x="1049.0" y="184.0" type="line"/>
      <point x="1020" y="172"/>
      <point x="966.0" y="151.0"/>
      <point x="882.0" y="151.0" type="curve" smooth="yes"/>
      <point x="748" y="151"/>
      <point x="645.0" y="190"/>
      <point x="645.0" y="284.0" type="curve" smooth="yes"/>
      <point x="645.0" y="372"/>
      <point x="742" y="393.0"/>
      <point x="835.0" y="393.0" type="curve" smooth="yes"/>
      <point x="910.0" y="393.0"/>
      <point x="972" y="365"/>
      <point x="976.0" y="319.0" type="curve"/>
      <point x="976.0" y="301.0" type="line"/>
      <point x="981.0" y="336.0" type="line"/>
      <point x="341.0" y="336.0" type="line" smooth="yes"/>
      <point x="183" y="336"/>
      <point x="30.0" y="296"/>
      <point x="30.0" y="149.0" type="curve" smooth="yes"/>
      <point x="30.0" y="40.0"/>
      <point x="133" y="-10.0"/>
    </contour>
    <contour>
      <point x="465.0" y="242.0" type="line"/>
      <point x="641.0" y="242.0" type="line"/>
      <point x="641.0" y="352.0" type="line" smooth="yes"/>
      <point x="641.0" y="506"/>
      <point x="496" y="546.0"/>
      <point x="377.0" y="546.0" type="curve" smooth="yes"/>
      <point x="229.0" y="546.0"/>
      <point x="123.0" y="496"/>
      <point x="63.0" y="450.0" type="curve"/>
      <point x="157.0" y="344.0" type="line"/>
      <point x="208.0" y="385.0"/>
      <point x="277" y="393.0"/>
      <point x="339.0" y="393.0" type="curve" smooth="yes"/>
      <point x="400.0" y="393.0"/>
      <point x="465.0" y="363.0"/>
      <point x="465.0" y="295.0" type="curve" smooth="yes"/>
    </contour>
  </outline>
</glyph>
<glyph name="eth" format="2">
  <advance width="764"/>
  <unicode hex="00F0"/>
  <outline>
    <contour>
      <point x="375.0" y="-7.0" type="curve" smooth="yes"/>
      <point x="581" y="-7.0"/>
      <point x="734.0" y="108"/>
      <point x="734.0" y="295.0" type="curve" smooth="yes"/>
      <point x="734.0" y="491"/>
      <point x="528" y="685"/>
      <point x="391.0" y="750.0" type="curve"/>
      <point x="329.0" y="642.0" type="line"/>
      <point x="423" y="565.0"/>
      <point x="515" y="440.0"/>
      <point x="514.0" y="335.0" type="curve"/>
      <point x="598.0" y="348.0" type="line"/>
      <point x="576" y="435.0"/>
      <point x="513.0" y="508.0"/>
      <point x="365.0" y="508.0" type="curve" smooth="yes"/>
      <point x="178.0" y="508.0"/>
      <point x="30.0" y="395"/>
      <point x="30.0" y="252.0" type="curve" smooth="yes"/>
      <point x="30.0" y="108"/>
      <point x="151" y="-7.0"/>
    </contour>
    <contour>
      <point x="377.0" y="149.0" type="curve" smooth="yes"/>
      <point x="290.0" y="149.0"/>
      <point x="225.0" y="197.0"/>
      <point x="225.0" y="262.0" type="curve" smooth="yes"/>
      <point x="225.0" y="325.0"/>
      <point x="286.0" y="372.0"/>
      <point x="367.0" y="372.0" type="curve" smooth="yes"/>
      <point x="464.0" y="372.0"/>
      <point x="537.0" y="325.0"/>
      <point x="537.0" y="262.0" type="curve" smooth="yes"/>
      <point x="537.0" y="197.0"/>
      <point x="469.0" y="149.0"/>
    </contour>
    <contour>
      <point x="286" y="529" type="line"/>
      <point x="506" y="576" type="line"/>
      <point x="549" y="607" type="line"/>
      <point x="661" y="620" type="line"/>
      <point x="639" y="685" type="line"/>
      <point x="494" y="663" type="line"/>
      <point x="437" y="628" type="line"/>
      <point x="269" y="593" type="line"/>
    </contour>
  </outline>
</glyph>
<glyph name="divide" format="2">
  <advance width="737"/>
  <unicode hex="00F7"/>
  <outline>
    <contour>
      <point x="38.0" y="188.0" type="line"/>
      <point x="700.0" y="188.0" type="line"/>
      <point x="700.0" y="363.0" type="line"/>
      <point x="38.0" y="363.0" type="line"/>
    </contour>
    <contour>
      <point x="369.0" y="-52.0" type="curve" smooth="yes"/>
      <point x="454.171" y="-52.0"/>
      <point x="539.0" y="-27.667"/>
      <point x="539.0" y="49.0" type="curve" smooth="yes"/>
      <point x="539.0" y="125.0"/>
      <point x="460.392" y="148.0"/>
      <point x="369.0" y="148.0" type="curve" smooth="yes"/>
      <point x="283.829" y="148.0"/>
      <point x="200.0" y="123.667"/>
      <point x="200.0" y="47.0" type="curve" smooth="yes"/>
      <point x="200.0" y="-29.0"/>
      <point x="277.608" y="-52.0"/>
    </contour>
    <contour>
      <point x="369.0" y="403.0" type="curve" smooth="yes"/>
      <point x="455.504" y="403.0"/>
      <point x="539.0" y="427.0"/>
      <point x="539.0" y="505.0" type="curve" smooth="yes"/>
      <point x="539.0" y="581.0"/>
      <point x="460.392" y="603.0"/>
      <point x="369.0" y="603.0" type="curve" smooth="yes"/>
      <point x="283.829" y="603.0"/>
      <point x="200.0" y="579.667"/>
      <point x="200.0" y="503.0" type="curve" smooth="yes"/>
      <point x="200.0" y="425.667"/>
      <point x="277.608" y="403.0"/>
    </contour>
  </outline>
</glyph>
<glyph name="oslash" format="2">
  <advance width="820"/>
  <unicode hex="00F8"/>
  <anchor x="410" y="525" name="top"/>
  <anchor x="410" y="0" name="bottom"/>
  <anchor x="410" y="268" name="center"/>
  <anchor x="751" y="10" name="ogonek"/>
  <anchor x="800" y="535" name="topright"/>
  <outline>
    <contour>
      <point x="131" y="-15" type="line"/>
      <point x="749" y="502" type="line"/>
      <point x="692" y="562" type="line"/>
      <point x="74" y="43" type="line"/>
    </contour>
    <component base="o"/>
  </outline>
</glyph>
<glyph name="dcroat" format="2">
  <advance width="809"/>
  <unicode hex="0111"/>
  <anchor x="546.0" y="634.0" name="_center"/>
  <anchor x="405.0" y="0" name="bottom"/>
  <anchor x="546.0" y="634.0" name="center"/>
  <anchor x="405.0" y="740.0" name="top"/>
  <anchor x="809.0" y="740.0" name="topright"/>
  <outline>
    <contour>
      <point x="292.0" y="566.0" type="line"/>
      <point x="800.0" y="566.0" type="line"/>
      <point x="800.0" y="702.0" type="line"/>
      <point x="292.0" y="702.0" type="line"/>
    </contour>
    <component base="d"/>
  </outline>
</glyph>
<glyph name="eogonek" format="2">
  <advance width="746"/>
  <unicode hex="0119"/>
  <anchor x="373.0" y="535.0" name="top"/>
  <anchor x="413.0" y="0" name="bottom"/>
  <anchor x="659.0" y="10.0" name="ogonek"/>
  <outline>
    <contour>
      <point x="516.0" y="-209.0" type="curve" smooth="yes"/>
      <point x="590.0" y="-209.0"/>
      <point x="634.0" y="-162.0"/>
      <point x="658.0" y="-122.0" type="curve"/>
      <point x="578.0" y="-63.0" type="line"/>
      <point x="568.0" y="-79.0"/>
      <point x="557.0" y="-86.0"/>
      <point x="541.0" y="-86.0" type="curve" smooth="yes"/>
      <point x="530.0" y="-86.0"/>
      <point x="522.0" y="-78.0"/>
      <point x="522.0" y="-63.0" type="curve" smooth="yes"/>
      <point x="522.0" y="-22.0"/>
      <point x="574.0" y="4.0"/>
      <point x="663.0" y="45.0" type="curve"/>
      <point x="632.0" y="104.0" type="line"/>
      <point x="487.0" y="38.0"/>
      <point x="397.0" y="-17.0"/>
      <point x="397.0" y="-98.0" type="curve" smooth="yes"/>
      <point x="397.0" y="-159.0"/>
      <point x="444.0" y="-209.0"/>
    </contour>
    <component base="e"/>
  </outline>
</glyph>
<glyph name="Hbar" format="2">
  <advance width="1049"/>
  <unicode hex="0126"/>
  <anchor x="527.0" y="0" name="bottom"/>
  <anchor x="527.0" y="350.0" name="center"/>
  <anchor x="527.0" y="700.0" name="top"/>
  <anchor x="80.0" y="700.0" name="topleft"/>
  <outline>
    <contour>
      <point x="17.0" y="488.0" type="line"/>
      <point x="208.0" y="488.0" type="line"/>
      <point x="287.0" y="498.0" type="line"/>
      <point x="766.0" y="498.0" type="line"/>
      <point x="861.0" y="488.0" type="line"/>
      <point x="1033.0" y="488.0" type="line"/>
      <point x="1033.0" y="652.0" type="line"/>
      <point x="871.0" y="652.0" type="line"/>
      <point x="754.0" y="642.0" type="line"/>
      <point x="297.0" y="642.0" type="line"/>
      <point x="198.0" y="652.0" type="line"/>
      <point x="17.0" y="652.0" type="line"/>
    </contour>
    <component base="H" xOffset="60"/>
  </outline>
</glyph>
<glyph name="hbar" format="2">
  <advance width="785"/>
  <unicode hex="0127"/>
  <anchor x="393.0" y="0" name="bottom"/>
  <anchor x="213.0" y="637.0" name="center"/>
  <anchor x="393.0" y="740.0" name="top"/>
  <outline>
    <contour>
      <point x="-41.0" y="569.0" type="line"/>
      <point x="467.0" y="569.0" type="line"/>
      <point x="467.0" y="705.0" type="line"/>
      <point x="-41.0" y="705.0" type="line"/>
    </contour>
    <component base="h"/>
  </outline>
</glyph>
<glyph name="idotless" format="2">
  <advance width="323"/>
  <unicode hex="0131"/>
  <anchor x="162.0" y="0" name="bottom"/>
  <anchor x="244.0" y="0" name="ogonek"/>
  <anchor x="162.0" y="535.0" name="top"/>
  <outline>
    <contour>
      <point x="60.0" y="0.0" type="line"/>
      <point x="263.0" y="0.0" type="line"/>
      <point x="263.0" y="535.0" type="line"/>
      <point x="60.0" y="535.0" type="line"/>
    </contour>
  </outline>
</glyph>
<glyph name="kgreenlandic" format="2">
  <advance width="831"/>
  <unicode hex="0138"/>
  <anchor x="414" y="0" name="bottom"/>
  <anchor x="414" y="535" name="top"/>
  <outline>
    <contour>
      <point x="270" y="109" type="line"/>
      <point x="826" y="535" type="line"/>
      <point x="532" y="535" type="line"/>
      <point x="175" y="230" type="line"/>
    </contour>
    <contour>
      <point x="70" y="0" type="line"/>
      <point x="279" y="0" type="line"/>
      <point x="279" y="535" type="line"/>
      <point x="70" y="535" type="line"/>
    </contour>
    <contour>
      <point x="570" y="0" type="line"/>
      <point x="808" y="0" type="line"/>
      <point x="480" y="363" type="line"/>
      <point x="332" y="261" type="line"/>
    </contour>
  </outline>
</glyph>
<glyph name="Lslash" format="2">
  <advance width="850"/>
  <unicode hex="0141"/>
  <anchor x="472" y="0" name="bottom"/>
  <anchor x="286" y="350" name="center"/>
  <anchor x="284" y="700" name="top"/>
  <anchor x="540" y="700" name="topright"/>
  <outline>
    <contour>
      <point x="18" y="194" type="line"/>
      <point x="695" y="458" type="line"/>
      <point x="633" y="641" type="line"/>
      <point x="-44" y="377" type="line"/>
    </contour>
    <component base="L" xOffset="94"/>
  </outline>
</glyph>
<glyph name="lslash" format="2">
  <advance width="610"/>
  <unicode hex="0142"/>
  <anchor x="302.0" y="0" name="bottom"/>
  <anchor x="302.0" y="370.0" name="center"/>
  <anchor x="302.0" y="740.0" name="top"/>
  <anchor x="472.0" y="740.0" name="topright"/>
  <outline>
    <contour>
      <point x="54.0" y="226.0" type="line"/>
      <point x="610.0" y="396.0" type="line"/>
      <point x="555.0" y="574.0" type="line"/>
      <point x="0.0" y="404.0" type="line"/>
    </contour>
    <component base="l" xOffset="130"/>
  </outline>
</glyph>
<glyph name="Eng" format="2">
  <advance width="977"/>
  <unicode hex="014A"/>
  <outline>
    <contour>
      <point x="557.0" y="-207.0" type="line"/>
      <point x="761.0" y="-207.0"/>
      <point x="897.0" y="-104.667"/>
      <point x="897.0" y="130.0" type="curve" smooth="yes"/>
      <point x="897.0" y="700.0" type="line"/>
      <point x="689.0" y="700.0" type="line"/>
      <point x="689.0" y="570.0" type="line" smooth="yes"/>
      <point x="687.667" y="496.667"/>
      <point x="687.333" y="443.33299999999997"/>
      <point x="706.0" y="298.0" type="curve"/>
      <point x="710.0" y="304.0" type="line"/>
      <point x="283.0" y="700.0" type="line"/>
      <point x="80.0" y="700.0" type="line"/>
      <point x="80.0" y="0.0" type="line"/>
      <point x="288.0" y="0.0" type="line"/>
      <point x="288.0" y="233.5" type="line" smooth="yes"/>
      <point x="288.0" y="281.0"/>
      <point x="282.0" y="347.0"/>
      <point x="278.0" y="390.0" type="curve"/>
      <point x="273.0" y="384.0" type="line"/>
      <point x="695.0" y="-3.0" type="line"/>
      <point x="692.0" y="44.0" type="line"/>
      <point x="692.0" y="49.0" type="line" smooth="yes"/>
      <point x="692.0" y="11.0"/>
      <point x="566.0" y="-25.0"/>
      <point x="469.0" y="-25.0" type="curve"/>
    </contour>
  </outline>
</glyph>
<glyph name="eng" format="2">
  <advance width="785"/>
  <unicode hex="014B"/>
  <outline>
    <contour>
      <point x="400.0" y="-207.0" type="line"/>
      <point x="605.3330000000001" y="-207.0"/>
      <point x="725.0" y="-148.999"/>
      <point x="725.0" y="-1.0" type="curve" smooth="yes"/>
      <point x="725.0" y="320.0" type="line" smooth="yes"/>
      <point x="725.0" y="437.33399999999995"/>
      <point x="633.333" y="546.0"/>
      <point x="468.0" y="546.0" type="curve" smooth="yes"/>
      <point x="377.33399999999995" y="546.0"/>
      <point x="314.999" y="510.333"/>
      <point x="263.0" y="465.0" type="curve"/>
      <point x="258.0" y="535.0" type="line"/>
      <point x="70.0" y="535.0" type="line"/>
      <point x="70.0" y="0.0" type="line"/>
      <point x="273.0" y="0.0" type="line"/>
      <point x="273.0" y="278.0" type="line" smooth="yes"/>
      <point x="273.0" y="312.667"/>
      <point x="325.0" y="379.0"/>
      <point x="401.0" y="379.0" type="curve" smooth="yes"/>
      <point x="458.333" y="375.0"/>
      <point x="522.0" y="333.0"/>
      <point x="522.0" y="293.0" type="curve" smooth="yes"/>
      <point x="522.0" y="62.0" type="line" smooth="yes"/>
      <point x="520.666" y="0.6670000000000016"/>
      <point x="468.0" y="-35.0"/>
      <point x="324.0" y="-35.0" type="curve"/>
    </contour>
  </outline>
</glyph>
<glyph name="OE" format="2">
  <advance width="1397"/>
  <unicode hex="0152"/>
  <anchor x="699.0" y="0" name="bottom"/>
  <anchor x="699.0" y="700.0" name="top"/>
  <outline>
    <contour>
      <point x="445.0" y="0.0" type="curve" smooth="yes"/>
      <point x="1350.0" y="0.0" type="line"/>
      <point x="1350.0" y="175.0" type="line"/>
      <point x="877.0" y="175.0" type="line"/>
      <point x="877.0" y="277.0" type="line"/>
      <point x="1295.0" y="277.0" type="line"/>
      <point x="1295.0" y="441.0" type="line"/>
      <point x="877.0" y="441.0" type="line"/>
      <point x="877.0" y="525.0" type="line"/>
      <point x="1350.0" y="525.0" type="line"/>
      <point x="1350.0" y="700.0" type="line"/>
      <point x="465.0" y="700.0" type="line" smooth="yes"/>
      <point x="187.667" y="700.0"/>
      <point x="40.0" y="539.333"/>
      <point x="40.0" y="350.0" type="curve" smooth="yes"/>
      <point x="40.0" y="158.0"/>
      <point x="179.667" y="0.0"/>
    </contour>
    <contour>
      <point x="258.0" y="350.0" type="curve" smooth="yes"/>
      <point x="258.0" y="428.667"/>
      <point x="331.66600000000005" y="516.0"/>
      <point x="477.0" y="516.0" type="curve" smooth="yes"/>
      <point x="670.0" y="516.0" type="line"/>
      <point x="670.0" y="184.0" type="line"/>
      <point x="477.0" y="184.0" type="line" smooth="yes"/>
      <point x="333.0" y="184.0"/>
      <point x="258.0" y="270.0"/>
    </contour>
  </outline>
</glyph>
<glyph name="oe" format="2">
  <advance width="1311"/>
  <unicode hex="0153"/>
  <anchor x="703.0" y="0" name="bottom"/>
  <anchor x="706.0" y="530.0" name="top"/>
  <outline>
    <contour>
      <point x="411.0" y="-10.0" type="curve" smooth="yes"/>
      <point x="543.0" y="-10.0"/>
      <point x="648.0" y="26.0"/>
      <point x="701.0" y="96.0" type="curve"/>
      <point x="671.0" y="96.0" type="line"/>
      <point x="734.0" y="27.0"/>
      <point x="840.0" y="-10.0"/>
      <point x="974.0" y="-10.0" type="curve" smooth="yes"/>
      <point x="1084.0" y="-10.0"/>
      <point x="1179.0" y="12.0"/>
      <point x="1265.0" y="63.0" type="curve"/>
      <point x="1179.0" y="184.0" type="line"/>
      <point x="1144.0" y="168.0"/>
      <point x="1086.0" y="151.0"/>
      <point x="996.0" y="151.0" type="curve" smooth="yes"/>
      <point x="862" y="151"/>
      <point x="780.0" y="204.0"/>
      <point x="780.0" y="285.0" type="curve" smooth="yes"/>
      <point x="780.0" y="351.0"/>
      <point x="846" y="393"/>
      <point x="957.0" y="393.0" type="curve" smooth="yes"/>
      <point x="1047.0" y="393.0"/>
      <point x="1107.0" y="360.0"/>
      <point x="1107.0" y="305.0" type="curve" smooth="yes"/>
      <point x="1107.0" y="293.0" type="line"/>
      <point x="1151.0" y="336.0" type="line"/>
      <point x="749.0" y="336.0" type="line"/>
      <point x="760.0" y="223.0" type="line"/>
      <point x="1286.0" y="223.0" type="line"/>
      <point x="1287.0" y="268.0" type="line" smooth="yes"/>
      <point x="1291" y="433"/>
      <point x="1142.0" y="546.0"/>
      <point x="952.0" y="547.0" type="curve" smooth="yes"/>
      <point x="835.0" y="546.0"/>
      <point x="727.0" y="513.0"/>
      <point x="677.0" y="443.0" type="curve"/>
      <point x="709.0" y="444.0" type="line"/>
      <point x="646.0" y="510.0"/>
      <point x="542.0" y="546.0"/>
      <point x="411.0" y="546.0" type="curve" smooth="yes"/>
      <point x="185" y="546.0"/>
      <point x="30.0" y="431.0"/>
      <point x="30.0" y="268.0" type="curve" smooth="yes"/>
      <point x="30.0" y="105.0"/>
      <point x="185" y="-10.0"/>
    </contour>
    <contour>
      <point x="411.0" y="160.0" type="curve" smooth="yes"/>
      <point x="314" y="160.0"/>
      <point x="236" y="204.0"/>
      <point x="235.0" y="268.0" type="curve" smooth="yes"/>
      <point x="236" y="334"/>
      <point x="314" y="377.0"/>
      <point x="411.0" y="377.0" type="curve" smooth="yes"/>
      <point x="507.0" y="377.0"/>
      <point x="587" y="333.0"/>
      <point x="585.0" y="265.0" type="curve" smooth="yes"/>
      <point x="582" y="195.0"/>
      <point x="498.0" y="160.0"/>
    </contour>
  </outline>
</glyph>
<glyph name="Tbar" format="2">
  <advance width="854"/>
  <unicode hex="0166"/>
  <anchor x="427" y="0" name="bottom"/>
  <anchor x="427" y="350" name="center"/>
  <anchor x="427" y="700" name="top"/>
  <outline>
    <contour>
      <point x="179" y="282" type="line"/>
      <point x="687" y="282" type="line"/>
      <point x="687" y="418" type="line"/>
      <point x="179" y="418" type="line"/>
    </contour>
    <component base="T"/>
  </outline>
</glyph>
<glyph name="tbar" format="2">
  <advance width="549"/>
  <unicode hex="0167"/>
  <anchor x="275.0" y="0" name="bottom"/>
  <anchor x="275.0" y="268.0" name="center"/>
  <anchor x="259.0" y="612.0" name="top"/>
  <anchor x="375.0" y="860.0" name="topright"/>
  <outline>
    <contour>
      <point x="26.0" y="180.0" type="line"/>
      <point x="534.0" y="180.0" type="line"/>
      <point x="534.0" y="316.0" type="line"/>
      <point x="26.0" y="316.0" type="line"/>
    </contour>
    <component base="t"/>
  </outline>
</glyph>
<glyph name="Uogonek" format="2">
  <advance width="924"/>
  <unicode hex="0172"/>
  <anchor x="462.0" y="0" name="bottom"/>
  <anchor x="657.0" y="0" name="ogonek"/>
  <anchor x="462.0" y="700.0" name="top"/>
  <anchor x="904.0" y="700.0" name="topright"/>
  <outline>
    <contour>
      <point x="574.0" y="-220.0" type="curve" smooth="yes"/>
      <point x="646.0" y="-220.0"/>
      <point x="690.0" y="-174.0"/>
      <point x="712.0" y="-133.0" type="curve"/>
      <point x="632.0" y="-74.0" type="line"/>
      <point x="626.0" y="-87.0"/>
      <point x="618.0" y="-97.0"/>
      <point x="602.0" y="-97.0" type="curve" smooth="yes"/>
      <point x="589.0" y="-97.0"/>
      <point x="578.0" y="-84.0"/>
      <point x="578.0" y="-64.0" type="curve" smooth="yes"/>
      <point x="578.0" y="8.0"/>
      <point x="682.0" y="48.0"/>
      <point x="683.0" y="52.0" type="curve"/>
      <point x="668.0" y="110.0" type="line"/>
      <point x="600.0" y="71.0"/>
      <point x="452.0" y="7.0"/>
      <point x="452.0" y="-105.0" type="curve" smooth="yes"/>
      <point x="452.0" y="-164.0"/>
      <point x="496.0" y="-220.0"/>
    </contour>
    <component base="U"/>
  </outline>
</glyph>
<glyph name="Schwa" format="2">
  <advance width="791"/>
  <unicode hex="018F"/>
  <anchor x="396.0" y="0" name="bottom"/>
  <anchor x="396.0" y="700.0" name="top"/>
  <outline>
    <contour>
      <point x="397.0" y="-10.0" type="curve" smooth="yes"/>
      <point x="591.667" y="-10.0"/>
      <point x="751.0" y="151.333"/>
      <point x="751.0" y="350.0" type="curve" smooth="yes"/>
      <point x="751.0" y="548.667"/>
      <point x="588.667" y="710.0"/>
      <point x="394.0" y="710.0" type="curve" smooth="yes"/>
      <point x="274.0" y="710.0"/>
      <point x="203.667" y="681.667"/>
      <point x="101.0" y="603.0" type="curve"/>
      <point x="178.0" y="442.0" type="line"/>
      <point x="248.667" y="496.66700000000003"/>
      <point x="299.333" y="510.0"/>
      <point x="374.0" y="510.0" type="curve" smooth="yes"/>
      <point x="450.00100000000003" y="510.0"/>
      <point x="524.0" y="461.6670000000001"/>
      <point x="524.0" y="351.0" type="curve" smooth="yes"/>
      <point x="524.0" y="236.333"/>
      <point x="462.3329999999999" y="190.0"/>
      <point x="397.0" y="190.0" type="curve" smooth="yes"/>
      <point x="351.667" y="190.0"/>
      <point x="305.0" y="217.0"/>
      <point x="281.0" y="261.0" type="curve"/>
      <point x="687.0" y="261.0" type="line"/>
      <point x="678.0" y="427.0" type="line"/>
      <point x="40.0" y="427.0" type="line"/>
      <point x="40.0" y="313.0" type="line"/>
      <point x="49.333" y="118.333"/>
      <point x="219.667" y="-10.0"/>
    </contour>
  </outline>
</glyph>
<glyph name="florin" format="2">
  <advance width="793"/>
  <unicode hex="0192"/>
  <outline>
    <contour>
      <point x="137.0" y="-31.0" type="curve" smooth="yes"/>
      <point x="296.168" y="-31.0"/>
      <point x="390.001" y="37.998999999999995"/>
      <point x="434.0" y="182.0" type="curve" smooth="yes"/>
      <point x="558.0" y="460.0" type="line" smooth="yes"/>
      <point x="573.999" y="487.99899999999997"/>
      <point x="592.0" y="512.0"/>
      <point x="624.0" y="512.0" type="curve" smooth="yes"/>
      <point x="664.538" y="512.0"/>
      <point x="694.0" y="494.66599999999994"/>
      <point x="730.0" y="464.0" type="curve"/>
      <point x="801.0" y="648.0" type="line"/>
      <point x="742.3340000000001" y="697.333"/>
      <point x="677.364" y="713.0"/>
      <point x="606.0" y="713.0" type="curve" smooth="yes"/>
      <point x="466.55000000000007" y="713.0"/>
      <point x="368.999" y="640.667"/>
      <point x="333.0" y="518.0" type="curve" smooth="yes"/>
      <point x="216.0" y="242.0" type="line" smooth="yes"/>
      <point x="201.333" y="199.334"/>
      <point x="179.333" y="167.0"/>
      <point x="138.0" y="167.0" type="curve" smooth="yes"/>
      <point x="108.667" y="167.0"/>
      <point x="93.0" y="171.333"/>
      <point x="65.0" y="182.0" type="curve"/>
      <point x="-10.0" y="1.0" type="line"/>
      <point x="26.001000000000005" y="-17.665999999999997"/>
      <point x="73.001" y="-31.0"/>
    </contour>
    <contour>
      <point x="646.0" y="256.0" type="line"/>
      <point x="646.0" y="434.0" type="line"/>
      <point x="127.0" y="435.0" type="line"/>
      <point x="127.0" y="257.0" type="line"/>
    </contour>
  </outline>
</glyph>
<glyph name="Nhookleft" format="2">
  <advance width="1037"/>
  <unicode hex="019D"/>
  <anchor x="518.0" y="0" name="bottom"/>
  <anchor x="518.0" y="700.0" name="top"/>
  <outline>
    <contour>
      <point x="28.0" y="-207.0" type="line"/>
      <point x="240.0" y="-207.0"/>
      <point x="368.0" y="-99.0"/>
      <point x="368.0" y="153.0" type="curve" smooth="yes"/>
      <point x="368.0" y="145.0" type="line" smooth="yes"/>
      <point x="368.0" y="282.0"/>
      <point x="368.0" y="313.0"/>
      <point x="348.0" y="466.0" type="curve"/>
      <point x="257.0" y="470.0" type="line"/>
      <point x="752.0" y="0.0" type="line"/>
      <point x="957.0" y="0.0" type="line"/>
      <point x="957.0" y="700.0" type="line"/>
      <point x="729.0" y="700.0" type="line"/>
      <point x="729.0" y="570.0" type="line" smooth="yes"/>
      <point x="729.0" y="474.33399999999995"/>
      <point x="730.333" y="419.66600000000005"/>
      <point x="749.0" y="269.0" type="curve"/>
      <point x="805.0" y="275.0" type="line"/>
      <point x="343.0" y="700.0" type="line"/>
      <point x="140.0" y="700.0" type="line"/>
      <point x="140.0" y="201.0" type="line" smooth="yes"/>
      <point x="140.0" y="59.667"/>
      <point x="82.667" y="-25.0"/>
      <point x="-60.0" y="-25.0" type="curve"/>
    </contour>
  </outline>
</glyph>
<glyph name="Ohorn" format="2">
  <advance width="994"/>
  <unicode hex="01A0"/>
  <anchor x="497.0" y="0" name="bottom"/>
  <anchor x="497.0" y="700.0" name="top"/>
  <outline>
    <contour>
      <point x="497.0" y="-10.0" type="curve" smooth="yes"/>
      <point x="764.667" y="-10.0"/>
      <point x="954.0" y="147.0"/>
      <point x="954.0" y="355.0" type="curve" smooth="yes"/>
      <point x="954.0" y="462.0"/>
      <point x="899.0" y="557.0"/>
      <point x="807.0" y="624.0" type="curve"/>
      <point x="770.0" y="606.0" type="line"/>
      <point x="943.0" y="595.0"/>
      <point x="982.0" y="716.0"/>
      <point x="982.0" y="834.0" type="curve"/>
      <point x="830.0" y="834.0" type="line"/>
      <point x="830.0" y="731.0"/>
      <point x="786.0" y="695.0"/>
      <point x="719.0" y="695.0" type="curve" smooth="yes"/>
      <point x="678.614" y="695.0"/>
      <point x="640.0" y="704.0"/>
      <point x="602.101" y="710.019" type="curve" smooth="yes"/>
      <point x="561.0" y="717.0"/>
      <point x="521.289" y="720.0"/>
      <point x="497.0" y="720.0" type="curve" smooth="yes"/>
      <point x="227.666" y="720.0"/>
      <point x="40.0" y="561.6659999999999"/>
      <point x="40.0" y="355.0" type="curve" smooth="yes"/>
      <point x="40.0" y="148.334"/>
      <point x="227.333" y="-10.0"/>
    </contour>
    <contour>
      <point x="497.0" y="190.0" type="curve" smooth="yes"/>
      <point x="357.333" y="190.0"/>
      <point x="260.0" y="262.0"/>
      <point x="260.0" y="355.0" type="curve" smooth="yes"/>
      <point x="260.0" y="448.0"/>
      <point x="357.333" y="520.0"/>
      <point x="497.0" y="520.0" type="curve" smooth="yes"/>
      <point x="636.0" y="520.0"/>
      <point x="734.0" y="448.333"/>
      <point x="734.0" y="355.0" type="curve" smooth="yes"/>
      <point x="734.0" y="261.66700000000003"/>
      <point x="636.0" y="190.0"/>
    </contour>
  </outline>
</glyph>
<glyph name="ohorn" format="2">
  <advance width="820"/>
  <unicode hex="01A1"/>
  <anchor x="410.0" y="0" name="bottom"/>
  <anchor x="410.0" y="535.0" name="top"/>
  <outline>
    <contour>
      <point x="411.0" y="-10.0" type="curve" smooth="yes"/>
      <point x="636.3330000000001" y="-10.0"/>
      <point x="790.0" y="105.333"/>
      <point x="790.0" y="268.0" type="curve" smooth="yes"/>
      <point x="790.0" y="348.0"/>
      <point x="750.0" y="417.0"/>
      <point x="680.0" y="467.0" type="curve"/>
      <point x="662.0" y="446.0" type="line"/>
      <point x="783.0" y="456.0"/>
      <point x="817.0" y="550.0"/>
      <point x="817.0" y="649.0" type="curve"/>
      <point x="665.0" y="649.0" type="line"/>
      <point x="665.0" y="570.0"/>
      <point x="639.0" y="533.0"/>
      <point x="563.0" y="533.0" type="curve" smooth="yes"/>
      <point x="534.0" y="533.0"/>
      <point x="513.0" y="538.0"/>
      <point x="489.781" y="540.748" type="curve" smooth="yes"/>
      <point x="460.0" y="544.0"/>
      <point x="433.092" y="546.0"/>
      <point x="411.0" y="546.0" type="curve" smooth="yes"/>
      <point x="184.333" y="546.0"/>
      <point x="30.0" y="430.667"/>
      <point x="30.0" y="268.0" type="curve" smooth="yes"/>
      <point x="30.0" y="105.333"/>
      <point x="184.333" y="-10.0"/>
    </contour>
    <contour>
      <point x="411.0" y="160.0" type="curve" smooth="yes"/>
      <point x="313.66700000000003" y="160.0"/>
      <point x="233.666" y="204.0"/>
      <point x="235.0" y="268.0" type="curve" smooth="yes"/>
      <point x="233.666" y="334.66600000000005"/>
      <point x="313.66700000000003" y="377.0"/>
      <point x="411.0" y="377.0" type="curve" smooth="yes"/>
      <point x="507.0" y="374.0"/>
      <point x="586.3340000000001" y="333.333"/>
      <point x="585.0" y="268.0" type="curve" smooth="yes"/>
      <point x="586.3340000000001" y="204.0"/>
      <point x="507.0" y="160.0"/>
    </contour>
  </outline>
</glyph>
<glyph name="Uhorn" format="2">
  <advance width="924"/>
  <unicode hex="01AF"/>
  <anchor x="462.0" y="0" name="bottom"/>
  <anchor x="462.0" y="700.0" name="top"/>
  <outline>
    <contour>
      <point x="462.0" y="-6.0" type="curve" smooth="yes"/>
      <point x="692.6659999999999" y="-6.0"/>
      <point x="844.0" y="137.667"/>
      <point x="844.0" y="335.0" type="curve" smooth="yes"/>
      <point x="844.0" y="668.0" type="line"/>
      <point x="785.0" y="639.0" type="line"/>
      <point x="907.0" y="634.0"/>
      <point x="948.0" y="738.0"/>
      <point x="948.0" y="834.0" type="curve"/>
      <point x="796.0" y="834.0" type="line"/>
      <point x="796.0" y="739.882"/>
      <point x="769.0" y="700.0"/>
      <point x="693.0" y="700.0" type="curve" smooth="yes"/>
      <point x="631.0" y="700.0" type="line"/>
      <point x="631.0" y="339.0" type="line" smooth="yes"/>
      <point x="631.0" y="242.999"/>
      <point x="562.0" y="179.0"/>
      <point x="462.0" y="179.0" type="curve" smooth="yes"/>
      <point x="366.0" y="179.0"/>
      <point x="298.0" y="242.999"/>
      <point x="298.0" y="339.0" type="curve" smooth="yes"/>
      <point x="298.0" y="700.0" type="line"/>
      <point x="80.0" y="700.0" type="line"/>
      <point x="80.0" y="335.0" type="line" smooth="yes"/>
      <point x="80.0" y="137.667"/>
      <point x="231.334" y="-6.0"/>
    </contour>
  </outline>
</glyph>
<glyph name="uhorn" format="2">
  <advance width="789"/>
  <unicode hex="01B0"/>
  <anchor x="395.0" y="0" name="bottom"/>
  <anchor x="395.0" y="535.0" name="top"/>
  <outline>
    <contour>
      <point x="299.0" y="-11.0" type="curve" smooth="yes"/>
      <point x="420.0" y="-11.0"/>
      <point x="502.0" y="36.0"/>
      <point x="540.0" y="82.0" type="curve"/>
      <point x="519.0" y="112.0" type="line"/>
      <point x="531.0" y="0.0" type="line"/>
      <point x="717.0" y="0.0" type="line"/>
      <point x="717.0" y="465.0" type="line"/>
      <point x="672.0" y="449.0" type="line"/>
      <point x="798.0" y="425.0"/>
      <point x="848.0" y="533.0"/>
      <point x="848.0" y="649.0" type="curve"/>
      <point x="696.0" y="649.0" type="line"/>
      <point x="696.0" y="560.0"/>
      <point x="683.0" y="535.0"/>
      <point x="514.0" y="535.0" type="curve"/>
      <point x="514.0" y="287.0" type="line" smooth="yes"/>
      <point x="514.0" y="211.0"/>
      <point x="449.333" y="167.0"/>
      <point x="376.0" y="167.0" type="curve" smooth="yes"/>
      <point x="292.0" y="167.0"/>
      <point x="263.0" y="204.0"/>
      <point x="263.0" y="292.0" type="curve" smooth="yes"/>
      <point x="263.0" y="535.0" type="line"/>
      <point x="60.0" y="535.0" type="line"/>
      <point x="60.0" y="265.0" type="line" smooth="yes"/>
      <point x="60.0" y="86.333"/>
      <point x="151.0" y="-11.0"/>
    </contour>
  </outline>
</glyph>
<glyph name="Oogonek" format="2">
  <advance width="994"/>
  <unicode hex="01EA"/>
  <anchor x="497.0" y="700.0" name="top"/>
  <anchor x="497.0" y="0" name="bottom"/>
  <anchor x="497.0" y="350.0" name="center"/>
  <anchor x="876.0" y="10.0" name="ogonek"/>
  <anchor x="20.0" y="700.0" name="topleft"/>
  <anchor x="974.0" y="700.0" name="topright"/>
  <outline>
    <contour>
      <point x="595.0" y="-220.0" type="curve" smooth="yes"/>
      <point x="667.0" y="-220.0"/>
      <point x="711.0" y="-174.0"/>
      <point x="733.0" y="-133.0" type="curve"/>
      <point x="653.0" y="-74.0" type="line"/>
      <point x="647.0" y="-87.0"/>
      <point x="639.0" y="-97.0"/>
      <point x="623.0" y="-97.0" type="curve" smooth="yes"/>
      <point x="610.0" y="-97.0"/>
      <point x="599.0" y="-84.0"/>
      <point x="599.0" y="-69.0" type="curve" smooth="yes"/>
      <point x="599.0" y="8.0"/>
      <point x="740.0" y="42.0"/>
      <point x="754.0" y="52.0" type="curve"/>
      <point x="739.0" y="110.0" type="line"/>
      <point x="630.0" y="71.0"/>
      <point x="473.0" y="7.0"/>
      <point x="473.0" y="-105.0" type="curve" smooth="yes"/>
      <point x="473.0" y="-164.0"/>
      <point x="517.0" y="-220.0"/>
    </contour>
    <component base="O"/>
  </outline>
</glyph>
<glyph name="oogonek" format="2">
  <advance width="820"/>
  <unicode hex="01EB"/>
  <anchor x="410" y="525" name="top"/>
  <anchor x="410" y="0" name="bottom"/>
  <anchor x="410" y="268" name="center"/>
  <anchor x="751" y="10" name="ogonek"/>
  <anchor x="800" y="535" name="topright"/>
  <outline>
    <contour>
      <point x="501" y="-209" type="curve" smooth="yes"/>
      <point x="575" y="-209"/>
      <point x="619" y="-162"/>
      <point x="643" y="-122" type="curve"/>
      <point x="563" y="-63" type="line"/>
      <point x="552" y="-79"/>
      <point x="541" y="-86"/>
      <point x="526" y="-86" type="curve" smooth="yes"/>
      <point x="515" y="-86"/>
      <point x="500" y="-80"/>
      <point x="500" y="-59" type="curve" smooth="yes"/>
      <point x="500" y="-24"/>
      <point x="561" y="6"/>
      <point x="640" y="39" type="curve"/>
      <point x="617" y="104" type="line"/>
      <point x="468" y="37"/>
      <point x="375" y="-18"/>
      <point x="375" y="-100" type="curve" smooth="yes"/>
      <point x="375" y="-160"/>
      <point x="424" y="-209"/>
    </contour>
    <component base="o"/>
  </outline>
</glyph>
<glyph name="jdotless" format="2">
  <advance width="273"/>
  <unicode hex="0237"/>
  <anchor x="137.0" y="-230.0" name="bottom"/>
  <anchor x="142.0" y="535.0" name="top"/>
  <outline>
    <contour>
      <point x="-87.0" y="-219.0" type="line"/>
      <point x="120.0" y="-219.0"/>
      <point x="242.0" y="-109.501"/>
      <point x="242.0" y="153.0" type="curve" smooth="yes"/>
      <point x="242.0" y="535.0" type="line"/>
      <point x="39.0" y="535.0" type="line"/>
      <point x="39.0" y="201.0" type="line" smooth="yes"/>
      <point x="39.0" y="23.104"/>
      <point x="-4.0" y="-49.0"/>
      <point x="-164.0" y="-49.0" type="curve"/>
    </contour>
  </outline>
</glyph>
<glyph name="nhookleft" format="2">
  <advance width="804"/>
  <unicode hex="0272"/>
  <outline>
    <contour>
      <point x="-47.0" y="-219.0" type="line"/>
      <point x="160.0" y="-219.0"/>
      <point x="288.0" y="-144.0"/>
      <point x="292.0" y="21.0" type="curve" smooth="yes"/>
      <point x="292.0" y="278.0" type="line" smooth="yes"/>
      <point x="292.0" y="313.0"/>
      <point x="344.0" y="379.0"/>
      <point x="420.0" y="379.0" type="curve" smooth="yes"/>
      <point x="477.0" y="375.0"/>
      <point x="541.0" y="333.0"/>
      <point x="541.0" y="293.0" type="curve" smooth="yes"/>
      <point x="541.0" y="0.0" type="line"/>
      <point x="744.0" y="0.0" type="line"/>
      <point x="744.0" y="320.0" type="line" smooth="yes"/>
      <point x="744.0" y="438.0"/>
      <point x="652.0" y="546.0"/>
      <point x="487.0" y="546.0" type="curve" smooth="yes"/>
      <point x="384.0" y="546.0"/>
      <point x="318.0" y="500.0"/>
      <point x="261.0" y="447.0" type="curve"/>
      <point x="286.0" y="420.0" type="line"/>
      <point x="277.0" y="535.0" type="line"/>
      <point x="89.0" y="535.0" type="line"/>
      <point x="89.0" y="44.0" type="line" smooth="yes"/>
      <point x="89.0" y="-54.0"/>
      <point x="-10.0" y="-49.0"/>
      <point x="-124.0" y="-49.0" type="curve"/>
    </contour>
  </outline>
</glyph>
<glyph name="ringhalfright" format="2">
  <advance width="219"/>
  <unicode hex="02BE"/>
  <outline>
    <contour>
      <point x="45.0" y="513.0" type="line"/>
      <point x="114.333" y="513.0"/>
      <point x="174.0" y="567.667"/>
      <point x="174.0" y="637.0" type="curve" smooth="yes"/>
      <point x="174.0" y="706.333"/>
      <point x="114.333" y="763.0"/>
      <point x="45.0" y="763.0" type="curve"/>
      <point x="45.0" y="667.0" type="line"/>
      <point x="58.333" y="667.0"/>
      <point x="73.0" y="656.9989999999999"/>
      <point x="73.0" y="637.0" type="curve" smooth="yes"/>
      <point x="73.0" y="621.0"/>
      <point x="61.0" y="609.0"/>
      <point x="45.0" y="609.0" type="curve"/>
    </contour>
  </outline>
</glyph>
<glyph name="ringhalfleft" format="2">
  <advance width="219"/>
  <unicode hex="02BF"/>
  <outline>
    <contour>
      <point x="174" y="513" type="curve"/>
      <point x="174" y="609" type="line"/>
      <point x="158" y="609"/>
      <point x="146" y="621"/>
      <point x="146" y="637" type="curve" smooth="yes"/>
      <point x="146" y="654.333"/>
      <point x="158" y="667"/>
      <point x="174" y="667" type="curve"/>
      <point x="174" y="763" type="line"/>
      <point x="103.333" y="763"/>
      <point x="45" y="706.333"/>
      <point x="45" y="637" type="curve" smooth="yes"/>
      <point x="45" y="569"/>
      <point x="104.667" y="513"/>
    </contour>
  </outline>
</glyph>
<glyph name="verticallinelowmod" format="2">
  <advance width="270"/>
  <unicode hex="02CC"/>
  <outline>
    <contour>
      <point x="60" y="-147" type="line"/>
      <point x="210" y="-147" type="line"/>
      <point x="210" y="197" type="line"/>
      <point x="60" y="197" type="line"/>
    </contour>
  </outline>
</glyph>
<glyph name="acutecomb" format="2">
  <unicode hex="0301"/>
  <anchor x="250.0" y="525.0" name="_top"/>
  <anchor x="250.0" y="750.0" name="top"/>
  <outline>
    <contour>
      <point x="165.0" y="566.0" type="line"/>
      <point x="393.0" y="688.0" type="line"/>
      <point x="313.0" y="809.0" type="line"/>
      <point x="107.0" y="655.0" type="line"/>
    </contour>
  </outline>
</glyph>
<glyph name="circumflexcomb" format="2">
  <unicode hex="0302"/>
  <anchor x="250.0" y="525.0" name="_top"/>
  <anchor x="250.0" y="750.0" name="top"/>
  <outline>
    <contour>
      <point x="105.0" y="586.0" type="line"/>
      <point x="265.0" y="682.0" type="line"/>
      <point x="235.0" y="682.0" type="line"/>
      <point x="395.0" y="586.0" type="line"/>
      <point x="467.0" y="648.0" type="line"/>
      <point x="301.0" y="790.0" type="line"/>
      <point x="199.0" y="790.0" type="line"/>
      <point x="33.0" y="648.0" type="line"/>
    </contour>
  </outline>
</glyph>
<glyph name="brevecomb" format="2">
  <unicode hex="0306"/>
  <anchor x="250" y="525" name="_top"/>
  <anchor x="250" y="750" name="top"/>
  <outline>
    <contour>
      <point x="250" y="600" type="curve" smooth="yes"/>
      <point x="347" y="600"/>
      <point x="422" y="661"/>
      <point x="442" y="764" type="curve"/>
      <point x="318" y="776" type="line"/>
      <point x="306" y="741"/>
      <point x="278" y="721"/>
      <point x="250" y="721" type="curve" smooth="yes"/>
      <point x="222" y="721"/>
      <point x="194" y="741"/>
      <point x="182" y="776" type="curve"/>
      <point x="58" y="764" type="line"/>
      <point x="78" y="661"/>
      <point x="153" y="600"/>
    </contour>
  </outline>
</glyph>
<glyph name="dblgravecomb" format="2">
  <unicode hex="030F"/>
  <anchor x="307.0" y="525.0" name="_top"/>
  <anchor x="250.0" y="750.0" name="top"/>
  <outline>
    <contour>
      <point x="400.0" y="563.0" type="line"/>
      <point x="492.0" y="608.0" type="line"/>
      <point x="351.0" y="822.0" type="line"/>
      <point x="234.0" y="736.0" type="line"/>
    </contour>
    <contour>
      <point x="190.0" y="568.0" type="line"/>
      <point x="276.0" y="619.0" type="line"/>
      <point x="117.0" y="821.0" type="line"/>
      <point x="8.0" y="725.0" type="line"/>
    </contour>
  </outline>
</glyph>
<glyph name="commaturnedabovecomb" format="2">
  <unicode hex="0312"/>
  <anchor x="250" y="525" name="_top"/>
  <anchor x="250" y="700" name="top"/>
  <outline>
    <contour>
      <point x="251" y="578" type="curve" smooth="yes"/>
      <point x="306" y="578"/>
      <point x="348" y="602"/>
      <point x="348" y="655" type="curve" smooth="yes"/>
      <point x="348" y="687"/>
      <point x="334" y="705"/>
      <point x="303" y="720" type="curve" smooth="yes"/>
      <point x="286" y="729"/>
      <point x="275" y="734"/>
      <point x="275" y="747" type="curve" smooth="yes"/>
      <point x="275" y="777"/>
      <point x="334" y="799"/>
      <point x="361" y="809" type="curve"/>
      <point x="309" y="873" type="line"/>
      <point x="204" y="833"/>
      <point x="139" y="778"/>
      <point x="139" y="695" type="curve" smooth="yes"/>
      <point x="139" y="615"/>
      <point x="188" y="578"/>
    </contour>
  </outline>
</glyph>
<glyph name="dieresisbelowcomb" format="2">
  <unicode hex="0324"/>
  <anchor x="251.0" y="0" name="_bottom"/>
  <anchor x="251.0" y="-238.0" name="bottom"/>
  <outline>
    <contour>
      <point x="386.0" y="-238.0" type="curve" smooth="yes"/>
      <point x="447.0" y="-238.0"/>
      <point x="486.0" y="-197.0"/>
      <point x="486.0" y="-138.0" type="curve" smooth="yes"/>
      <point x="486.0" y="-73.0"/>
      <point x="450.0" y="-38.0"/>
      <point x="386.0" y="-38.0" type="curve" smooth="yes"/>
      <point x="325.0" y="-38.0"/>
      <point x="286.0" y="-79.0"/>
      <point x="286.0" y="-138.0" type="curve" smooth="yes"/>
      <point x="286.0" y="-202.0"/>
      <point x="322.0" y="-238.0"/>
    </contour>
    <contour>
      <point x="115.0" y="-238.0" type="curve" smooth="yes"/>
      <point x="176.0" y="-238.0"/>
      <point x="215.0" y="-197.0"/>
      <point x="215.0" y="-138.0" type="curve" smooth="yes"/>
      <point x="215.0" y="-73.0"/>
      <point x="179.0" y="-38.0"/>
      <point x="115.0" y="-38.0" type="curve" smooth="yes"/>
      <point x="54.0" y="-38.0"/>
      <point x="15.0" y="-79.0"/>
      <point x="15.0" y="-138.0" type="curve" smooth="yes"/>
      <point x="15.0" y="-202.0"/>
      <point x="51.0" y="-238.0"/>
    </contour>
  </outline>
</glyph>
<glyph name="commaaccentcomb" format="2">
  <unicode hex="0326"/>
  <anchor x="250" y="0" name="_bottom"/>
  <anchor x="250" y="-331" name="bottom"/>
  <outline>
    <contour>
      <point x="191" y="-331" type="line"/>
      <point x="296" y="-291"/>
      <point x="361" y="-236"/>
      <point x="361" y="-153" type="curve" smooth="yes"/>
      <point x="361" y="-73"/>
      <point x="312" y="-36"/>
      <point x="249" y="-36" type="curve" smooth="yes"/>
      <point x="194" y="-36"/>
      <point x="152" y="-60"/>
      <point x="152" y="-113" type="curve" smooth="yes"/>
      <point x="152" y="-145"/>
      <point x="166" y="-163"/>
      <point x="197" y="-178" type="curve" smooth="yes"/>
      <point x="214" y="-187"/>
      <point x="225" y="-192"/>
      <point x="225" y="-205" type="curve" smooth="yes"/>
      <point x="225" y="-235"/>
      <point x="166" y="-257"/>
      <point x="139" y="-267" type="curve"/>
    </contour>
  </outline>
</glyph>
<glyph name="cedillacomb" format="2">
  <unicode hex="0327"/>
  <anchor x="251" y="0" name="_bottom"/>
  <anchor x="251" y="-247" name="bottom"/>
  <outline>
    <contour>
      <point x="146" y="-247" type="line"/>
      <point x="241" y="-249"/>
      <point x="366" y="-230"/>
      <point x="366" y="-139" type="curve" smooth="yes"/>
      <point x="366" y="-88"/>
      <point x="333" y="-45"/>
      <point x="261" y="-40" type="curve"/>
      <point x="309" y="24" type="line"/>
      <point x="210" y="24" type="line"/>
      <point x="143" y="-80" type="line"/>
      <point x="164" y="-96" type="line"/>
      <point x="197" y="-96"/>
      <point x="221" y="-105"/>
      <point x="221" y="-125" type="curve" smooth="yes"/>
      <point x="221" y="-148"/>
      <point x="171" y="-156"/>
      <point x="135" y="-156" type="curve"/>
    </contour>
  </outline>
</glyph>
<glyph name="brevebelowcomb" format="2">
  <unicode hex="032E"/>
  <anchor x="250.0" y="0" name="_bottom"/>
  <anchor x="250.0" y="-236.0" name="bottom"/>
  <outline>
    <contour>
      <point x="250.0" y="-236.0" type="curve" smooth="yes"/>
      <point x="349.0" y="-236.0"/>
      <point x="424.0" y="-172.0"/>
      <point x="442.0" y="-72.0" type="curve"/>
      <point x="318.0" y="-60.0" type="line"/>
      <point x="308.0" y="-86.0"/>
      <point x="283.0" y="-115.0"/>
      <point x="250.0" y="-115.0" type="curve" smooth="yes"/>
      <point x="217.0" y="-115.0"/>
      <point x="192.0" y="-86.0"/>
      <point x="182.0" y="-60.0" type="curve"/>
      <point x="58.0" y="-72.0" type="line"/>
      <point x="76.0" y="-172.0"/>
      <point x="151.0" y="-236.0"/>
    </contour>
  </outline>
</glyph>
<glyph name="strokeshortcomb" format="2">
  <unicode hex="0335"/>
  <anchor x="250" y="291" name="_center"/>
  <outline>
    <contour>
      <point x="66" y="221" type="line"/>
      <point x="434" y="221" type="line"/>
      <point x="434" y="361" type="line"/>
      <point x="66" y="361" type="line"/>
    </contour>
  </outline>
</glyph>
<glyph name="pi" format="2">
  <advance width="889"/>
  <unicode hex="03C0"/>
  <outline>
    <contour>
      <point x="169.0" y="0.0" type="line"/>
      <point x="363.0" y="0.0" type="line"/>
      <point x="363.0" y="447.0" type="line"/>
      <point x="350.0" y="365.0" type="line"/>
      <point x="551.0" y="365.0" type="line"/>
      <point x="541.0" y="469.0" type="line"/>
      <point x="541.0" y="0.0" type="line"/>
      <point x="735.0" y="0.0" type="line"/>
      <point x="735.0" y="447.0" type="line"/>
      <point x="726.0" y="365.0" type="line"/>
      <point x="879.0" y="365.0" type="line"/>
      <point x="879.0" y="535.0" type="line"/>
      <point x="25.0" y="535.0" type="line"/>
      <point x="25.0" y="365.0" type="line"/>
      <point x="186.0" y="365.0" type="line"/>
      <point x="169.0" y="485.0" type="line"/>
    </contour>
  </outline>
</glyph>
<glyph name="Germandbls" format="2">
  <advance width="1018"/>
  <unicode hex="1E9E"/>
  <anchor x="509" y="0" name="bottom"/>
  <anchor x="509" y="700" name="top"/>
  <outline>
    <contour>
      <point x="701" y="-10" type="curve" smooth="yes"/>
      <point x="874" y="-10"/>
      <point x="989" y="81.666"/>
      <point x="989" y="199" type="curve" smooth="yes"/>
      <point x="989" y="306"/>
      <point x="910" y="337"/>
      <point x="819" y="369" type="curve" smooth="yes"/>
      <point x="743" y="395.667"/>
      <point x="686" y="414.334"/>
      <point x="686" y="461" type="curve" smooth="yes"/>
      <point x="686" y="516.667"/>
      <point x="768.333" y="526"/>
      <point x="888" y="529" type="curve"/>
      <point x="883" y="686" type="line"/>
      <point x="779" y="716.667"/>
      <point x="691.666" y="726"/>
      <point x="585" y="726" type="curve" smooth="yes"/>
      <point x="275.666" y="726"/>
      <point x="80" y="572.333"/>
      <point x="80" y="257" type="curve" smooth="yes"/>
      <point x="80" y="-1" type="line"/>
      <point x="296" y="-1" type="line"/>
      <point x="296" y="263" type="line" smooth="yes"/>
      <point x="297" y="494"/>
      <point x="436.334" y="575.666"/>
      <point x="583" y="577" type="curve" smooth="yes"/>
      <point x="660.334" y="577"/>
      <point x="723.667" y="561"/>
      <point x="753" y="553" type="curve"/>
      <point x="746" y="594" type="line"/>
      <point x="635.333" y="614"/>
      <point x="470" y="548.333"/>
      <point x="470" y="439" type="curve" smooth="yes"/>
      <point x="470" y="356.334"/>
      <point x="543" y="305"/>
      <point x="621" y="283" type="curve" smooth="yes"/>
      <point x="696" y="264"/>
      <point x="755" y="236"/>
      <point x="755" y="201" type="curve" smooth="yes"/>
      <point x="755" y="173"/>
      <point x="721" y="157"/>
      <point x="682" y="157" type="curve" smooth="yes"/>
      <point x="611.333" y="157"/>
      <point x="570.667" y="185"/>
      <point x="516" y="213" type="curve"/>
      <point x="407" y="83" type="line"/>
      <point x="484" y="32.333"/>
      <point x="577.666" y="-10"/>
    </contour>
  </outline>
</glyph>
<glyph name="endash" format="2">
  <advance width="715"/>
  <unicode hex="2013"/>
  <outline>
    <contour>
      <point x="60.0" y="213.0" type="line"/>
      <point x="655.0" y="213.0" type="line"/>
      <point x="655.0" y="372.0" type="line"/>
      <point x="60.0" y="372.0" type="line"/>
    </contour>
  </outline>
</glyph>
<glyph name="emdash" format="2">
  <advance width="1052"/>
  <unicode hex="2014"/>
  <outline>
    <contour>
      <point x="60.0" y="213.0" type="line"/>
      <point x="992.0" y="213.0" type="line"/>
      <point x="992.0" y="372.0" type="line"/>
      <point x="60.0" y="372.0" type="line"/>
    </contour>
  </outline>
</glyph>
<glyph name="quoteleft" format="2">
  <advance width="352"/>
  <unicode hex="2018"/>
  <outline>
    <contour>
      <point x="189.0" y="319.0" type="curve" smooth="yes"/>
      <point x="258.0" y="319.0"/>
      <point x="314.0" y="351.0"/>
      <point x="314.0" y="416.0" type="curve" smooth="yes"/>
      <point x="314.0" y="470.0"/>
      <point x="275.0" y="496.0"/>
      <point x="243.0" y="510.0" type="curve" smooth="yes"/>
      <point x="209.0" y="527.0"/>
      <point x="206.0" y="540.0"/>
      <point x="206.0" y="558.0" type="curve" smooth="yes"/>
      <point x="206.0" y="591.0"/>
      <point x="251.0" y="639.0"/>
      <point x="322.0" y="675.0" type="curve"/>
      <point x="260.0" y="748.0" type="line"/>
      <point x="148.0" y="706.0"/>
      <point x="40.0" y="589.0"/>
      <point x="40.0" y="483.0" type="curve" smooth="yes"/>
      <point x="40.0" y="391.0"/>
      <point x="113.0" y="319.0"/>
    </contour>
  </outline>
</glyph>
<glyph name="quoteright" format="2">
  <advance width="352"/>
  <unicode hex="2019"/>
  <outline>
    <contour>
      <point x="92.0" y="322.0" type="line"/>
      <point x="204.0" y="364.0"/>
      <point x="312.0" y="481.0"/>
      <point x="312.0" y="587.0" type="curve" smooth="yes"/>
      <point x="312.0" y="679.0"/>
      <point x="239.0" y="751.0"/>
      <point x="163.0" y="751.0" type="curve" smooth="yes"/>
      <point x="94.0" y="751.0"/>
      <point x="38.0" y="719.0"/>
      <point x="38.0" y="654.0" type="curve" smooth="yes"/>
      <point x="38.0" y="600.0"/>
      <point x="77.0" y="574.0"/>
      <point x="109.0" y="560.0" type="curve" smooth="yes"/>
      <point x="143.0" y="543.0"/>
      <point x="146.0" y="530.0"/>
      <point x="146.0" y="512.0" type="curve" smooth="yes"/>
      <point x="146.0" y="479.0"/>
      <point x="101.0" y="431.0"/>
      <point x="30.0" y="395.0" type="curve"/>
    </contour>
  </outline>
</glyph>
<glyph name="daggerdbl" format="2">
  <advance width="440"/>
  <unicode hex="2021"/>
  <outline>
    <contour>
      <point x="120.0" y="159.0" type="line"/>
      <point x="320.0" y="159.0" type="line"/>
      <point x="320.0" y="724.0" type="line"/>
      <point x="120.0" y="724.0" type="line"/>
    </contour>
    <contour>
      <point x="35.0" y="292.0" type="line"/>
      <point x="405.0" y="292.0" type="line"/>
      <point x="405.0" y="442.0" type="line"/>
      <point x="35.0" y="442.0" type="line"/>
    </contour>
    <contour>
      <point x="35.0" y="492.0" type="line"/>
      <point x="405.0" y="492.0" type="line"/>
      <point x="405.0" y="642.0" type="line"/>
      <point x="35.0" y="642.0" type="line"/>
    </contour>
  </outline>
</glyph>
<glyph name="bullet" format="2">
  <advance width="346"/>
  <unicode hex="2022"/>
  <outline>
    <contour>
      <point x="173.0" y="216.0" type="curve" smooth="yes"/>
      <point x="247.667" y="216.0"/>
      <point x="310.0" y="276.333"/>
      <point x="310.0" y="351.0" type="curve" smooth="yes"/>
      <point x="310.0" y="428.333"/>
      <point x="246.333" y="488.0"/>
      <point x="173.0" y="488.0" type="curve" smooth="yes"/>
      <point x="99.667" y="488.0"/>
      <point x="37.0" y="428.333"/>
      <point x="37.0" y="351.0" type="curve" smooth="yes"/>
      <point x="37.0" y="276.333"/>
      <point x="98.333" y="216.0"/>
    </contour>
  </outline>
</glyph>
<glyph name="perthousand" format="2">
  <advance width="1790"/>
  <unicode hex="2030"/>
  <outline>
    <contour>
      <point x="269.0" y="0.0" type="line"/>
      <point x="450.0" y="0.0" type="line"/>
      <point x="939.0" y="700.0" type="line"/>
      <point x="751.0" y="700.0" type="line"/>
    </contour>
    <contour>
      <point x="263.0" y="261.0" type="curve" smooth="yes"/>
      <point x="392.333" y="261.0"/>
      <point x="484.0" y="363.33399999999995"/>
      <point x="484.0" y="490.0" type="curve" smooth="yes"/>
      <point x="484.0" y="619.333"/>
      <point x="397.66600000000005" y="720.0"/>
      <point x="263.0" y="720.0" type="curve" smooth="yes"/>
      <point x="125.667" y="720.0"/>
      <point x="40.0" y="619.333"/>
      <point x="40.0" y="490.0" type="curve" smooth="yes"/>
      <point x="40.0" y="364.667"/>
      <point x="131.0" y="261.0"/>
    </contour>
    <contour>
      <point x="263.0" y="399.0" type="curve" smooth="yes"/>
      <point x="227.0" y="399.0"/>
      <point x="212.0" y="439.333"/>
      <point x="212.0" y="490.0" type="curve" smooth="yes"/>
      <point x="212.0" y="539.3340000000001"/>
      <point x="228.334" y="582.0"/>
      <point x="263.0" y="582.0" type="curve" smooth="yes"/>
      <point x="296.333" y="582.0"/>
      <point x="312.0" y="540.667"/>
      <point x="312.0" y="490.0" type="curve" smooth="yes"/>
      <point x="312.0" y="443.33399999999995"/>
      <point x="297.66600000000005" y="399.0"/>
    </contour>
    <contour>
      <point x="1006.0" y="-16.0" type="curve" smooth="yes"/>
      <point x="1135.333" y="-16.0"/>
      <point x="1228.0" y="86.334"/>
      <point x="1228.0" y="213.0" type="curve" smooth="yes"/>
      <point x="1228.0" y="342.333"/>
      <point x="1141.666" y="443.0"/>
      <point x="1007.0" y="443.0" type="curve" smooth="yes"/>
      <point x="869.667" y="443.0"/>
      <point x="784.0" y="342.333"/>
      <point x="784.0" y="213.0" type="curve" smooth="yes"/>
      <point x="784.0" y="86.334"/>
      <point x="872.6659999999999" y="-16.0"/>
    </contour>
    <contour>
      <point x="1007.0" y="123.0" type="curve" smooth="yes"/>
      <point x="971.0" y="123.0"/>
      <point x="956.0" y="162.333"/>
      <point x="956.0" y="213.0" type="curve" smooth="yes"/>
      <point x="956.0" y="261.0"/>
      <point x="972.667" y="305.0"/>
      <point x="1006.0" y="305.0" type="curve" smooth="yes"/>
      <point x="1040.666" y="305.0"/>
      <point x="1055.0" y="265.001"/>
      <point x="1055.0" y="213.0" type="curve" smooth="yes"/>
      <point x="1055.0" y="165.0"/>
      <point x="1041.666" y="123.0"/>
    </contour>
    <contour>
      <point x="1528.0" y="-16.0" type="curve" smooth="yes"/>
      <point x="1657.333" y="-16.0"/>
      <point x="1750.0" y="86.334"/>
      <point x="1750.0" y="213.0" type="curve" smooth="yes"/>
      <point x="1750.0" y="341.0"/>
      <point x="1663.6660000000002" y="443.0"/>
      <point x="1529.0" y="443.0" type="curve" smooth="yes"/>
      <point x="1391.667" y="443.0"/>
      <point x="1306.0" y="342.333"/>
      <point x="1306.0" y="213.0" type="curve" smooth="yes"/>
      <point x="1306.0" y="86.334"/>
      <point x="1394.6660000000002" y="-16.0"/>
    </contour>
    <contour>
      <point x="1529.0" y="123.0" type="curve" smooth="yes"/>
      <point x="1494.333" y="123.0"/>
      <point x="1478.0" y="162.333"/>
      <point x="1478.0" y="213.0" type="curve" smooth="yes"/>
      <point x="1478.0" y="261.0"/>
      <point x="1494.667" y="305.0"/>
      <point x="1528.0" y="305.0" type="curve" smooth="yes"/>
      <point x="1562.6660000000002" y="305.0"/>
      <point x="1577.0" y="263.667"/>
      <point x="1577.0" y="213.0" type="curve" smooth="yes"/>
      <point x="1577.0" y="166.334"/>
      <point x="1563.6660000000002" y="123.0"/>
    </contour>
  </outline>
</glyph>
<glyph name="guilsinglleft" format="2">
  <advance width="422"/>
  <unicode hex="2039"/>
  <outline>
    <contour>
      <point x="264.0" y="9.0" type="line"/>
      <point x="387.0" y="96.0" type="line"/>
      <point x="202.0" y="294.0" type="line"/>
      <point x="202.0" y="223.0" type="line"/>
      <point x="387.0" y="421.0" type="line"/>
      <point x="264.0" y="508.0" type="line"/>
      <point x="7.0" y="269.0" type="line"/>
      <point x="7.0" y="248.0" type="line"/>
    </contour>
  </outline>
</glyph>
<glyph name="guilsinglright" format="2">
  <advance width="422"/>
  <unicode hex="203A"/>
  <outline>
    <contour>
      <point x="158.0" y="13.0" type="line"/>
      <point x="415.0" y="252.0" type="line"/>
      <point x="415.0" y="273.0" type="line"/>
      <point x="158.0" y="512.0" type="line"/>
      <point x="35.0" y="425.0" type="line"/>
      <point x="220.0" y="227.0" type="line"/>
      <point x="220.0" y="298.0" type="line"/>
      <point x="35.0" y="100.0" type="line"/>
    </contour>
  </outline>
</glyph>
<glyph name="colonsign" format="2">
  <advance width="837"/>
  <unicode hex="20A1"/>
  <anchor x="493.0" y="0" name="bottom"/>
  <anchor x="487.0" y="700.0" name="top"/>
  <outline>
    <contour>
      <point x="306.0" y="-49.0" type="line"/>
      <point x="598.0" y="772.0" type="line"/>
      <point x="529.0" y="803.0" type="line"/>
      <point x="237.0" y="-19.0" type="line"/>
    </contour>
    <contour>
      <point x="525.0" y="-125.0" type="line"/>
      <point x="829.0" y="729.0" type="line"/>
      <point x="760.0" y="760.0" type="line"/>
      <point x="456.0" y="-95.0" type="line"/>
    </contour>
    <component base="C"/>
  </outline>
</glyph>
<glyph name="franc" format="2">
  <advance width="750"/>
  <unicode hex="20A3"/>
  <anchor x="375.0" y="0" name="bottom"/>
  <anchor x="375.0" y="700.0" name="top"/>
  <outline>
    <contour>
      <point x="-10.0" y="56.0" type="line"/>
      <point x="498.0" y="56.0" type="line"/>
      <point x="498.0" y="192.0" type="line"/>
      <point x="-10.0" y="192.0" type="line"/>
    </contour>
    <component base="F"/>
  </outline>
</glyph>
<glyph name="lira" format="2">
  <advance width="796"/>
  <unicode hex="20A4"/>
  <outline>
    <contour>
      <point x="191" y="53" type="line"/>
      <point x="290" y="101"/>
      <point x="350" y="152"/>
      <point x="350" y="232" type="curve" smooth="yes"/>
      <point x="350" y="256"/>
      <point x="342" y="297"/>
      <point x="324" y="353" type="curve" smooth="yes"/>
      <point x="309" y="400"/>
      <point x="301" y="426"/>
      <point x="301" y="466" type="curve" smooth="yes"/>
      <point x="301" y="513"/>
      <point x="348" y="542"/>
      <point x="424" y="542" type="curve" smooth="yes"/>
      <point x="478" y="542"/>
      <point x="520" y="523"/>
      <point x="551" y="487" type="curve"/>
      <point x="706" y="605" type="line"/>
      <point x="665" y="669"/>
      <point x="572" y="720"/>
      <point x="427" y="720" type="curve" smooth="yes"/>
      <point x="224" y="720"/>
      <point x="101" y="625"/>
      <point x="101" y="487" type="curve" smooth="yes"/>
      <point x="101" y="443"/>
      <point x="115" y="398"/>
      <point x="130" y="353" type="curve" smooth="yes"/>
      <point x="146" y="305"/>
      <point x="162" y="254"/>
      <point x="162" y="201" type="curve" smooth="yes"/>
      <point x="162" y="136"/>
      <point x="131" y="91"/>
      <point x="99" y="74" type="curve"/>
    </contour>
    <contour>
      <point x="595" y="-21" type="curve" smooth="yes"/>
      <point x="666" y="-21"/>
      <point x="733" y="13"/>
      <point x="781" y="67" type="curve"/>
      <point x="703" y="208" type="line"/>
      <point x="674" y="182"/>
      <point x="628" y="153"/>
      <point x="576" y="153" type="curve" smooth="yes"/>
      <point x="531" y="153"/>
      <point x="481" y="167"/>
      <point x="429" y="182" type="curve" smooth="yes"/>
      <point x="368" y="201"/>
      <point x="302" y="220"/>
      <point x="238" y="220" type="curve" smooth="yes"/>
      <point x="146" y="220"/>
      <point x="66" y="179"/>
      <point x="14" y="130" type="curve"/>
      <point x="81" y="-16" type="line"/>
      <point x="116" y="6"/>
      <point x="170" y="46"/>
      <point x="225" y="46" type="curve" smooth="yes"/>
      <point x="268" y="46"/>
      <point x="334" y="28"/>
      <point x="402" y="11" type="curve" smooth="yes"/>
      <point x="479" y="-8"/>
      <point x="536" y="-21"/>
    </contour>
    <contour>
      <point x="50" y="240" type="line"/>
      <point x="651" y="240" type="line"/>
      <point x="651" y="317" type="line"/>
      <point x="50" y="317" type="line"/>
    </contour>
    <contour>
      <point x="48" y="378" type="line"/>
      <point x="650" y="378" type="line"/>
      <point x="650" y="455" type="line"/>
      <point x="48" y="455" type="line"/>
    </contour>
  </outline>
</glyph>
<glyph name="naira" format="2">
  <advance width="1088"/>
  <unicode hex="20A6"/>
  <anchor x="560" y="0" name="bottom"/>
  <anchor x="560" y="700" name="top"/>
  <outline>
    <contour>
      <point x="20" y="301" type="line"/>
      <point x="182" y="301" type="line"/>
      <point x="212" y="331" type="line"/>
      <point x="859" y="331" type="line"/>
      <point x="900" y="301" type="line"/>
      <point x="1068" y="301" type="line"/>
      <point x="1068" y="383" type="line"/>
      <point x="905" y="383" type="line"/>
      <point x="863" y="368" type="line"/>
      <point x="218" y="368" type="line"/>
      <point x="184" y="383" type="line"/>
      <point x="20" y="383" type="line"/>
    </contour>
    <component base="N" xOffset="71"/>
  </outline>
</glyph>
<glyph name="won" format="2">
  <advance width="1162"/>
  <unicode hex="20A9"/>
  <anchor x="571.0" y="0" name="bottom"/>
  <anchor x="571.0" y="700.0" name="top"/>
  <outline>
    <contour>
      <point x="-30.0" y="322.0" type="line"/>
      <point x="192.0" y="322.0" type="line"/>
      <point x="212.0" y="334.0" type="line"/>
      <point x="899.0" y="334.0" type="line"/>
      <point x="920.0" y="322.0" type="line"/>
      <point x="1178.0" y="322.0" type="line"/>
      <point x="1178.0" y="431.0" type="line"/>
      <point x="975.0" y="431.0" type="line"/>
      <point x="933.0" y="415.0" type="line"/>
      <point x="188.0" y="415.0" type="line"/>
      <point x="154.0" y="431.0" type="line"/>
      <point x="-30.0" y="431.0" type="line"/>
    </contour>
    <component base="W" xOffset="4"/>
  </outline>
</glyph>
<glyph name="dong" format="2">
  <advance width="746"/>
  <unicode hex="20AB"/>
  <outline>
    <contour>
      <point x="281.0" y="146.0" type="curve" smooth="yes"/>
      <point x="402.0" y="146.0"/>
      <point x="490.0" y="213.0"/>
      <point x="490.0" y="252.0" type="curve"/>
      <point x="445.0" y="266.0" type="line"/>
      <point x="445.0" y="156.0" type="line"/>
      <point x="642.0" y="156.0" type="line"/>
      <point x="642.0" y="714.0" type="line"/>
      <point x="445.0" y="714.0" type="line"/>
      <point x="445.0" y="404.0" type="line"/>
      <point x="485.0" y="397.0" type="line"/>
      <point x="479" y="457.0"/>
      <point x="386.0" y="497.0"/>
      <point x="285.0" y="497.0" type="curve" smooth="yes"/>
      <point x="134.0" y="497.0"/>
      <point x="40.0" y="434.0"/>
      <point x="40.0" y="331.0" type="curve" smooth="yes"/>
      <point x="40.0" y="217.0"/>
      <point x="132.0" y="146.0"/>
    </contour>
    <contour>
      <point x="51.0" y="-20.0" type="line"/>
      <point x="660.0" y="-20.0" type="line"/>
      <point x="660.0" y="106.0" type="line"/>
      <point x="51.0" y="106.0" type="line"/>
    </contour>
    <contour>
      <point x="336.0" y="293.0" type="curve" smooth="yes"/>
      <point x="280.0" y="293.0"/>
      <point x="251.0" y="306.0"/>
      <point x="251.0" y="331.0" type="curve" smooth="yes"/>
      <point x="251.0" y="358.0"/>
      <point x="280.0" y="371.0"/>
      <point x="336.0" y="371.0" type="curve" smooth="yes"/>
      <point x="412.0" y="371.0"/>
      <point x="450.0" y="358.0"/>
      <point x="450.0" y="331.0" type="curve" smooth="yes"/>
      <point x="450.0" y="306.0"/>
      <point x="412.0" y="293.0"/>
    </contour>
    <contour>
      <point x="243.0" y="542.0" type="line"/>
      <point x="706.0" y="542.0" type="line"/>
      <point x="706.0" y="655.0" type="line"/>
      <point x="243.0" y="655.0" type="line"/>
    </contour>
  </outline>
</glyph>
